<svg xmlns="http://www.w3.org/2000/svg" xmlns:svg="http://www.w3.org/2000/svg" xmlns:xlink="http://www.w3.org/1999/xlink" id="svg2" width="64" height="64" version="1.1"><metadata id="metadata7"/><defs id="defs5"><linearGradient id="linearGradient3889"><stop style="stop-color:#fff;stop-opacity:1" id="stop3891" offset="0"/><stop style="stop-color:#f7f7f7;stop-opacity:1" id="stop3893" offset="1"/></linearGradient><linearGradient id="linearGradient3863"><stop id="stop3879" offset="0" style="stop-color:#fff;stop-opacity:1"/><stop style="stop-color:#eeeeec;stop-opacity:1" id="stop3867" offset="1"/></linearGradient><linearGradient id="linearGradient3855"><stop style="stop-color:#eeeeec;stop-opacity:1" id="stop3857" offset="0"/><stop style="stop-color:#eeeeec;stop-opacity:0" id="stop3859" offset="1"/></linearGradient><linearGradient id="linearGradient3063"><stop style="stop-color:#fff;stop-opacity:1" id="stop3065" offset="0"/><stop style="stop-color:#fff;stop-opacity:0" id="stop3067" offset="1"/></linearGradient><linearGradient id="linearGradient4975" x1="34.893" x2="45.919" y1="36.423" y2="48.548" gradientTransform="translate(-18.01785,2.428811)" gradientUnits="userSpaceOnUse" xlink:href="#linearGradient1322"/><linearGradient id="linearGradient1322"><stop id="stop1324" offset="0" style="stop-color:#729fcf"/><stop id="stop1326" offset="1" style="stop-color:#5187d6;stop-opacity:1"/></linearGradient><linearGradient id="linearGradient7922" x1="16.875" x2="27.901" y1="22.852" y2="34.977" gradientTransform="translate(-1.9043922e-7,16.000001)" gradientUnits="userSpaceOnUse" xlink:href="#linearGradient7916"/><linearGradient id="linearGradient7916"><stop style="stop-color:#fff;stop-opacity:1" id="stop7918" offset="0"/><stop style="stop-color:#fff;stop-opacity:.34020618" id="stop7920" offset="1"/></linearGradient><radialGradient id="radialGradient2097" cx="23.071" cy="35.127" r="10.319" fx="23.071" fy="35.127" gradientTransform="matrix(0.914812,0.01265023,-0.00821502,0.213562,2.253914,27.18889)" gradientUnits="userSpaceOnUse" xlink:href="#linearGradient2091"/><linearGradient id="linearGradient2091"><stop style="stop-color:#000;stop-opacity:1" id="stop2093" offset="0"/><stop style="stop-color:#000;stop-opacity:0" id="stop2095" offset="1"/></linearGradient><radialGradient id="radialGradient3083" cx="23.071" cy="35.127" r="10.319" fx="23.071" fy="35.127" gradientTransform="matrix(0.914812,0.01265023,-0.00821502,0.213562,2.253914,27.18889)" gradientUnits="userSpaceOnUse" xlink:href="#linearGradient2091"/><radialGradient id="radialGradient3037" cx="23.071" cy="35.127" r="10.319" fx="23.071" fy="35.127" gradientTransform="matrix(0.914812,0.01265023,-0.00821502,0.213562,2.253914,27.18889)" gradientUnits="userSpaceOnUse" xlink:href="#linearGradient2091"/><linearGradient id="linearGradient3041" x1="16.875" x2="27.901" y1="22.852" y2="34.977" gradientTransform="translate(-1.9043922e-7,16.000001)" gradientUnits="userSpaceOnUse" xlink:href="#linearGradient7916"/><radialGradient id="radialGradient3887" cx="34.014" cy="29.298" r="28.82" fx="34.014" fy="29.298" gradientTransform="matrix(0.40376813,-0.25836056,0.21538873,0.32302984,3.6939103,24.066574)" gradientUnits="userSpaceOnUse" xlink:href="#linearGradient3863"/><radialGradient id="radialGradient3895" cx="18.35" cy="7.25" r="28.008" fx="18.35" fy="7.25" gradientTransform="matrix(0.91761552,-0.59233287,0.36903421,0.57169107,-1.983319,22.157964)" gradientUnits="userSpaceOnUse" xlink:href="#linearGradient3889"/><radialGradient id="radialGradient3028" cx="34.014" cy="29.298" r="28.82" fx="34.014" fy="29.298" gradientTransform="matrix(0.40376813,-0.25836056,0.21538873,0.32302984,3.6939103,24.066574)" gradientUnits="userSpaceOnUse" xlink:href="#linearGradient3863"/><radialGradient id="radialGradient3030" cx="18.35" cy="7.25" r="28.008" fx="18.35" fy="7.25" gradientTransform="matrix(0.91761552,-0.59233287,0.36903421,0.57169107,-1.983319,22.157964)" gradientUnits="userSpaceOnUse" xlink:href="#linearGradient3889"/><linearGradient id="linearGradient3032" x1="16.875" x2="27.901" y1="22.852" y2="34.977" gradientTransform="translate(-1.9043922e-7,16.000001)" gradientUnits="userSpaceOnUse" xlink:href="#linearGradient7916"/><radialGradient id="radialGradient3052" cx="34.014" cy="29.298" r="28.82" fx="34.014" fy="29.298" gradientTransform="matrix(0.40376813,-0.25836056,0.21538873,0.32302984,3.6939103,24.066574)" gradientUnits="userSpaceOnUse" xlink:href="#linearGradient3863"/><radialGradient id="radialGradient3054" cx="18.35" cy="7.25" r="28.008" fx="18.35" fy="7.25" gradientTransform="matrix(0.91761552,-0.59233287,0.36903421,0.57169107,-1.983319,22.157964)" gradientUnits="userSpaceOnUse" xlink:href="#linearGradient3889"/><linearGradient id="linearGradient3056" x1="16.875" x2="27.901" y1="22.852" y2="34.977" gradientTransform="translate(-1.9043922e-7,16.000001)" gradientUnits="userSpaceOnUse" xlink:href="#linearGradient7916"/><radialGradient id="radialGradient3066" cx="34.014" cy="29.298" r="28.82" fx="34.014" fy="29.298" gradientTransform="matrix(0.40376813,-0.25836056,0.21538873,0.32302984,73.693457,24.066574)" gradientUnits="userSpaceOnUse" xlink:href="#linearGradient3863"/><radialGradient id="radialGradient3068" cx="18.35" cy="7.25" r="28.008" fx="18.35" fy="7.25" gradientTransform="matrix(0.91761552,-0.59233287,0.36903421,0.57169107,68.016228,22.157964)" gradientUnits="userSpaceOnUse" xlink:href="#linearGradient3889"/><linearGradient id="linearGradient3070" x1="16.875" x2="27.901" y1="22.852" y2="34.977" gradientTransform="translate(-1.9043922e-7,16.000001)" gradientUnits="userSpaceOnUse" xlink:href="#linearGradient7916"/></defs><g id="g3031" transform="matrix(0.5,0,0,0.5,39.011363,-7.0213416)"><path id="text1314" d="m 27.514356,53.542683 0,-9.02696 9.978464,-0.04018 0,-6.995324 -9.969535,0 -0.0089,-9.96017 -7.016274,0.01116 0.0045,9.931152 -9.989626,0.07366 -0.03571,6.968539 10.034269,-0.02902 0.0067,9.040353 6.996185,0.02679 z" style="font-size:59.90107727px;font-style:normal;font-variant:normal;font-weight:700;font-stretch:normal;text-align:start;line-height:125%;writing-mode:lr-tb;text-anchor:start;fill:#c00;fill-opacity:1;stroke:#a40000;stroke-width:1.00000036px;stroke-linecap:butt;stroke-linejoin:miter;stroke-opacity:1;font-family:Bitstream Vera Sans"/><path id="path7076" d="m 26.498702,52.533921 0,-9.034182 10.002602,0 -0.0067,-5.024429 -9.986977,0 0,-9.994974 -4.994834,0.01786 0.0089,9.977116 -10.026189,0.01786 -0.02679,4.97309 10.064393,0.0089 -0.01339,9.027485 4.978952,0.03125 z" style="font-size:59.90107727px;font-style:normal;font-variant:normal;font-weight:700;font-stretch:normal;text-align:start;line-height:125%;writing-mode:lr-tb;text-anchor:start;opacity:.40860213;fill:#ef2929;fill-opacity:1;stroke:url(#linearGradient3070);stroke-width:1.0000006px;stroke-linecap:butt;stroke-linejoin:miter;stroke-opacity:1;font-family:Bitstream Vera Sans"/><path id="path7914" d="m 11,41.000001 c 0,1.9375 25.984375,-0.96875 25.984375,-0.03125 l 0,-3 L 27,38.000001 l 0,-9.965228 -6,0 0,9.965228 -10,0 0,3 z" style="opacity:.31182796;fill:#fff;fill-opacity:1;fill-rule:evenodd;stroke:none"/></g><g id="g3072"><path id="path3036" d="m 6,54 0,-31 3,0 0,19 46,0 0,-7.298159 3,0 L 58,54 l -3,0 0,-8 -46,0 0,8 z" style="color:#000;fill:#c17d11;stroke:#000;stroke-width:1;stroke-linecap:round;stroke-linejoin:round;stroke-miterlimit:4;stroke-opacity:1;stroke-dasharray:none;stroke-dashoffset:40;marker:none;visibility:visible;display:inline;overflow:visible;enable-background:accumulate"/><path id="path3038" d="m 10,26 2,-2 12,13 26,0 0,3 -27,0 z" style="color:#000;fill:#d3d7cf;stroke:#000;stroke-width:1;stroke-linecap:round;stroke-linejoin:round;stroke-miterlimit:4;stroke-opacity:1;stroke-dasharray:none;stroke-dashoffset:40;marker:none;visibility:visible;display:inline;overflow:visible;enable-background:accumulate"/><path id="path3040" d="m 19.730879,23.505814 c 0,1.457165 -1.181266,2.638431 -2.638432,2.638431 -1.457165,0 -2.638431,-1.181266 -2.638431,-2.638431 0,-1.457166 1.181266,-2.638432 2.638431,-2.638432 1.457166,0 2.638432,1.181266 2.638432,2.638432 z" transform="translate(1.4912873,1.3840751)" style="color:#000;fill:#e9b96e;stroke:#000;stroke-width:1;stroke-linecap:round;stroke-linejoin:round;stroke-miterlimit:4;stroke-opacity:1;stroke-dasharray:none;stroke-dashoffset:40;marker:none;visibility:visible;display:inline;overflow:visible;enable-background:accumulate"/><path id="path3044" d="m 18.46902,31.256539 c 1.292138,-1.869915 4.89176,-5.162583 7.571151,-3.842933 14.600927,7.191223 20.019113,2.209206 24.163713,4.473862 C 54.348483,34.152124 53.524839,38.068951 53.500115,43 L 17,43 c 0,-3.007044 -0.429911,-8.995426 1.46902,-11.743461 z" style="color:#000;fill:#729fcf;fill-opacity:1;stroke:#000;stroke-width:1;stroke-linecap:round;stroke-linejoin:round;stroke-miterlimit:4;stroke-opacity:1;stroke-dasharray:none;stroke-dashoffset:40;marker:none;visibility:visible;display:inline;overflow:visible;enable-background:accumulate"/><path style="color:#000;fill:#888a85;fill-opacity:1;fill-rule:nonzero;stroke:#000;stroke-width:.91021311;stroke-linecap:round;stroke-linejoin:round;stroke-miterlimit:4;stroke-opacity:1;stroke-dasharray:none;stroke-dashoffset:40;marker:none;visibility:visible;display:inline;overflow:visible;enable-background:accumulate" id="path3048" d="m 8.6408527,57.820427 c 0,1.005394 -0.8150326,1.820426 -1.8204262,1.820426 -1.0053937,0 -1.8204263,-0.815032 -1.8204263,-1.820426 0,-1.005394 0.8150326,-1.820426 1.8204263,-1.820426 1.0053936,0 1.8204262,0.815032 1.8204262,1.820426 z" transform="matrix(1.0986438,0,0,1.0986438,49.006781,-7.5240536)"/><path id="path3050" d="m 8.6408527,57.820427 c 0,1.005394 -0.8150326,1.820426 -1.8204262,1.820426 -1.0053937,0 -1.8204263,-0.815032 -1.8204263,-1.820426 0,-1.005394 0.8150326,-1.820426 1.8204263,-1.820426 1.0053936,0 1.8204262,0.815032 1.8204262,1.820426 z" transform="matrix(1.0986438,0,0,1.0986438,0.00678073,-7.5240536)" style="color:#000;fill:#888a85;fill-opacity:1;fill-rule:nonzero;stroke:#000;stroke-width:.91021311;stroke-linecap:round;stroke-linejoin:round;stroke-miterlimit:4;stroke-opacity:1;stroke-dasharray:none;stroke-dashoffset:40;marker:none;visibility:visible;display:inline;overflow:visible;enable-background:accumulate"/></g></svg>