<svg xmlns="http://www.w3.org/2000/svg" xmlns:svg="http://www.w3.org/2000/svg" id="svg2" width="64" height="64" version="1.1"><metadata id="metadata7"/><path style="fill:#fce94f;fill-opacity:1;fill-rule:nonzero;stroke:#000;stroke-width:.99999981999999998;stroke-linecap:round;stroke-linejoin:round;stroke-miterlimit:4;stroke-opacity:1" id="path2404" d="m 31.016129,45.17624 -9.32874,-24.98269 -0.50997,25.48025 4.78658,1.08427 5.05213,-1.58183 z"/><path style="fill:#fce94f;fill-opacity:1;fill-rule:nonzero;stroke:#000;stroke-width:.99999981999999998;stroke-linecap:round;stroke-linejoin:round;stroke-miterlimit:4;stroke-opacity:1" id="path2406" d="m 32.983869,45.17624 9.32873,-24.98269 0.50998,25.48025 -4.78658,1.08427 -5.05213,-1.58183 z"/><path style="fill:#fce94f;fill-opacity:1;fill-rule:nonzero;stroke:#000;stroke-width:.99999981999999998;stroke-linecap:round;stroke-linejoin:round;stroke-miterlimit:4;stroke-opacity:1" id="path2408" d="m 25.112899,45.14192 -13.77419,-21.99676 3.6282,22.50513 4.93608,1.10778 5.20991,-1.61615 z"/><path style="fill:#fce94f;fill-opacity:1;fill-rule:nonzero;stroke:#000;stroke-width:.99999981999999998;stroke-linecap:round;stroke-linejoin:round;stroke-miterlimit:4;stroke-opacity:1" id="path2410" d="m 38.887089,45.14192 13.7742,-21.99676 -3.62821,22.50513 -4.93607,1.10778 -5.20992,-1.61615 z"/><path style="fill:#fce94f;fill-opacity:1;fill-rule:nonzero;stroke:#000;stroke-width:1.87867785000000009;stroke-linecap:round;stroke-linejoin:round;stroke-miterlimit:4;stroke-opacity:1;stroke-dasharray:none" id="path2412" d="m 37.843667,874.30286 a 6.1455526,8.8948793 0 1 1 -12.291105,0 6.1455526,8.8948793 0 1 1 12.291105,0 z" transform="matrix(0.6403792,0,0,0.4424438,0.87860436,-367.6202)"/><path style="fill:#fce94f;fill-opacity:1;fill-rule:nonzero;stroke:#000;stroke-width:1.87867785000000009;stroke-linecap:round;stroke-linejoin:round;stroke-miterlimit:4;stroke-opacity:1;stroke-dasharray:none" id="path2414" d="m 37.843667,874.30286 a 6.1455526,8.8948793 0 1 1 -12.291105,0 6.1455526,8.8948793 0 1 1 12.291105,0 z" transform="matrix(0.6403792,0,0,0.4424438,22.523769,-367.6202)"/><path style="fill:#fce94f;fill-opacity:1;fill-rule:nonzero;stroke:#000;stroke-width:1.87867785000000009;stroke-linecap:round;stroke-linejoin:round;stroke-miterlimit:4;stroke-opacity:1;stroke-dasharray:none" id="path2416" d="m 37.843667,874.30286 a 6.1455526,8.8948793 0 1 1 -12.291105,0 6.1455526,8.8948793 0 1 1 12.291105,0 z" transform="matrix(0.6403792,0,0,0.4424438,-9.9439756,-363.68472)"/><path style="fill:#fce94f;fill-opacity:1;fill-rule:nonzero;stroke:#000;stroke-width:1.87867785000000009;stroke-linecap:round;stroke-linejoin:round;stroke-miterlimit:4;stroke-opacity:1;stroke-dasharray:none" id="path2418" d="m 37.843667,874.30286 a 6.1455526,8.8948793 0 1 1 -12.291105,0 6.1455526,8.8948793 0 1 1 12.291105,0 z" transform="matrix(0.6403792,0,0,0.4424438,33.346349,-363.68472)"/><path style="fill:#fce94f;fill-opacity:1;fill-rule:nonzero;stroke:#000;stroke-width:.99999994000000003;stroke-linecap:round;stroke-linejoin:round;stroke-miterlimit:4;stroke-opacity:1" id="path2420" d="m 36.919359,45.24983 -4.90579,-26.04009 -4.93292,25.5757 4.66076,1.97269 5.17795,-1.5083 z"/><path style="fill:#fce94f;fill-opacity:1;fill-rule:nonzero;stroke:#000;stroke-width:1.87867785000000009;stroke-linecap:round;stroke-linejoin:round;stroke-miterlimit:4;stroke-opacity:1;stroke-dasharray:none" id="path2422" d="m 37.843667,874.30286 a 6.1455526,8.8948793 0 1 1 -12.291105,0 6.1455526,8.8948793 0 1 1 12.291105,0 z" transform="matrix(0.6403792,0,0,0.4424438,11.701189,-369.58794)"/><path style="fill:#fce94f;fill-opacity:1;fill-rule:nonzero;stroke:#000;stroke-width:.47475433;stroke-linecap:round;stroke-linejoin:round;stroke-miterlimit:4;stroke-opacity:1;stroke-dasharray:none" id="path2424" d="m 59.702156,907.57715 a 10.047844,1.6502695 0 1 1 -20.095688,0 10.047844,1.6502695 0 1 1 20.095688,0 z" transform="matrix(1.8604537,0,0,2.3847523,-60.379553,-2117.5886)"/></svg>