<svg xmlns="http://www.w3.org/2000/svg" xmlns:svg="http://www.w3.org/2000/svg" id="svg2" width="52" height="38" version="1.1"><metadata id="metadata7"/><path style="fill:#fce94f;fill-opacity:1;fill-rule:nonzero;stroke:#000;stroke-width:.99999982;stroke-linecap:round;stroke-linejoin:round;stroke-miterlimit:4;stroke-opacity:1" id="path2404" d="m 25.096776,31.982717 -9.32874,-24.9826996 -0.50997,25.4801996 4.78658,1.0843 5.05213,-1.5818 z"/><path style="fill:#fce94f;fill-opacity:1;fill-rule:nonzero;stroke:#000;stroke-width:.99999982;stroke-linecap:round;stroke-linejoin:round;stroke-miterlimit:4;stroke-opacity:1" id="path2406" d="m 27.064516,31.982717 9.32873,-24.9826996 0.50998,25.4801996 -4.78658,1.0843 -5.05213,-1.5818 z"/><path style="fill:#fce94f;fill-opacity:1;fill-rule:nonzero;stroke:#000;stroke-width:.99999982;stroke-linecap:round;stroke-linejoin:round;stroke-miterlimit:4;stroke-opacity:1" id="path2408" d="m 19.193546,31.948317 -13.7741901,-21.9967 3.6282,22.5051 4.9360801,1.1078 5.20991,-1.6162 z"/><path style="fill:#fce94f;fill-opacity:1;fill-rule:nonzero;stroke:#000;stroke-width:.99999982;stroke-linecap:round;stroke-linejoin:round;stroke-miterlimit:4;stroke-opacity:1" id="path2410" d="m 32.967736,31.948317 13.7742,-21.9967 -3.62821,22.5051 -4.93607,1.1078 -5.20992,-1.6162 z"/><path style="fill:#fce94f;fill-opacity:1;fill-rule:nonzero;stroke:#000;stroke-width:1.87867785;stroke-linecap:round;stroke-linejoin:round;stroke-miterlimit:4;stroke-opacity:1;stroke-dasharray:none" id="path2412" d="m 37.843667,874.30286 a 6.1455526,8.8948793 0 1 1 -12.291105,0 6.1455526,8.8948793 0 1 1 12.291105,0 z" transform="matrix(0.6403792,0,0,0.4424438,-5.0407491,-380.81376)"/><path style="fill:#fce94f;fill-opacity:1;fill-rule:nonzero;stroke:#000;stroke-width:1.87867785;stroke-linecap:round;stroke-linejoin:round;stroke-miterlimit:4;stroke-opacity:1;stroke-dasharray:none" id="path2414" d="m 37.843667,874.30286 a 6.1455526,8.8948793 0 1 1 -12.291105,0 6.1455526,8.8948793 0 1 1 12.291105,0 z" transform="matrix(0.6403792,0,0,0.4424438,16.604416,-380.81376)"/><path style="fill:#fce94f;fill-opacity:1;fill-rule:nonzero;stroke:#000;stroke-width:1.87867785;stroke-linecap:round;stroke-linejoin:round;stroke-miterlimit:4;stroke-opacity:1;stroke-dasharray:none" id="path2416" d="m 37.843667,874.30286 a 6.1455526,8.8948793 0 1 1 -12.291105,0 6.1455526,8.8948793 0 1 1 12.291105,0 z" transform="matrix(0.6403792,0,0,0.4424438,-15.863329,-376.87828)"/><path style="fill:#fce94f;fill-opacity:1;fill-rule:nonzero;stroke:#000;stroke-width:1.87867785;stroke-linecap:round;stroke-linejoin:round;stroke-miterlimit:4;stroke-opacity:1;stroke-dasharray:none" id="path2418" d="m 37.843667,874.30286 a 6.1455526,8.8948793 0 1 1 -12.291105,0 6.1455526,8.8948793 0 1 1 12.291105,0 z" transform="matrix(0.6403792,0,0,0.4424438,27.426996,-376.87828)"/><path style="fill:#fce94f;fill-opacity:1;fill-rule:nonzero;stroke:#000;stroke-width:.99999994;stroke-linecap:round;stroke-linejoin:round;stroke-miterlimit:4;stroke-opacity:1" id="path2420" d="m 31.000006,32.056217 -4.90579,-26.0399996 -4.93292,25.5756996 4.66076,1.9726 5.17795,-1.5083 z"/><path style="fill:#fce94f;fill-opacity:1;fill-rule:nonzero;stroke:#000;stroke-width:1.87867785;stroke-linecap:round;stroke-linejoin:round;stroke-miterlimit:4;stroke-opacity:1;stroke-dasharray:none" id="path2422" d="m 37.843667,874.30286 a 6.1455526,8.8948793 0 1 1 -12.291105,0 6.1455526,8.8948793 0 1 1 12.291105,0 z" transform="matrix(0.6403792,0,0,0.4424438,5.7818359,-382.7815)"/><path style="fill:#fce94f;fill-opacity:1;fill-rule:nonzero;stroke:#000;stroke-width:.47475433;stroke-linecap:round;stroke-linejoin:round;stroke-miterlimit:4;stroke-opacity:1;stroke-dasharray:none" id="path2424" d="m 59.702156,907.57715 a 10.047844,1.6502695 0 1 1 -20.095688,0 10.047844,1.6502695 0 1 1 20.095688,0 z" transform="matrix(1.8604537,0,0,2.3847523,-66.298906,-2130.7822)"/></svg>