<svg xmlns="http://www.w3.org/2000/svg" xmlns:svg="http://www.w3.org/2000/svg" id="svg2" width="64" height="64" version="1.1"><metadata id="metadata7"/><g id="g3010" transform="translate(1.1154528e-7,1.3950954)"><path id="rect3037" d="m 6.2449171,47.371515 0.014871,-11.176456 21.8063349,10.018339 11.03984,-13.165541 18.227766,4.911892 -3.737793,6.941076 -3.591655,1.740354 -3.731018,9.401853 -18.20714,-9.829634 -6.862514,5.052208 -12.6412619,4.988928 z" style="fill:none;stroke:#000;stroke-width:1;stroke-opacity:1"/><path id="path3042" d="m 10.463215,11.46594 c 0,0.746413 -0.6050867,1.351499 -1.3514987,1.351499 -0.7464121,0 -1.3514986,-0.605086 -1.3514986,-1.351499 0,-0.746412 0.6050865,-1.351498 1.3514986,-1.351498 0.746412,0 1.3514987,0.605086 1.3514987,1.351498 z" transform="matrix(1.2080925,0,0,1.2128226,-4.6048726,22.62597)" style="fill:#8ae234;stroke:#000;stroke-width:.82613546;stroke-opacity:1"/><path style="fill:#8ae234;stroke:#000;stroke-width:.82613546;stroke-opacity:1" id="path3044" d="m 10.463215,11.46594 c 0,0.746413 -0.6050867,1.351499 -1.3514987,1.351499 -0.7464121,0 -1.3514986,-0.605086 -1.3514986,-1.351499 0,-0.746412 0.6050865,-1.351498 1.3514986,-1.351498 0.746412,0 1.3514987,0.605086 1.3514987,1.351498 z" transform="matrix(1.2080925,0,0,1.2128226,-4.7102104,32.98949)"/><path id="path3046" d="m 10.463215,11.46594 c 0,0.746413 -0.6050867,1.351499 -1.3514987,1.351499 -0.7464121,0 -1.3514986,-0.605086 -1.3514986,-1.351499 0,-0.746412 0.6050865,-1.351498 1.3514986,-1.351498 0.746412,0 1.3514987,0.605086 1.3514987,1.351498 z" transform="matrix(1.2080925,0,0,1.2128226,-2.8141306,42.612759)" style="fill:#8ae234;stroke:#000;stroke-width:.82613546;stroke-opacity:1"/><path style="fill:#8ae234;stroke:#000;stroke-width:.82613546;stroke-opacity:1" id="path3048" d="m 10.463215,11.46594 c 0,0.746413 -0.6050867,1.351499 -1.3514987,1.351499 -0.7464121,0 -1.3514986,-0.605086 -1.3514986,-1.351499 0,-0.746412 0.6050865,-1.351498 1.3514986,-1.351498 0.746412,0 1.3514987,0.605086 1.3514987,1.351498 z" transform="matrix(1.2080925,0,0,1.2128226,10.353089,37.219499)"/><path id="path3050" d="m 10.463215,11.46594 c 0,0.746413 -0.6050867,1.351499 -1.3514987,1.351499 -0.7464121,0 -1.3514986,-0.605086 -1.3514986,-1.351499 0,-0.746412 0.6050865,-1.351498 1.3514986,-1.351498 0.746412,0 1.3514987,0.605086 1.3514987,1.351498 z" transform="matrix(1.2080925,0,0,1.2128226,17.200044,32.460739)" style="fill:#ef2929;stroke:#000;stroke-width:.82613546;stroke-opacity:1"/><path style="fill:#fce94f;stroke:#000;stroke-width:.82613546;stroke-opacity:1" id="path3052" d="m 10.463215,11.46594 c 0,0.746413 -0.6050867,1.351499 -1.3514987,1.351499 -0.7464121,0 -1.3514986,-0.605086 -1.3514986,-1.351499 0,-0.746412 0.6050865,-1.351498 1.3514986,-1.351498 0.746412,0 1.3514987,0.605086 1.3514987,1.351498 z" transform="matrix(1.2080925,0,0,1.2128226,35.423478,42.507009)"/><path id="path3054" d="m 10.463215,11.46594 c 0,0.746413 -0.6050867,1.351499 -1.3514987,1.351499 -0.7464121,0 -1.3514986,-0.605086 -1.3514986,-1.351499 0,-0.746412 0.6050865,-1.351498 1.3514986,-1.351498 0.746412,0 1.3514987,0.605086 1.3514987,1.351498 z" transform="matrix(1.2080925,0,0,1.2128226,38.794287,32.88374)" style="fill:#fce94f;stroke:#000;stroke-width:.82613546;stroke-opacity:1"/><path style="fill:#fce94f;stroke:#000;stroke-width:.82613546;stroke-opacity:1" id="path3056" d="m 10.463215,11.46594 c 0,0.746413 -0.6050867,1.351499 -1.3514987,1.351499 -0.7464121,0 -1.3514986,-0.605086 -1.3514986,-1.351499 0,-0.746412 0.6050865,-1.351498 1.3514986,-1.351498 0.746412,0 1.3514987,0.605086 1.3514987,1.351498 z" transform="matrix(1.2080925,0,0,1.2128226,42.481108,31.085987)"/><path id="path3058" d="m 10.463215,11.46594 c 0,0.746413 -0.6050867,1.351499 -1.3514987,1.351499 -0.7464121,0 -1.3514986,-0.605086 -1.3514986,-1.351499 0,-0.746412 0.6050865,-1.351498 1.3514986,-1.351498 0.746412,0 1.3514987,0.605086 1.3514987,1.351498 z" transform="matrix(1.2080925,0,0,1.2128226,46.694618,24.000723)" style="fill:#fce94f;stroke:#000;stroke-width:.82613546;stroke-opacity:1"/><path style="fill:#fce94f;stroke:#000;stroke-width:.82613546;stroke-opacity:1" id="path3060" d="m 10.463215,11.46594 c 0,0.746413 -0.6050867,1.351499 -1.3514987,1.351499 -0.7464121,0 -1.3514986,-0.605086 -1.3514986,-1.351499 0,-0.746412 0.6050865,-1.351498 1.3514986,-1.351498 0.746412,0 1.3514987,0.605086 1.3514987,1.351498 z" transform="matrix(1.2080925,0,0,1.2128226,28.365847,19.136214)"/></g><g id="g3053" transform="matrix(1.5,0,0,1.5,1.4885862,1.2865189)"><circle style="fill:#2e3436;stroke:#2e3436;stroke-width:.58399999" id="circle4994-2-0" cx="170.978" cy="78.395" r="14.263" d="m 185.241,78.394997 c 0,7.877237 -6.38577,14.262999 -14.263,14.262999 -7.87724,0 -14.263,-6.385762 -14.263,-14.262999 0,-7.877237 6.38576,-14.263 14.263,-14.263 7.87723,0 14.263,6.385763 14.263,14.263 z" transform="matrix(-0.10628078,0.0048,0.00956527,-0.12,49.203056,22.805455)"/><circle style="fill:#2e3436;stroke:#2e3436;stroke-width:.58399999" id="circle4990-5" cx="170.978" cy="78.395" r="14.263" d="m 185.241,78.394997 c 0,7.877237 -6.38577,14.262999 -14.263,14.262999 -7.87724,0 -14.263,-6.385762 -14.263,-14.262999 0,-7.877237 6.38576,-14.263 14.263,-14.263 7.87723,0 14.263,6.385763 14.263,14.263 z" transform="matrix(-0.10628078,-0.0048,0.00956527,0.12,41.673042,8.6597144)"/><circle style="fill:#2e3436;stroke:#2e3436;stroke-width:.58399999" id="circle4986-7" cx="170.978" cy="78.395" r="14.263" d="m 185.241,78.394997 c 0,7.877237 -6.38577,14.262999 -14.263,14.262999 -7.87724,0 -14.263,-6.385762 -14.263,-14.262999 0,-7.877237 6.38576,-14.263 14.263,-14.263 7.87723,0 14.263,6.385763 14.263,14.263 z" transform="matrix(-0.10628078,-0.0048,0.00956527,0.12,41.516792,8.7144034)"/><circle style="fill:#2e3436;stroke:#2e3436;stroke-width:.58399999" id="circle4992-4" cx="170.978" cy="78.395" r="14.263" d="m 185.241,78.394997 c 0,7.877237 -6.38577,14.262999 -14.263,14.262999 -7.87724,0 -14.263,-6.385762 -14.263,-14.262999 0,-7.877237 6.38576,-14.263 14.263,-14.263 7.87723,0 14.263,6.385763 14.263,14.263 z" transform="matrix(-0.10628078,-0.0048,0.00956527,0.12,41.9141,8.6629314)"/><circle style="fill:#2e3436;stroke:#2e3436;stroke-width:.58399999" id="circle4994-2" cx="170.978" cy="78.395" r="14.263" d="m 185.241,78.394997 c 0,7.877237 -6.38577,14.262999 -14.263,14.262999 -7.87724,0 -14.263,-6.385762 -14.263,-14.262999 0,-7.877237 6.38576,-14.263 14.263,-14.263 7.87723,0 14.263,6.385763 14.263,14.263 z" transform="matrix(-0.10628078,0.0048,0.00956527,-0.12,41.898475,25.742592)"/><path style="fill:#2e3436" id="path2996-6-2-4-8" d="m 22.264993,8.6339835 c -0.06271,0.0309 -0.145794,0.11805 -0.145794,0.28185 l 0,7.2467995 c 0,0.26565 0.131392,0.36375 0.29735,0.282 l 7.640271,-3.765149 c 0.06271,-0.0309 0.145795,-0.1281 0.145795,-0.28185 l 0,-7.2468009 c 0,-0.2394 -0.131282,-0.36375 -0.297351,-0.28185 l -7.640271,3.7650004 z"/><circle style="fill:#2e3436;stroke:#2e3436;stroke-width:.58399999" id="circle4990" cx="170.978" cy="78.395" r="14.263" d="m 185.241,78.394997 c 0,7.877237 -6.38577,14.262999 -14.263,14.262999 -7.87724,0 -14.263,-6.385762 -14.263,-14.262999 0,-7.877237 6.38576,-14.263 14.263,-14.263 7.87723,0 14.263,6.385763 14.263,14.263 z" transform="matrix(-0.10628078,-0.0048,0.00956527,0.12,35.541133,7.1567109)"/><circle style="fill:#2e3436;stroke:#2e3436;stroke-width:.58399999" id="circle4992" cx="170.978" cy="78.395" r="14.263" d="m 185.241,78.394997 c 0,7.877237 -6.38577,14.262999 -14.263,14.262999 -7.87724,0 -14.263,-6.385762 -14.263,-14.262999 0,-7.877237 6.38576,-14.263 14.263,-14.263 7.87723,0 14.263,6.385763 14.263,14.263 z" transform="matrix(-0.10628078,-0.0048,0.00956527,0.12,35.782191,7.1599279)"/><circle style="fill:#2e3436;stroke:#2e3436;stroke-width:.58399999" id="circle4994" cx="170.978" cy="78.395" r="14.263" d="m 185.241,78.394997 c 0,7.877237 -6.38577,14.262999 -14.263,14.262999 -7.87724,0 -14.263,-6.385762 -14.263,-14.262999 0,-7.877237 6.38576,-14.263 14.263,-14.263 7.87723,0 14.263,6.385763 14.263,14.263 z" transform="matrix(-0.10628078,-0.0048,0.00956527,0.12,35.766566,7.0661779)"/><circle id="circle4964" cx="170.978" cy="78.395" r="14.263" d="m 185.241,78.394997 c 0,7.877237 -6.38577,14.262999 -14.263,14.262999 -7.87724,0 -14.263,-6.385762 -14.263,-14.262999 0,-7.877237 6.38576,-14.263 14.263,-14.263 7.87723,0 14.263,6.385763 14.263,14.263 z" transform="matrix(-0.10628078,-0.0048,0.00956527,0.12,29.592009,5.4775587)" style="fill:#2e3436;stroke:#2e3436;stroke-width:.58399999"/><circle id="circle4980" cx="170.978" cy="78.395" r="14.263" d="m 185.241,78.394997 c 0,7.877237 -6.38577,14.262999 -14.263,14.262999 -7.87724,0 -14.263,-6.385762 -14.263,-14.262999 0,-7.877237 6.38576,-14.263 14.263,-14.263 7.87723,0 14.263,6.385763 14.263,14.263 z" transform="matrix(-0.10628078,-0.0048,0.00956527,0.12,29.490446,5.4424017)" style="fill:#2e3436;stroke:#2e3436;stroke-width:.58399999"/><circle id="circle4966" cx="170.978" cy="78.395" r="14.263" d="m 185.241,78.394997 c 0,7.877237 -6.38577,14.262999 -14.263,14.262999 -7.87724,0 -14.263,-6.385762 -14.263,-14.262999 0,-7.877237 6.38576,-14.263 14.263,-14.263 7.87723,0 14.263,6.385763 14.263,14.263 z" transform="matrix(-0.10628078,-0.0048,0.00956527,0.12,29.748259,5.4228697)" style="fill:#2e3436;stroke:#2e3436;stroke-width:.58399999"/><circle id="circle4968" cx="170.978" cy="78.395" r="14.263" d="m 185.241,78.394997 c 0,7.877237 -6.38577,14.262999 -14.263,14.262999 -7.87724,0 -14.263,-6.385762 -14.263,-14.262999 0,-7.877237 6.38576,-14.263 14.263,-14.263 7.87723,0 14.263,6.385763 14.263,14.263 z" transform="matrix(-0.10628078,-0.0048,0.00956527,0.12,29.989317,5.4260867)" style="fill:#2e3436;stroke:#2e3436;stroke-width:.58399999"/><circle id="circle4970" cx="170.978" cy="78.395" r="14.263" d="m 185.241,78.394997 c 0,7.877237 -6.38577,14.262999 -14.263,14.262999 -7.87724,0 -14.263,-6.385762 -14.263,-14.262999 0,-7.877237 6.38576,-14.263 14.263,-14.263 7.87723,0 14.263,6.385763 14.263,14.263 z" transform="matrix(-0.10628078,-0.0048,0.00956527,0.12,29.973692,5.3323367)" style="fill:#2e3436;stroke:#2e3436;stroke-width:.58399999"/><circle style="fill:#2e3436;stroke:#2e3436;stroke-width:.58399999" id="circle107-8-4-4-3-0" cx="170.978" cy="78.395" r="14.263" d="m 185.241,78.394997 c 0,7.877237 -6.38577,14.262999 -14.263,14.262999 -7.87724,0 -14.263,-6.385762 -14.263,-14.262999 0,-7.877237 6.38576,-14.263 14.263,-14.263 7.87723,0 14.263,6.385763 14.263,14.263 z" transform="matrix(-0.10628078,-0.0048,0.00956527,0.12,26.277446,4.4168985)"/><circle style="fill:#2e3436;stroke:#2e3436;stroke-width:.58399999" id="circle107-8-4-4-3-4-8-1" cx="170.978" cy="78.395" r="14.263" d="m 185.241,78.394997 c 0,7.877237 -6.38577,14.262999 -14.263,14.262999 -7.87724,0 -14.263,-6.385762 -14.263,-14.262999 0,-7.877237 6.38576,-14.263 14.263,-14.263 7.87723,0 14.263,6.385763 14.263,14.263 z" transform="matrix(-0.10628078,-0.0048,0.00956527,0.12,26.433696,4.3622095)"/><circle style="fill:#2e3436;stroke:#2e3436;stroke-width:.58399999" id="circle107-8-4-4-3-4-8-9-5" cx="170.978" cy="78.395" r="14.263" d="m 185.241,78.394997 c 0,7.877237 -6.38577,14.262999 -14.263,14.262999 -7.87724,0 -14.263,-6.385762 -14.263,-14.262999 0,-7.877237 6.38576,-14.263 14.263,-14.263 7.87723,0 14.263,6.385763 14.263,14.263 z" transform="matrix(-0.10628078,-0.0048,0.00956527,0.12,26.674754,4.3654265)"/><circle style="fill:#2e3436;stroke:#2e3436;stroke-width:.58399999" id="circle107-8-4-4-3-4-8-9-7-3" cx="170.978" cy="78.395" r="14.263" d="m 185.241,78.394997 c 0,7.877237 -6.38577,14.262999 -14.263,14.262999 -7.87724,0 -14.263,-6.385762 -14.263,-14.262999 0,-7.877237 6.38576,-14.263 14.263,-14.263 7.87723,0 14.263,6.385763 14.263,14.263 z" transform="matrix(-0.10628078,-0.0048,0.00956527,0.12,26.659129,4.2716765)"/><path style="fill:#2e3436" id="path2996" d="m 20.881431,8.096068 c 0.111917,0.0309 0.260217,0.11805 0.260217,0.28185 v 7.2468 c 0,0.26565 -0.234512,0.36375 -0.530716,0.282 L 6.974458,12.141568 c -0.111917,-0.0309 -0.260217,-0.1281 -0.260217,-0.28185 v -7.2468 c 0,-0.2394 0.234314,-0.36375 0.530716,-0.28185 l 13.636474,3.765 0,0 z"/><polygon transform="matrix(0.19773322,0,0,0.15,3.2604349,3.426568)" style="fill:#555753" id="polygon2998" points="88.139 32.858 88.139 81.17 19.174 56.07 19.174 7.758 19.174 7.758"/><polygon transform="matrix(0.20033345,0,0,0.15,3.2105781,3.426568)" style="fill:#babdb6" id="polygon3000" points="86.24 80.48 19.174 56.07 19.174 9.589 19.174 9.589 86.24 34"/><path style="fill:#888a85" id="path3002" d="m 20.02241,8.6315354 c 0.116284,0.03233 0.270371,0.1236705 0.270371,0.2950515 V 15.478928 L 7.051772,11.797533 V 5.025315 l 12.970638,3.6062204 0,0 z"/><path style="fill:#e9b96e" id="path3018" d="m 17.973845,7.9567336 c 0.407543,1.3271755 0.321734,2.8181384 -0.357632,4.2699844 -0.374141,0.799082 -0.895327,1.51739 -1.523823,2.137306 L 7.051772,11.804781 V 4.8650677 l 10.922073,3.0916659 0,0 z"/><path style="fill:#58595b;fill-rule:evenodd" id="path3024" d="m 7.174798,6.7350488 7.007964,2.0604 c 0.232671,0.0684 0.105658,0.35025 -0.127198,0.282 l -7.007778,-2.0604 c -0.23267,-0.0684 -0.105658,-0.3504 0.127012,-0.282 l 0,0 z m 0,1.0389 7.007964,2.0604 c 0.232671,0.0684 0.105658,0.3502502 -0.127198,0.2818502 L 7.047786,8.0557988 c -0.23267,-0.06825 -0.105658,-0.35025 0.127012,-0.28185 l 0,0 z m 0,1.0389 7.007964,2.0604002 c 0.232671,0.0684 0.105658,0.35025 -0.127198,0.28185 L 7.047786,9.0946988 c -0.23267,-0.0684 -0.105658,-0.35025 0.127012,-0.28185 l 0,0 z" clip-rule="evenodd"/><path style="fill:#2e3436" id="path2996-6" d="m 20.881431,8.096068 c -0.06271,0.0309 -0.145794,0.11805 -0.145794,0.28185 v 7.2468 c 0,0.26565 0.131392,0.36375 0.29735,0.282 l 7.640272,-3.76515 c 0.06271,-0.0309 0.145795,-0.1281 0.145795,-0.28185 V 4.6129181 c 0,-0.2394 -0.131282,-0.36375 -0.297351,-0.28185 l -7.640272,3.7649999 0,0 z"/><polygon transform="matrix(-0.11078638,0,0,0.15,30.75416,3.4265681)" style="fill:#555753" id="polygon2998-0" points="88.139 81.17 19.174 56.07 19.174 7.758 19.174 7.758 88.139 32.858"/><polygon transform="matrix(-0.11078638,0,0,0.15,30.75416,3.4265681)" style="fill:#babdb6" id="polygon3000-1" points="86.24 80.48 19.174 56.07 19.174 9.589 19.174 9.589 86.24 34"/><path style="fill:#888a85" id="path3002-9" d="m 21.529972,8.6357762 c -0.06366,0.032092 -0.147999,0.122759 -0.147999,0.2928765 l 0,6.5040343 7.247969,-3.595619 0,-6.7346839 z"/><path style="fill:#2e3436" id="path2996-8" d="m 28.573149,4.2749007 c 0,0 0.205038,0.2456923 0.05679,0.3153674 l -7.41098,3.4831499 c -0.24042,0.1129969 -0.234512,0.36375 -0.530716,0.282 L 7.051772,4.590268 C 7.217303,4.1586099 6.776364,4.3751753 6.914865,4.308418 L 13.63527,1.0691987 c 0.215656,-0.10394588 0.388451,-0.14795722 0.684853,-0.066057 z"/><path style="fill:#555753" id="path2996-8-9" d="m 28.251035,4.3972797 c 0,0 0.186086,0.086265 0.04138,0.1558345 l -7.241429,3.4812987 c -0.299531,0.143999 -0.31158,0.1549572 -0.592371,0.00553 L 7.454105,4.491459 C 7.141809,4.3868285 7.145275,4.3931238 7.332612,4.3036371 l 6.550853,-3.1292004 c 0.211565,-0.1010598 0.203486,-0.1001354 0.499888,-0.027642 z"/><path style="fill:#babdb6" id="path2996-8-9-1" d="m 28.251035,4.3972797 c 0,0 0.144896,-0.069174 0,0 l -7.468731,3.5655943 0,0 -13.434282,-3.6438231 0,0 6.634569,-3.2339115 c -0.0036,0.00174 -0.296402,-0.072493 0,0 z"/><path style="fill:#888a85" id="path3002-9-3" d="m 20.498103,7.6922839 c 0.261043,0.1161722 0.379563,0.049271 0.510737,-0.01335 L 28.006116,4.3385158 13.982591,1.0851394 7.602858,4.1771505 z"/><path style="fill:#2e3436" id="path2996-6-2-4" d="m 22.220799,8.6008379 c -0.06271,0.0309 -0.145794,0.11805 -0.145794,0.28185 l 0,7.2468001 c 0,0.26565 0.131392,0.36375 0.29735,0.282 l 7.640271,-3.76515 c 0.06271,-0.0309 0.145795,-0.1281 0.145795,-0.28185 l 0,-7.2468005 c 0,-0.2394 -0.131282,-0.36375 -0.297351,-0.28185 l -7.640271,3.7650004 z"/><circle style="fill:#2e3436;stroke:#2e3436;stroke-width:.58399999" id="circle107-8-4-4-3-4-1" cx="170.978" cy="78.395" r="14.263" d="m 185.241,78.394997 c 0,7.877237 -6.38577,14.262999 -14.263,14.262999 -7.87724,0 -14.263,-6.385762 -14.263,-14.262999 0,-7.877237 6.38576,-14.263 14.263,-14.263 7.87723,0 14.263,6.385763 14.263,14.263 z" transform="matrix(-0.10628078,-0.0048,0.00956527,0.12,26.175883,4.3817415)"/><circle style="fill:#2e3436;stroke:#2e3436;stroke-width:.58399999" id="circle107-8-4-4-8-2" cx="170.978" cy="78.395" r="14.263" d="m 185.241,78.394997 c 0,7.877237 -6.38577,14.262999 -14.263,14.262999 -7.87724,0 -14.263,-6.385762 -14.263,-14.262999 0,-7.877237 6.38576,-14.263 14.263,-14.263 7.87723,0 14.263,6.385763 14.263,14.263 z" transform="matrix(-0.10628078,-0.0048,0.00956527,0.12,26.185893,4.4280645)"/><circle style="fill:#2e3436;stroke:#2e3436;stroke-width:.58399999" id="circle107-8-4-4-5" cx="170.978" cy="78.395" r="14.263" d="m 185.241,78.394997 c 0,7.877237 -6.38577,14.262999 -14.263,14.262999 -7.87724,0 -14.263,-6.385762 -14.263,-14.262999 0,-7.877237 6.38576,-14.263 14.263,-14.263 7.87723,0 14.263,6.385763 14.263,14.263 z" transform="matrix(-0.10628078,-0.0048,0.00956527,0.12,26.185893,4.4280645)"/><circle style="fill:#2e3436;stroke:#2e3436;stroke-width:.58399999" id="circle107-8-4-2" cx="170.978" cy="78.395" r="14.263" d="m 185.241,78.394997 c 0,7.877237 -6.38577,14.262999 -14.263,14.262999 -7.87724,0 -14.263,-6.385762 -14.263,-14.262999 0,-7.877237 6.38576,-14.263 14.263,-14.263 7.87723,0 14.263,6.385763 14.263,14.263 z" transform="matrix(-0.10628078,-0.0048,0.00956527,0.12,26.185893,4.4280645)"/><circle style="fill:#2e3436;stroke:#2e3436;stroke-width:.58399999" id="circle107-8-3" cx="170.978" cy="78.395" r="14.263" d="m 185.241,78.394997 c 0,7.877237 -6.38577,14.262999 -14.263,14.262999 -7.87724,0 -14.263,-6.385762 -14.263,-14.262999 0,-7.877237 6.38576,-14.263 14.263,-14.263 7.87723,0 14.263,6.385763 14.263,14.263 z" transform="matrix(-0.10628078,-0.0048,0.00956527,0.12,26.175883,4.3817415)"/><circle style="fill:#555753;fill-opacity:1;stroke:#2e3436;stroke-width:.58278751;stroke-miterlimit:4;stroke-dasharray:none" id="circle107-3-2-1" cx="170.978" cy="78.395" r="14.263" d="m 185.241,78.394997 c 0,7.877237 -6.38577,14.262999 -14.263,14.262999 -7.87724,0 -14.263,-6.385762 -14.263,-14.262999 0,-7.877237 6.38576,-14.263 14.263,-14.263 7.87723,0 14.263,6.385763 14.263,14.263 z" transform="matrix(-0.11164127,-0.0048,0.01004771,0.12,26.915621,4.4170605)"/><circle style="fill:#d3d7cf;stroke:#babdb6;stroke-width:.88346666" id="circle109-3-5-4" cx="170.977" cy="78.395" r="8.008" d="m 178.98501,78.394997 c 0,4.422696 -3.58531,8.008 -8.008,8.008 -4.4227,0 -8.00801,-3.585304 -8.00801,-8.008 0,-4.422697 3.58531,-8.008001 8.00801,-8.008001 4.42269,0 8.008,3.585304 8.008,8.008001 z" transform="matrix(-0.11164127,-0.0048,0.01004771,0.12,26.915621,4.4170605)"/><circle id="circle4972" cx="170.978" cy="78.395" r="14.263" d="m 185.241,78.394997 c 0,7.877237 -6.38577,14.262999 -14.263,14.262999 -7.87724,0 -14.263,-6.385762 -14.263,-14.262999 0,-7.877237 6.38576,-14.263 14.263,-14.263 7.87723,0 14.263,6.385763 14.263,14.263 z" transform="matrix(-0.10628078,-0.0048,0.00956527,0.12,29.490446,5.4424017)" style="fill:#2e3436;stroke:#2e3436;stroke-width:.58399999"/><circle id="circle4974" cx="170.978" cy="78.395" r="14.263" d="m 185.241,78.394997 c 0,7.877237 -6.38577,14.262999 -14.263,14.262999 -7.87724,0 -14.263,-6.385762 -14.263,-14.262999 0,-7.877237 6.38576,-14.263 14.263,-14.263 7.87723,0 14.263,6.385763 14.263,14.263 z" transform="matrix(-0.10628078,-0.0048,0.00956527,0.12,29.500456,5.4887247)" style="fill:#2e3436;stroke:#2e3436;stroke-width:.58399999"/><circle id="circle4976" cx="170.978" cy="78.395" r="14.263" d="m 185.241,78.394997 c 0,7.877237 -6.38577,14.262999 -14.263,14.262999 -7.87724,0 -14.263,-6.385762 -14.263,-14.262999 0,-7.877237 6.38576,-14.263 14.263,-14.263 7.87723,0 14.263,6.385763 14.263,14.263 z" transform="matrix(-0.10628078,-0.0048,0.00956527,0.12,29.500456,5.4887247)" style="fill:#2e3436;stroke:#2e3436;stroke-width:.58399999"/><circle id="circle4978" cx="170.978" cy="78.395" r="14.263" d="m 185.241,78.394997 c 0,7.877237 -6.38577,14.262999 -14.263,14.262999 -7.87724,0 -14.263,-6.385762 -14.263,-14.262999 0,-7.877237 6.38576,-14.263 14.263,-14.263 7.87723,0 14.263,6.385763 14.263,14.263 z" transform="matrix(-0.10628078,-0.0048,0.00956527,0.12,29.500456,5.4887247)" style="fill:#2e3436;stroke:#2e3436;stroke-width:.58399999"/><circle id="circle4982" cx="170.978" cy="78.395" r="14.263" d="m 185.241,78.394997 c 0,7.877237 -6.38577,14.262999 -14.263,14.262999 -7.87724,0 -14.263,-6.385762 -14.263,-14.262999 0,-7.877237 6.38576,-14.263 14.263,-14.263 7.87723,0 14.263,6.385763 14.263,14.263 z" transform="matrix(-0.11164127,-0.0048,0.01004771,0.12,30.230184,5.4777207)" style="fill:#555753;fill-opacity:1;stroke:#2e3436;stroke-width:.58278751;stroke-miterlimit:4;stroke-dasharray:none"/><circle id="circle4984" cx="170.977" cy="78.395" r="8.008" d="m 178.98501,78.394997 c 0,4.422696 -3.58531,8.008 -8.008,8.008 -4.4227,0 -8.00801,-3.585304 -8.00801,-8.008 0,-4.422697 3.58531,-8.008001 8.00801,-8.008001 4.42269,0 8.008,3.585304 8.008,8.008001 z" transform="matrix(-0.11164127,-0.0048,0.01004771,0.12,30.230184,5.4777207)" style="fill:#d3d7cf;stroke:#babdb6;stroke-width:.88346666"/><circle style="fill:#2e3436;stroke:#2e3436;stroke-width:.58399999" id="circle4986" cx="170.978" cy="78.395" r="14.263" d="m 185.241,78.394997 c 0,7.877237 -6.38577,14.262999 -14.263,14.262999 -7.87724,0 -14.263,-6.385762 -14.263,-14.262999 0,-7.877237 6.38576,-14.263 14.263,-14.263 7.87723,0 14.263,6.385763 14.263,14.263 z" transform="matrix(-0.10628078,-0.0048,0.00956527,0.12,35.384883,7.2113999)"/><circle style="fill:#2e3436;stroke:#2e3436;stroke-width:.58399999" id="circle4988" cx="170.978" cy="78.395" r="14.263" d="m 185.241,78.394997 c 0,7.877237 -6.38577,14.262999 -14.263,14.262999 -7.87724,0 -14.263,-6.385762 -14.263,-14.262999 0,-7.877237 6.38576,-14.263 14.263,-14.263 7.87723,0 14.263,6.385763 14.263,14.263 z" transform="matrix(-0.10628078,-0.0048,0.00956527,0.12,35.28332,7.1762429)"/><circle style="fill:#2e3436;stroke:#2e3436;stroke-width:.58399999" id="circle4996" cx="170.978" cy="78.395" r="14.263" d="m 185.241,78.394997 c 0,7.877237 -6.38577,14.262999 -14.263,14.262999 -7.87724,0 -14.263,-6.385762 -14.263,-14.262999 0,-7.877237 6.38576,-14.263 14.263,-14.263 7.87723,0 14.263,6.385763 14.263,14.263 z" transform="matrix(-0.10628078,-0.0048,0.00956527,0.12,35.28332,7.1762429)"/><circle style="fill:#2e3436;stroke:#2e3436;stroke-width:.58399999" id="circle4998" cx="170.978" cy="78.395" r="14.263" d="m 185.241,78.394997 c 0,7.877237 -6.38577,14.262999 -14.263,14.262999 -7.87724,0 -14.263,-6.385762 -14.263,-14.262999 0,-7.877237 6.38576,-14.263 14.263,-14.263 7.87723,0 14.263,6.385763 14.263,14.263 z" transform="matrix(-0.10628078,-0.0048,0.00956527,0.12,35.29333,7.2225659)"/><circle style="fill:#2e3436;stroke:#2e3436;stroke-width:.58399999" id="circle5000" cx="170.978" cy="78.395" r="14.263" d="m 185.241,78.394997 c 0,7.877237 -6.38577,14.262999 -14.263,14.262999 -7.87724,0 -14.263,-6.385762 -14.263,-14.262999 0,-7.877237 6.38576,-14.263 14.263,-14.263 7.87723,0 14.263,6.385763 14.263,14.263 z" transform="matrix(-0.10628078,-0.0048,0.00956527,0.12,35.29333,7.2225659)"/><circle style="fill:#2e3436;stroke:#2e3436;stroke-width:.58399999" id="circle5002" cx="170.978" cy="78.395" r="14.263" d="m 185.241,78.394997 c 0,7.877237 -6.38577,14.262999 -14.263,14.262999 -7.87724,0 -14.263,-6.385762 -14.263,-14.262999 0,-7.877237 6.38576,-14.263 14.263,-14.263 7.87723,0 14.263,6.385763 14.263,14.263 z" transform="matrix(-0.10628078,-0.0048,0.00956527,0.12,35.29333,7.2225659)"/><circle style="fill:#555753;fill-opacity:1;stroke:#2e3436;stroke-width:.58278751;stroke-miterlimit:4;stroke-dasharray:none" id="circle5004" cx="170.978" cy="78.395" r="14.263" d="m 185.241,78.394997 c 0,7.877237 -6.38577,14.262999 -14.263,14.262999 -7.87724,0 -14.263,-6.385762 -14.263,-14.262999 0,-7.877237 6.38576,-14.263 14.263,-14.263 7.87723,0 14.263,6.385763 14.263,14.263 z" transform="matrix(-0.11164127,-0.0048,0.01004771,0.12,36.023058,7.2115619)"/><circle style="fill:#d3d7cf;stroke:#babdb6;stroke-width:.88346666" id="circle5006" cx="170.977" cy="78.395" r="8.008" d="m 178.98501,78.394997 c 0,4.422696 -3.58531,8.008 -8.008,8.008 -4.4227,0 -8.00801,-3.585304 -8.00801,-8.008 0,-4.422697 3.58531,-8.008001 8.00801,-8.008001 4.42269,0 8.008,3.585304 8.008,8.008001 z" transform="matrix(-0.11164127,-0.0048,0.01004771,0.12,36.023058,7.2115619)"/><path style="fill:#2e3436" id="path2996-6-2-4-1" d="m 22.167402,8.8328573 c -0.06798,0.030217 -0.159149,0.1154448 -0.158046,0.2756224 l 0.0479,6.9609333 c 0.0031,0.433673 0.34629,0.51542 0.34629,0.51542 l 3.745398,1.049812 c 0,0 0.260051,-0.114833 0.263495,-0.265165 l 0.157423,-6.871624 c 0,0 -0.04804,-0.247606 -0.228064,-0.167515 z"/><path style="fill:#2e3436" id="path2996-6-2" d="m 26.030022,9.823994 c -0.06271,0.0309 -0.145794,0.11805 -0.145794,0.28185 l 0,7.246801 c 0,0 0,0 0.264716,0.282 l 7.672905,-3.76515 c 0.06271,-0.0309 0.145795,-0.1281 0.145795,-0.28185 l 0,-7.2468011 c 0,-0.2394 -0.131282,-0.36375 -0.297351,-0.28185 L 26.030022,9.823994 z"/><polygon transform="matrix(-0.11078638,0,0,0.15,35.90275,5.1544939)" style="fill:#555753" id="polygon2998-0-0" points="19.174 7.758 19.174 7.758 88.139 32.858 88.139 81.17 19.174 56.07"/><polygon transform="matrix(-0.11078638,0,0,0.15,35.90275,5.1544939)" style="fill:#555753" id="polygon3000-1-3" points="19.174 9.589 19.174 9.589 86.24 34 86.24 80.48 19.174 56.07"/><path style="fill:#555753" id="path2996-6-2-4-1-8" d="M 30.889779,5.0938292 C 30.48229,4.9679799 29.9887,4.7765422 29.9887,4.7765422 l -7.065044,3.4642272 c -0.510242,0.2501885 -0.285811,0.319852 -0.285811,0.319852 l 3.392177,1.2633726 0.508599,-0.2603963 7.267273,-3.5258039 c 0,0 -0.518945,-0.2144821 -1.193242,-0.3756504 z"/><path style="fill:#555753" id="path2996-6-2-4-1-6" d="m 22.394834,8.8335027 c -0.05909,0.030106 -0.183302,0.048725 -0.181565,0.2082929 l 0.07479,6.8684294 c 0.0047,0.432023 0.300988,0.513479 0.300988,0.513479 l 3.178072,0.891178 c 0,0 0.14005,-0.125419 0.140636,-0.275214 l 0.02634,-6.735262 c 0,0 0.01348,-0.257722 -0.231374,-0.288418 z"/><path id="polygon3000-1-3-3" d="m 26.569503,10.276591 0,2.284293 0.0054,0.925667 c 0.0089,0.73867 6.978009,-2.570837 6.982679,-3.203494 l -0.02748,-3.4315145" style="fill:#888a85"/><path id="polygon3000-1-3-3-4" d="m 25.644669,10.37968 0.0221,3.174661 -0.731404,-0.140599 C 23.779981,13.191641 22.500388,11.147934 22.490244,10.715557 L 22.4575,9.3198989" style="fill:#888a85"/><path id="polygon3000-1-3-3-9" d="m 26.219704,15.637364 0,0.625845 0.0017,0.253612 c 0.0029,0.202379 2.202737,-0.723882 2.204232,-0.897216 l -0.0088,-0.940159" style="fill:#d3d7cf"/><path id="polygon3000-1-3-3-9-6" d="m 31.555641,13.169707 0,0.625845 0.0017,0.253612 c 0.0029,0.202379 2.144258,-0.720369 2.145753,-0.893703 l -0.0088,-0.940159" style="fill:#d3d7cf"/><circle style="fill:#2e3436;stroke:#2e3436;stroke-width:.58399999" id="circle4988-3" cx="170.978" cy="78.395" r="14.263" d="m 185.241,78.394997 c 0,7.877237 -6.38577,14.262999 -14.263,14.262999 -7.87724,0 -14.263,-6.385762 -14.263,-14.262999 0,-7.877237 6.38576,-14.263 14.263,-14.263 7.87723,0 14.263,6.385763 14.263,14.263 z" transform="matrix(-0.10628078,-0.0048,0.00956527,0.12,41.415229,8.6792464)"/><circle style="fill:#2e3436;stroke:#2e3436;stroke-width:.58399999" id="circle4996-2" cx="170.978" cy="78.395" r="14.263" d="m 185.241,78.394997 c 0,7.877237 -6.38577,14.262999 -14.263,14.262999 -7.87724,0 -14.263,-6.385762 -14.263,-14.262999 0,-7.877237 6.38576,-14.263 14.263,-14.263 7.87723,0 14.263,6.385763 14.263,14.263 z" transform="matrix(-0.10628078,-0.0048,0.00956527,0.12,41.415229,8.6792464)"/><circle style="fill:#2e3436;stroke:#2e3436;stroke-width:.58399999" id="circle4998-7" cx="170.978" cy="78.395" r="14.263" d="m 185.241,78.394997 c 0,7.877237 -6.38577,14.262999 -14.263,14.262999 -7.87724,0 -14.263,-6.385762 -14.263,-14.262999 0,-7.877237 6.38576,-14.263 14.263,-14.263 7.87723,0 14.263,6.385763 14.263,14.263 z" transform="matrix(-0.10628078,-0.0048,0.00956527,0.12,41.425239,8.7255694)"/><circle style="fill:#2e3436;stroke:#2e3436;stroke-width:.58399999" id="circle5000-5" cx="170.978" cy="78.395" r="14.263" d="m 185.241,78.394997 c 0,7.877237 -6.38577,14.262999 -14.263,14.262999 -7.87724,0 -14.263,-6.385762 -14.263,-14.262999 0,-7.877237 6.38576,-14.263 14.263,-14.263 7.87723,0 14.263,6.385763 14.263,14.263 z" transform="matrix(-0.10628078,-0.0048,0.00956527,0.12,41.425239,8.7255694)"/><circle style="fill:#2e3436;stroke:#2e3436;stroke-width:.58399999" id="circle5002-6" cx="170.978" cy="78.395" r="14.263" d="m 185.241,78.394997 c 0,7.877237 -6.38577,14.262999 -14.263,14.262999 -7.87724,0 -14.263,-6.385762 -14.263,-14.262999 0,-7.877237 6.38576,-14.263 14.263,-14.263 7.87723,0 14.263,6.385763 14.263,14.263 z" transform="matrix(-0.10628078,-0.0048,0.00956527,0.12,41.425239,8.7255694)"/><circle style="fill:#555753;fill-opacity:1;stroke:#2e3436;stroke-width:.58278751;stroke-miterlimit:4;stroke-dasharray:none" id="circle5004-2" cx="170.978" cy="78.395" r="14.263" d="m 185.241,78.394997 c 0,7.877237 -6.38577,14.262999 -14.263,14.262999 -7.87724,0 -14.263,-6.385762 -14.263,-14.262999 0,-7.877237 6.38576,-14.263 14.263,-14.263 7.87723,0 14.263,6.385763 14.263,14.263 z" transform="matrix(-0.11164127,-0.0048,0.01004771,0.12,42.154967,8.7145654)"/><circle style="fill:#d3d7cf;stroke:#babdb6;stroke-width:.88346666" id="circle5006-0" cx="170.977" cy="78.395" r="8.008" d="m 178.98501,78.394997 c 0,4.422696 -3.58531,8.008 -8.008,8.008 -4.4227,0 -8.00801,-3.585304 -8.00801,-8.008 0,-4.422697 3.58531,-8.008001 8.00801,-8.008001 4.42269,0 8.008,3.585304 8.008,8.008001 z" transform="matrix(-0.11164127,-0.0048,0.01004771,0.12,42.154967,8.7145654)"/></g></svg>