<svg xmlns="http://www.w3.org/2000/svg" xmlns:svg="http://www.w3.org/2000/svg" xmlns:xlink="http://www.w3.org/1999/xlink" id="svg2" width="64" height="64" version="1.1"><metadata id="metadata7"/><defs id="defs5"><radialGradient id="radialGradient3939" cx="31.791" cy="19.212" r="27.177" fx="31.791" fy="19.212" gradientTransform="matrix(1.4425872,-0.01027933,0.00663731,0.93146591,-12.854988,-0.42351777)" gradientUnits="userSpaceOnUse" xlink:href="#linearGradient3933"/><linearGradient id="linearGradient3933"><stop style="stop-color:#719ecf;stop-opacity:1" id="stop3935" offset="0"/><stop id="stop3941" offset=".391" style="stop-color:#8fb2d9;stop-opacity:1"/><stop style="stop-color:#e9f0f7;stop-opacity:1" id="stop3937" offset="1"/></linearGradient><radialGradient id="radialGradient3959" cx="31.791" cy="19.212" r="27.177" fx="31.791" fy="19.212" gradientTransform="matrix(0.91403264,-0.00651305,0.00420544,0.59018286,12.634527,20.400912)" gradientUnits="userSpaceOnUse" xlink:href="#linearGradient3933"/></defs><path style="color:#000;fill:url(#radialGradient3959);fill-opacity:1;stroke:#000;stroke-width:.31680325;stroke-linecap:round;stroke-linejoin:round;stroke-miterlimit:4;stroke-opacity:1;stroke-dasharray:none;stroke-dashoffset:0;marker:none;visibility:visible;display:inline;overflow:visible;enable-background:accumulate" id="path3020" d="m 41.174937,21.117839 c -1.94886,0.285155 -4.068754,0.980317 -6.41748,3.363489 -3.780972,-0.978012 -6.903895,-0.356287 -6.225455,3.574798 -6.205857,0.873884 -6.570039,8.256089 3.837557,9.879159 l -0.0597,-0.08138 c 1.160263,2.670561 5.45953,3.872943 9.133714,0.542498 1.360878,0.925367 4.491513,2.06292 8.178556,0.352625 3.361353,0.910616 5.485496,0.243878 5.582771,-2.776793 3.740894,-1.809588 3.168799,-4.500854 1.236324,-6.141613 2.540116,-3.282086 0.01471,-6.119176 -6.270756,-5.180858 -1.316471,-2.306303 -4.520711,-4.186679 -8.995532,-3.53193 z"/><g id="g3285" transform="translate(36.0109,-1.3079019)"><g id="g3141" transform="matrix(0.6317498,0,0,0.6317498,3.844891,3.897714)"><path id="path3143" d="m 0.4609525,20.415279 -0.068454,-6.503124 12.8693425,-9.1043762 18.345661,6.7084862 0,6.708489 -12.800889,8.967468 z" style="fill:#d3d7cf;stroke:none"/><polygon id="polygon3145" points="63.214 54.119 63.214 67.976 2.014 45.704 2.014 45.704 2.014 31.849" style="fill:#eeeeec" transform="matrix(0.3,0,0,0.3,-0.0135095,6.5367898)"/><polygon id="polygon3147" points="63.214 67.976 2.014 45.704 2.014 45.704 2.014 31.849 63.214 54.119" style="fill:#eeeeec" transform="matrix(0.3,0,0,0.3,-0.0135095,4.4831698)"/><polygon id="polygon3149" points="105.846 38.12 63.214 67.976 63.214 54.119 63.214 54.119 105.846 24.265" style="fill:#d3d7cf" transform="matrix(0.3,0,0,0.3,-0.2546225,6.6475798)"/><polygon id="polygon3151" points="105.846 38.12 63.214 67.976 63.214 54.119 63.214 54.119 105.846 24.265" style="fill:#d3d7cf" transform="matrix(0.3,0,0,0.3,-0.2546225,4.3886008)"/><polygon id="polygon3153" points="63.214 67.976 62.711 67.792 62.711 67.792 62.711 54.119 63.718 54.119 63.718 67.623" style="fill:#fff" transform="matrix(0.3,0,0,0.46796091,-0.2261915,-4.7983232)"/><polygon id="polygon3155" points="105.332 24.078 105.846 24.265 105.846 24.947 63.288 54.682 2.014 32.391 2.014 31.849 2.512 31.5 2.512 31.5 63.141 53.443" transform="matrix(0.29670362,0,0,0.3,-0.02756109,4.4454)" style="fill:#fff"/><path id="path3157" d="M 0.954,14.775729 1.069845,20.055453 2.923359,20.71542 2.865435,15.490692 z" style="fill:#888a85;stroke:#babdb6;stroke-width:.25;stroke-linecap:butt;stroke-linejoin:miter;stroke-miterlimit:4;stroke-opacity:1;stroke-dasharray:none"/><path id="path3159" d="m 3.454626,15.701913 0.115845,5.279724 1.853514,0.659967 -0.057924,-5.224728 z" style="fill:#888a85;stroke:#babdb6;stroke-width:.25;stroke-linecap:butt;stroke-linejoin:miter;stroke-miterlimit:4;stroke-opacity:1;stroke-dasharray:none"/><path id="path3161" d="m 5.932998,16.64007 0.115845,5.279724 1.853514,0.659967 -0.057924,-5.224728 z" style="fill:#888a85;stroke:#babdb6;stroke-width:.25;stroke-linecap:butt;stroke-linejoin:miter;stroke-miterlimit:4;stroke-opacity:1;stroke-dasharray:none"/><path id="path3163" d="m 8.433624,17.566254 0.115845,5.279724 1.853514,0.659967 -0.05792,-5.224728 z" style="fill:#888a85;stroke:#babdb6;stroke-width:.25;stroke-linecap:butt;stroke-linejoin:miter;stroke-miterlimit:4;stroke-opacity:1;stroke-dasharray:none"/><path id="path3165" d="m 10.930137,18.507125 0.115845,5.279724 1.853514,0.659967 -0.05792,-5.224728 z" style="fill:#888a85;stroke:#babdb6;stroke-width:.25;stroke-linecap:butt;stroke-linejoin:miter;stroke-miterlimit:4;stroke-opacity:1;stroke-dasharray:none"/><path id="path3167" d="m 13.430764,19.433309 0.115845,5.279724 1.853514,0.659967 -0.05792,-5.224728 z" style="fill:#888a85;stroke:#babdb6;stroke-width:.25;stroke-linecap:butt;stroke-linejoin:miter;stroke-miterlimit:4;stroke-opacity:1;stroke-dasharray:none"/><path id="path3169" d="m 16.827854,20.749206 c -0.27426,0.0049 -0.46875,0.182775 -0.46875,0.46875 0,0.3813 0.337275,0.812025 0.759375,0.965625 0.4221,0.1536 0.76875,-0.0312 0.76875,-0.4125 0,-0.3816 -0.34665,-0.812025 -0.76875,-0.965625 -0.105525,-0.03847 -0.199206,-0.05789 -0.290625,-0.05625 z" style="fill:#888a85;fill-rule:evenodd"/><path style="fill:none;stroke:#555753;stroke-width:.5;stroke-linecap:butt;stroke-linejoin:miter;stroke-miterlimit:4;stroke-opacity:1;stroke-dasharray:none" id="path3171" d="m 0.4609525,20.415279 -0.068454,-6.503124 12.8693425,-9.1043762 18.345661,6.7084862 0,6.708489 -12.800889,8.967468 z"/></g><g id="g3173" transform="matrix(0.6317498,0,0,0.6317498,3.844891,-0.8404096)"><path style="fill:#d3d7cf;stroke:none" id="path3175" d="m 0.4609525,20.415279 -0.068454,-6.503124 12.8693425,-9.1043762 18.345661,6.7084862 0,6.708489 -12.800889,8.967468 z"/><polygon transform="matrix(0.3,0,0,0.3,-0.0135095,6.5367898)" style="fill:#eeeeec" id="polygon3177" points="63.214 54.119 63.214 67.976 2.014 45.704 2.014 45.704 2.014 31.849"/><polygon transform="matrix(0.3,0,0,0.3,-0.0135095,4.4831698)" style="fill:#eeeeec" id="polygon3179" points="63.214 67.976 2.014 45.704 2.014 45.704 2.014 31.849 63.214 54.119"/><polygon transform="matrix(0.3,0,0,0.3,-0.2546225,6.6475798)" style="fill:#d3d7cf" id="polygon3181" points="105.846 38.12 63.214 67.976 63.214 54.119 63.214 54.119 105.846 24.265"/><polygon transform="matrix(0.3,0,0,0.3,-0.2546225,4.3886008)" style="fill:#d3d7cf" id="polygon3183" points="105.846 38.12 63.214 67.976 63.214 54.119 63.214 54.119 105.846 24.265"/><polygon transform="matrix(0.3,0,0,0.46796091,-0.2261915,-4.7983232)" style="fill:#fff" id="polygon3185" points="63.718 67.623 63.214 67.976 62.711 67.792 62.711 67.792 62.711 54.119 63.718 54.119"/><polygon style="fill:#fff" id="polygon3187" points="2.014 31.849 2.512 31.5 2.512 31.5 63.141 53.443 105.332 24.078 105.846 24.265 105.846 24.947 63.288 54.682 2.014 32.391" transform="matrix(0.29670362,0,0,0.3,-0.02756109,4.4454)"/><path style="fill:#888a85;stroke:#babdb6;stroke-width:.25;stroke-linecap:butt;stroke-linejoin:miter;stroke-miterlimit:4;stroke-opacity:1;stroke-dasharray:none" id="path3189" d="M 0.954,14.775729 1.069845,20.055453 2.923359,20.71542 2.865435,15.490692 z"/><path style="fill:#888a85;stroke:#babdb6;stroke-width:.25;stroke-linecap:butt;stroke-linejoin:miter;stroke-miterlimit:4;stroke-opacity:1;stroke-dasharray:none" id="path3191" d="m 3.454626,15.701913 0.115845,5.279724 1.853514,0.659967 -0.057924,-5.224728 z"/><path style="fill:#888a85;stroke:#babdb6;stroke-width:.25;stroke-linecap:butt;stroke-linejoin:miter;stroke-miterlimit:4;stroke-opacity:1;stroke-dasharray:none" id="path3193" d="m 5.932998,16.64007 0.115845,5.279724 1.853514,0.659967 -0.057924,-5.224728 z"/><path style="fill:#888a85;stroke:#babdb6;stroke-width:.25;stroke-linecap:butt;stroke-linejoin:miter;stroke-miterlimit:4;stroke-opacity:1;stroke-dasharray:none" id="path3195" d="m 8.433624,17.566254 0.115845,5.279724 1.853514,0.659967 -0.05792,-5.224728 z"/><path style="fill:#888a85;stroke:#babdb6;stroke-width:.25;stroke-linecap:butt;stroke-linejoin:miter;stroke-miterlimit:4;stroke-opacity:1;stroke-dasharray:none" id="path3197" d="m 10.930137,18.507125 0.115845,5.279724 1.853514,0.659967 -0.05792,-5.224728 z"/><path style="fill:#888a85;stroke:#babdb6;stroke-width:.25;stroke-linecap:butt;stroke-linejoin:miter;stroke-miterlimit:4;stroke-opacity:1;stroke-dasharray:none" id="path3199" d="m 13.430764,19.433309 0.115845,5.279724 1.853514,0.659967 -0.05792,-5.224728 z"/><path style="fill:#888a85;fill-rule:evenodd" id="path3201" d="m 16.827854,20.749206 c -0.27426,0.0049 -0.46875,0.182775 -0.46875,0.46875 0,0.3813 0.337275,0.812025 0.759375,0.965625 0.4221,0.1536 0.76875,-0.0312 0.76875,-0.4125 0,-0.3816 -0.34665,-0.812025 -0.76875,-0.965625 -0.105525,-0.03847 -0.199206,-0.05789 -0.290625,-0.05625 z"/><path id="path3203" d="m 0.4609525,20.415279 -0.068454,-6.503124 12.8693425,-9.1043762 18.345661,6.7084862 0,6.708489 -12.800889,8.967468 z" style="fill:none;stroke:#555753;stroke-width:.5;stroke-linecap:butt;stroke-linejoin:miter;stroke-miterlimit:4;stroke-opacity:1;stroke-dasharray:none"/></g></g><g id="g3319" transform="matrix(0.6317498,0,0,0.6317498,38.486982,-9.2180316)"><g id="g3321" transform="translate(-50.142499,26.557778)"><path id="path3323" d="m 0.4609525,20.415279 -0.068454,-6.503124 12.8693425,-9.1043762 18.345661,6.7084862 0,6.708489 -12.800889,8.967468 z" style="fill:#d3d7cf;stroke:none"/><polygon id="polygon3325" points="63.214 67.976 2.014 45.704 2.014 45.704 2.014 31.849 63.214 54.119" style="fill:#eeeeec" transform="matrix(0.3,0,0,0.3,-0.0135095,6.5367898)"/><polygon id="polygon3327" points="2.014 45.704 2.014 45.704 2.014 31.849 63.214 54.119 63.214 67.976" style="fill:#eeeeec" transform="matrix(0.3,0,0,0.3,-0.0135095,4.4831698)"/><polygon id="polygon3329" points="63.214 67.976 63.214 54.119 63.214 54.119 105.846 24.265 105.846 38.12" style="fill:#d3d7cf" transform="matrix(0.3,0,0,0.3,-0.2546225,6.6475798)"/><polygon id="polygon3331" points="63.214 67.976 63.214 54.119 63.214 54.119 105.846 24.265 105.846 38.12" style="fill:#d3d7cf" transform="matrix(0.3,0,0,0.3,-0.2546225,4.3886008)"/><polygon id="polygon3333" points="62.711 67.792 62.711 54.119 63.718 54.119 63.718 67.623 63.214 67.976 62.711 67.792" style="fill:#fff" transform="matrix(0.3,0,0,0.46796091,-0.2261915,-4.7983232)"/><polygon id="polygon3335" points="2.014 31.849 2.512 31.5 2.512 31.5 63.141 53.443 105.332 24.078 105.846 24.265 105.846 24.947 63.288 54.682 2.014 32.391" transform="matrix(0.29670362,0,0,0.3,-0.02756109,4.4454)" style="fill:#fff"/><path id="path3337" d="M 0.954,14.775729 1.069845,20.055453 2.923359,20.71542 2.865435,15.490692 z" style="fill:#888a85;stroke:#babdb6;stroke-width:.25;stroke-linecap:butt;stroke-linejoin:miter;stroke-miterlimit:4;stroke-opacity:1;stroke-dasharray:none"/><path id="path3339" d="m 3.454626,15.701913 0.115845,5.279724 1.853514,0.659967 -0.057924,-5.224728 z" style="fill:#888a85;stroke:#babdb6;stroke-width:.25;stroke-linecap:butt;stroke-linejoin:miter;stroke-miterlimit:4;stroke-opacity:1;stroke-dasharray:none"/><path id="path3341" d="m 5.932998,16.64007 0.115845,5.279724 1.853514,0.659967 -0.057924,-5.224728 z" style="fill:#888a85;stroke:#babdb6;stroke-width:.25;stroke-linecap:butt;stroke-linejoin:miter;stroke-miterlimit:4;stroke-opacity:1;stroke-dasharray:none"/><path id="path3343" d="m 8.433624,17.566254 0.115845,5.279724 1.853514,0.659967 -0.05792,-5.224728 z" style="fill:#888a85;stroke:#babdb6;stroke-width:.25;stroke-linecap:butt;stroke-linejoin:miter;stroke-miterlimit:4;stroke-opacity:1;stroke-dasharray:none"/><path id="path3345" d="m 10.930137,18.507125 0.115845,5.279724 1.853514,0.659967 -0.05792,-5.224728 z" style="fill:#888a85;stroke:#babdb6;stroke-width:.25;stroke-linecap:butt;stroke-linejoin:miter;stroke-miterlimit:4;stroke-opacity:1;stroke-dasharray:none"/><path id="path3347" d="m 13.430764,19.433309 0.115845,5.279724 1.853514,0.659967 -0.05792,-5.224728 z" style="fill:#888a85;stroke:#babdb6;stroke-width:.25;stroke-linecap:butt;stroke-linejoin:miter;stroke-miterlimit:4;stroke-opacity:1;stroke-dasharray:none"/><path id="path3349" d="m 16.827854,20.749206 c -0.27426,0.0049 -0.46875,0.182775 -0.46875,0.46875 0,0.3813 0.337275,0.812025 0.759375,0.965625 0.4221,0.1536 0.76875,-0.0312 0.76875,-0.4125 0,-0.3816 -0.34665,-0.812025 -0.76875,-0.965625 -0.105525,-0.03847 -0.199206,-0.05789 -0.290625,-0.05625 z" style="fill:#888a85;fill-rule:evenodd"/><path style="fill:none;stroke:#555753;stroke-width:.5;stroke-linecap:butt;stroke-linejoin:miter;stroke-miterlimit:4;stroke-opacity:1;stroke-dasharray:none" id="path3351" d="m 0.4609525,20.415279 -0.068454,-6.503124 12.8693425,-9.1043762 18.345661,6.7084862 0,6.708489 -12.800889,8.967468 z"/></g><g id="g3353" transform="translate(-50.142499,19.057778)"><path style="fill:#d3d7cf;stroke:none" id="path3355" d="m 0.4609525,20.415279 -0.068454,-6.503124 12.8693425,-9.1043762 18.345661,6.7084862 0,6.708489 -12.800889,8.967468 z"/><polygon transform="matrix(0.3,0,0,0.3,-0.0135095,6.5367898)" style="fill:#eeeeec" id="polygon3357" points="63.214 67.976 2.014 45.704 2.014 45.704 2.014 31.849 63.214 54.119"/><polygon transform="matrix(0.3,0,0,0.3,-0.0135095,4.4831698)" style="fill:#eeeeec" id="polygon3359" points="2.014 45.704 2.014 45.704 2.014 31.849 63.214 54.119 63.214 67.976"/><polygon transform="matrix(0.3,0,0,0.3,-0.2546225,6.6475798)" style="fill:#d3d7cf" id="polygon3361" points="63.214 67.976 63.214 54.119 63.214 54.119 105.846 24.265 105.846 38.12"/><polygon transform="matrix(0.3,0,0,0.3,-0.2546225,4.3886008)" style="fill:#d3d7cf" id="polygon3363" points="63.214 67.976 63.214 54.119 63.214 54.119 105.846 24.265 105.846 38.12"/><polygon transform="matrix(0.3,0,0,0.46796091,-0.2261915,-4.7983232)" style="fill:#fff" id="polygon3365" points="62.711 67.792 62.711 67.792 62.711 54.119 63.718 54.119 63.718 67.623 63.214 67.976"/><polygon style="fill:#fff" id="polygon3367" points="105.846 24.265 105.846 24.947 63.288 54.682 2.014 32.391 2.014 31.849 2.512 31.5 2.512 31.5 63.141 53.443 105.332 24.078" transform="matrix(0.29670362,0,0,0.3,-0.02756109,4.4454)"/><path style="fill:#888a85;stroke:#babdb6;stroke-width:.25;stroke-linecap:butt;stroke-linejoin:miter;stroke-miterlimit:4;stroke-opacity:1;stroke-dasharray:none" id="path3369" d="M 0.954,14.775729 1.069845,20.055453 2.923359,20.71542 2.865435,15.490692 z"/><path style="fill:#888a85;stroke:#babdb6;stroke-width:.25;stroke-linecap:butt;stroke-linejoin:miter;stroke-miterlimit:4;stroke-opacity:1;stroke-dasharray:none" id="path3371" d="m 3.454626,15.701913 0.115845,5.279724 1.853514,0.659967 -0.057924,-5.224728 z"/><path style="fill:#888a85;stroke:#babdb6;stroke-width:.25;stroke-linecap:butt;stroke-linejoin:miter;stroke-miterlimit:4;stroke-opacity:1;stroke-dasharray:none" id="path3373" d="m 5.932998,16.64007 0.115845,5.279724 1.853514,0.659967 -0.057924,-5.224728 z"/><path style="fill:#888a85;stroke:#babdb6;stroke-width:.25;stroke-linecap:butt;stroke-linejoin:miter;stroke-miterlimit:4;stroke-opacity:1;stroke-dasharray:none" id="path3375" d="m 8.433624,17.566254 0.115845,5.279724 1.853514,0.659967 -0.05792,-5.224728 z"/><path style="fill:#888a85;stroke:#babdb6;stroke-width:.25;stroke-linecap:butt;stroke-linejoin:miter;stroke-miterlimit:4;stroke-opacity:1;stroke-dasharray:none" id="path3377" d="m 10.930137,18.507125 0.115845,5.279724 1.853514,0.659967 -0.05792,-5.224728 z"/><path style="fill:#888a85;stroke:#babdb6;stroke-width:.25;stroke-linecap:butt;stroke-linejoin:miter;stroke-miterlimit:4;stroke-opacity:1;stroke-dasharray:none" id="path3379" d="m 13.430764,19.433309 0.115845,5.279724 1.853514,0.659967 -0.05792,-5.224728 z"/><path style="fill:#888a85;fill-rule:evenodd" id="path3381" d="m 16.827854,20.749206 c -0.27426,0.0049 -0.46875,0.182775 -0.46875,0.46875 0,0.3813 0.337275,0.812025 0.759375,0.965625 0.4221,0.1536 0.76875,-0.0312 0.76875,-0.4125 0,-0.3816 -0.34665,-0.812025 -0.76875,-0.965625 -0.105525,-0.03847 -0.199206,-0.05789 -0.290625,-0.05625 z"/><path id="path3383" d="m 0.4609525,20.415279 -0.068454,-6.503124 12.8693425,-9.1043762 18.345661,6.7084862 0,6.708489 -12.800889,8.967468 z" style="fill:none;stroke:#555753;stroke-width:.5;stroke-linecap:butt;stroke-linejoin:miter;stroke-miterlimit:4;stroke-opacity:1;stroke-dasharray:none"/></g><g id="g3385" transform="translate(-50.142499,11.557778)"><path id="path3387" d="m 0.4609525,20.415279 -0.068454,-6.503124 12.8693425,-9.1043762 18.345661,6.7084862 0,6.708489 -12.800889,8.967468 z" style="fill:#d3d7cf;stroke:none"/><polygon id="polygon3389" points="2.014 45.704 2.014 45.704 2.014 31.849 63.214 54.119 63.214 67.976" style="fill:#eeeeec" transform="matrix(0.3,0,0,0.3,-0.0135095,6.5367898)"/><polygon id="polygon3391" points="2.014 45.704 2.014 31.849 63.214 54.119 63.214 67.976 2.014 45.704" style="fill:#eeeeec" transform="matrix(0.3,0,0,0.3,-0.0135095,4.4831698)"/><polygon id="polygon3393" points="63.214 54.119 63.214 54.119 105.846 24.265 105.846 38.12 63.214 67.976" style="fill:#d3d7cf" transform="matrix(0.3,0,0,0.3,-0.2546225,6.6475798)"/><polygon id="polygon3395" points="63.214 54.119 63.214 54.119 105.846 24.265 105.846 38.12 63.214 67.976" style="fill:#d3d7cf" transform="matrix(0.3,0,0,0.3,-0.2546225,4.3886008)"/><polygon id="polygon3397" points="62.711 67.792 62.711 54.119 63.718 54.119 63.718 67.623 63.214 67.976 62.711 67.792" style="fill:#fff" transform="matrix(0.3,0,0,0.46796091,-0.2261915,-4.7983232)"/><polygon id="polygon3399" points="105.846 24.947 63.288 54.682 2.014 32.391 2.014 31.849 2.512 31.5 2.512 31.5 63.141 53.443 105.332 24.078 105.846 24.265" transform="matrix(0.29670362,0,0,0.3,-0.02756109,4.4454)" style="fill:#fff"/><path id="path3401" d="M 0.954,14.775729 1.069845,20.055453 2.923359,20.71542 2.865435,15.490692 z" style="fill:#888a85;stroke:#babdb6;stroke-width:.25;stroke-linecap:butt;stroke-linejoin:miter;stroke-miterlimit:4;stroke-opacity:1;stroke-dasharray:none"/><path id="path3403" d="m 3.454626,15.701913 0.115845,5.279724 1.853514,0.659967 -0.057924,-5.224728 z" style="fill:#888a85;stroke:#babdb6;stroke-width:.25;stroke-linecap:butt;stroke-linejoin:miter;stroke-miterlimit:4;stroke-opacity:1;stroke-dasharray:none"/><path id="path3405" d="m 5.932998,16.64007 0.115845,5.279724 1.853514,0.659967 -0.057924,-5.224728 z" style="fill:#888a85;stroke:#babdb6;stroke-width:.25;stroke-linecap:butt;stroke-linejoin:miter;stroke-miterlimit:4;stroke-opacity:1;stroke-dasharray:none"/><path id="path3407" d="m 8.433624,17.566254 0.115845,5.279724 1.853514,0.659967 -0.05792,-5.224728 z" style="fill:#888a85;stroke:#babdb6;stroke-width:.25;stroke-linecap:butt;stroke-linejoin:miter;stroke-miterlimit:4;stroke-opacity:1;stroke-dasharray:none"/><path id="path3409" d="m 10.930137,18.507125 0.115845,5.279724 1.853514,0.659967 -0.05792,-5.224728 z" style="fill:#888a85;stroke:#babdb6;stroke-width:.25;stroke-linecap:butt;stroke-linejoin:miter;stroke-miterlimit:4;stroke-opacity:1;stroke-dasharray:none"/><path id="path3411" d="m 13.430764,19.433309 0.115845,5.279724 1.853514,0.659967 -0.05792,-5.224728 z" style="fill:#888a85;stroke:#babdb6;stroke-width:.25;stroke-linecap:butt;stroke-linejoin:miter;stroke-miterlimit:4;stroke-opacity:1;stroke-dasharray:none"/><path id="path3413" d="m 16.827854,20.749206 c -0.27426,0.0049 -0.46875,0.182775 -0.46875,0.46875 0,0.3813 0.337275,0.812025 0.759375,0.965625 0.4221,0.1536 0.76875,-0.0312 0.76875,-0.4125 0,-0.3816 -0.34665,-0.812025 -0.76875,-0.965625 -0.105525,-0.03847 -0.199206,-0.05789 -0.290625,-0.05625 z" style="fill:#888a85;fill-rule:evenodd"/><path style="fill:none;stroke:#555753;stroke-width:.5;stroke-linecap:butt;stroke-linejoin:miter;stroke-miterlimit:4;stroke-opacity:1;stroke-dasharray:none" id="path3415" d="m 0.4609525,20.415279 -0.068454,-6.503124 12.8693425,-9.1043762 18.345661,6.7084862 0,6.708489 -12.800889,8.967468 z"/></g></g><g id="g3517" transform="matrix(0.6317498,0,0,0.6317498,0.66746929,36.576189)"><path id="path3519" d="m 0.4609525,20.415279 -0.068454,-6.503124 12.8693425,-9.1043762 18.345661,6.7084862 0,6.708489 -12.800889,8.967468 z" style="fill:#d3d7cf;stroke:none"/><polygon id="polygon3521" points="63.214 54.119 63.214 67.976 2.014 45.704 2.014 45.704 2.014 31.849" style="fill:#eeeeec" transform="matrix(0.3,0,0,0.3,-0.0135095,6.5367898)"/><polygon id="polygon3523" points="63.214 67.976 2.014 45.704 2.014 45.704 2.014 31.849 63.214 54.119" style="fill:#eeeeec" transform="matrix(0.3,0,0,0.3,-0.0135095,4.4831698)"/><polygon id="polygon3525" points="105.846 38.12 63.214 67.976 63.214 54.119 63.214 54.119 105.846 24.265" style="fill:#d3d7cf" transform="matrix(0.3,0,0,0.3,-0.2546225,6.6475798)"/><polygon id="polygon3527" points="105.846 38.12 63.214 67.976 63.214 54.119 63.214 54.119 105.846 24.265" style="fill:#d3d7cf" transform="matrix(0.3,0,0,0.3,-0.2546225,4.3886008)"/><polygon id="polygon3529" points="63.718 67.623 63.214 67.976 62.711 67.792 62.711 67.792 62.711 54.119 63.718 54.119" style="fill:#fff" transform="matrix(0.3,0,0,0.46796091,-0.2261915,-4.7983232)"/><polygon id="polygon3531" points="2.014 31.849 2.512 31.5 2.512 31.5 63.141 53.443 105.332 24.078 105.846 24.265 105.846 24.947 63.288 54.682 2.014 32.391" transform="matrix(0.29670362,0,0,0.3,-0.02756109,4.4454)" style="fill:#fff"/><path id="path3533" d="M 0.954,14.775729 1.069845,20.055453 2.923359,20.71542 2.865435,15.490692 z" style="fill:#888a85;stroke:#babdb6;stroke-width:.25;stroke-linecap:butt;stroke-linejoin:miter;stroke-miterlimit:4;stroke-opacity:1;stroke-dasharray:none"/><path id="path3535" d="m 3.454626,15.701913 0.115845,5.279724 1.853514,0.659967 -0.057924,-5.224728 z" style="fill:#888a85;stroke:#babdb6;stroke-width:.25;stroke-linecap:butt;stroke-linejoin:miter;stroke-miterlimit:4;stroke-opacity:1;stroke-dasharray:none"/><path id="path3537" d="m 5.932998,16.64007 0.115845,5.279724 1.853514,0.659967 -0.057924,-5.224728 z" style="fill:#888a85;stroke:#babdb6;stroke-width:.25;stroke-linecap:butt;stroke-linejoin:miter;stroke-miterlimit:4;stroke-opacity:1;stroke-dasharray:none"/><path id="path3539" d="m 8.433624,17.566254 0.115845,5.279724 1.853514,0.659967 -0.05792,-5.224728 z" style="fill:#888a85;stroke:#babdb6;stroke-width:.25;stroke-linecap:butt;stroke-linejoin:miter;stroke-miterlimit:4;stroke-opacity:1;stroke-dasharray:none"/><path id="path3541" d="m 10.930137,18.507125 0.115845,5.279724 1.853514,0.659967 -0.05792,-5.224728 z" style="fill:#888a85;stroke:#babdb6;stroke-width:.25;stroke-linecap:butt;stroke-linejoin:miter;stroke-miterlimit:4;stroke-opacity:1;stroke-dasharray:none"/><path id="path3543" d="m 13.430764,19.433309 0.115845,5.279724 1.853514,0.659967 -0.05792,-5.224728 z" style="fill:#888a85;stroke:#babdb6;stroke-width:.25;stroke-linecap:butt;stroke-linejoin:miter;stroke-miterlimit:4;stroke-opacity:1;stroke-dasharray:none"/><path id="path3545" d="m 16.827854,20.749206 c -0.27426,0.0049 -0.46875,0.182775 -0.46875,0.46875 0,0.3813 0.337275,0.812025 0.759375,0.965625 0.4221,0.1536 0.76875,-0.0312 0.76875,-0.4125 0,-0.3816 -0.34665,-0.812025 -0.76875,-0.965625 -0.105525,-0.03847 -0.199206,-0.05789 -0.290625,-0.05625 z" style="fill:#888a85;fill-rule:evenodd"/><path style="fill:none;stroke:#555753;stroke-width:.5;stroke-linecap:butt;stroke-linejoin:miter;stroke-miterlimit:4;stroke-opacity:1;stroke-dasharray:none" id="path3547" d="m 0.4609525,20.415279 -0.068454,-6.503124 12.8693425,-9.1043762 18.345661,6.7084862 0,6.708489 -12.800889,8.967468 z"/></g><g id="g3549" transform="matrix(0.6317498,0,0,0.6317498,0.66746929,31.838065)"><path style="fill:#d3d7cf;stroke:none" id="path3551" d="m 0.4609525,20.415279 -0.068454,-6.503124 12.8693425,-9.1043762 18.345661,6.7084862 0,6.708489 -12.800889,8.967468 z"/><polygon transform="matrix(0.3,0,0,0.3,-0.0135095,6.5367898)" style="fill:#eeeeec" id="polygon3553" points="63.214 54.119 63.214 67.976 2.014 45.704 2.014 45.704 2.014 31.849"/><polygon transform="matrix(0.3,0,0,0.3,-0.0135095,4.4831698)" style="fill:#eeeeec" id="polygon3555" points="63.214 67.976 2.014 45.704 2.014 45.704 2.014 31.849 63.214 54.119"/><polygon transform="matrix(0.3,0,0,0.3,-0.2546225,6.6475798)" style="fill:#d3d7cf" id="polygon3557" points="105.846 38.12 63.214 67.976 63.214 54.119 63.214 54.119 105.846 24.265"/><polygon transform="matrix(0.3,0,0,0.3,-0.2546225,4.3886008)" style="fill:#d3d7cf" id="polygon3559" points="105.846 38.12 63.214 67.976 63.214 54.119 63.214 54.119 105.846 24.265"/><polygon transform="matrix(0.3,0,0,0.46796091,-0.2261915,-4.7983232)" style="fill:#fff" id="polygon3561" points="63.718 54.119 63.718 67.623 63.214 67.976 62.711 67.792 62.711 67.792 62.711 54.119"/><polygon style="fill:#fff" id="polygon3563" points="105.846 24.265 105.846 24.947 63.288 54.682 2.014 32.391 2.014 31.849 2.512 31.5 2.512 31.5 63.141 53.443 105.332 24.078" transform="matrix(0.29670362,0,0,0.3,-0.02756109,4.4454)"/><path style="fill:#888a85;stroke:#babdb6;stroke-width:.25;stroke-linecap:butt;stroke-linejoin:miter;stroke-miterlimit:4;stroke-opacity:1;stroke-dasharray:none" id="path3565" d="M 0.954,14.775729 1.069845,20.055453 2.923359,20.71542 2.865435,15.490692 z"/><path style="fill:#888a85;stroke:#babdb6;stroke-width:.25;stroke-linecap:butt;stroke-linejoin:miter;stroke-miterlimit:4;stroke-opacity:1;stroke-dasharray:none" id="path3567" d="m 3.454626,15.701913 0.115845,5.279724 1.853514,0.659967 -0.057924,-5.224728 z"/><path style="fill:#888a85;stroke:#babdb6;stroke-width:.25;stroke-linecap:butt;stroke-linejoin:miter;stroke-miterlimit:4;stroke-opacity:1;stroke-dasharray:none" id="path3569" d="m 5.932998,16.64007 0.115845,5.279724 1.853514,0.659967 -0.057924,-5.224728 z"/><path style="fill:#888a85;stroke:#babdb6;stroke-width:.25;stroke-linecap:butt;stroke-linejoin:miter;stroke-miterlimit:4;stroke-opacity:1;stroke-dasharray:none" id="path3571" d="m 8.433624,17.566254 0.115845,5.279724 1.853514,0.659967 -0.05792,-5.224728 z"/><path style="fill:#888a85;stroke:#babdb6;stroke-width:.25;stroke-linecap:butt;stroke-linejoin:miter;stroke-miterlimit:4;stroke-opacity:1;stroke-dasharray:none" id="path3573" d="m 10.930137,18.507125 0.115845,5.279724 1.853514,0.659967 -0.05792,-5.224728 z"/><path style="fill:#888a85;stroke:#babdb6;stroke-width:.25;stroke-linecap:butt;stroke-linejoin:miter;stroke-miterlimit:4;stroke-opacity:1;stroke-dasharray:none" id="path3575" d="m 13.430764,19.433309 0.115845,5.279724 1.853514,0.659967 -0.05792,-5.224728 z"/><path style="fill:#888a85;fill-rule:evenodd" id="path3577" d="m 16.827854,20.749206 c -0.27426,0.0049 -0.46875,0.182775 -0.46875,0.46875 0,0.3813 0.337275,0.812025 0.759375,0.965625 0.4221,0.1536 0.76875,-0.0312 0.76875,-0.4125 0,-0.3816 -0.34665,-0.812025 -0.76875,-0.965625 -0.105525,-0.03847 -0.199206,-0.05789 -0.290625,-0.05625 z"/><path id="path3579" d="m 0.4609525,20.415279 -0.068454,-6.503124 12.8693425,-9.1043762 18.345661,6.7084862 0,6.708489 -12.800889,8.967468 z" style="fill:none;stroke:#555753;stroke-width:.5;stroke-linecap:butt;stroke-linejoin:miter;stroke-miterlimit:4;stroke-opacity:1;stroke-dasharray:none"/></g><g id="g3581" transform="matrix(0.6317498,0,0,0.6317498,0.66746929,27.099942)"><path id="path3583" d="m 0.4609525,20.415279 -0.068454,-6.503124 12.8693425,-9.1043762 18.345661,6.7084862 0,6.708489 -12.800889,8.967468 z" style="fill:#d3d7cf;stroke:none"/><polygon id="polygon3585" points="63.214 67.976 2.014 45.704 2.014 45.704 2.014 31.849 63.214 54.119" style="fill:#eeeeec" transform="matrix(0.3,0,0,0.3,-0.0135095,6.5367898)"/><polygon id="polygon3587" points="2.014 45.704 2.014 45.704 2.014 31.849 63.214 54.119 63.214 67.976" style="fill:#eeeeec" transform="matrix(0.3,0,0,0.3,-0.0135095,4.4831698)"/><polygon id="polygon3589" points="63.214 67.976 63.214 54.119 63.214 54.119 105.846 24.265 105.846 38.12" style="fill:#d3d7cf" transform="matrix(0.3,0,0,0.3,-0.2546225,6.6475798)"/><polygon id="polygon3591" points="63.214 67.976 63.214 54.119 63.214 54.119 105.846 24.265 105.846 38.12" style="fill:#d3d7cf" transform="matrix(0.3,0,0,0.3,-0.2546225,4.3886008)"/><polygon id="polygon3593" points="63.718 67.623 63.214 67.976 62.711 67.792 62.711 67.792 62.711 54.119 63.718 54.119" style="fill:#fff" transform="matrix(0.3,0,0,0.46796091,-0.2261915,-4.7983232)"/><polygon id="polygon3595" points="105.846 24.947 63.288 54.682 2.014 32.391 2.014 31.849 2.512 31.5 2.512 31.5 63.141 53.443 105.332 24.078 105.846 24.265" transform="matrix(0.29670362,0,0,0.3,-0.02756109,4.4454)" style="fill:#fff"/><path id="path3597" d="M 0.954,14.775729 1.069845,20.055453 2.923359,20.71542 2.865435,15.490692 z" style="fill:#888a85;stroke:#babdb6;stroke-width:.25;stroke-linecap:butt;stroke-linejoin:miter;stroke-miterlimit:4;stroke-opacity:1;stroke-dasharray:none"/><path id="path3599" d="m 3.454626,15.701913 0.115845,5.279724 1.853514,0.659967 -0.057924,-5.224728 z" style="fill:#888a85;stroke:#babdb6;stroke-width:.25;stroke-linecap:butt;stroke-linejoin:miter;stroke-miterlimit:4;stroke-opacity:1;stroke-dasharray:none"/><path id="path3601" d="m 5.932998,16.64007 0.115845,5.279724 1.853514,0.659967 -0.057924,-5.224728 z" style="fill:#888a85;stroke:#babdb6;stroke-width:.25;stroke-linecap:butt;stroke-linejoin:miter;stroke-miterlimit:4;stroke-opacity:1;stroke-dasharray:none"/><path id="path3603" d="m 8.433624,17.566254 0.115845,5.279724 1.853514,0.659967 -0.05792,-5.224728 z" style="fill:#888a85;stroke:#babdb6;stroke-width:.25;stroke-linecap:butt;stroke-linejoin:miter;stroke-miterlimit:4;stroke-opacity:1;stroke-dasharray:none"/><path id="path3605" d="m 10.930137,18.507125 0.115845,5.279724 1.853514,0.659967 -0.05792,-5.224728 z" style="fill:#888a85;stroke:#babdb6;stroke-width:.25;stroke-linecap:butt;stroke-linejoin:miter;stroke-miterlimit:4;stroke-opacity:1;stroke-dasharray:none"/><path id="path3607" d="m 13.430764,19.433309 0.115845,5.279724 1.853514,0.659967 -0.05792,-5.224728 z" style="fill:#888a85;stroke:#babdb6;stroke-width:.25;stroke-linecap:butt;stroke-linejoin:miter;stroke-miterlimit:4;stroke-opacity:1;stroke-dasharray:none"/><path id="path3609" d="m 16.827854,20.749206 c -0.27426,0.0049 -0.46875,0.182775 -0.46875,0.46875 0,0.3813 0.337275,0.812025 0.759375,0.965625 0.4221,0.1536 0.76875,-0.0312 0.76875,-0.4125 0,-0.3816 -0.34665,-0.812025 -0.76875,-0.965625 -0.105525,-0.03847 -0.199206,-0.05789 -0.290625,-0.05625 z" style="fill:#888a85;fill-rule:evenodd"/><path style="fill:none;stroke:#555753;stroke-width:.5;stroke-linecap:butt;stroke-linejoin:miter;stroke-miterlimit:4;stroke-opacity:1;stroke-dasharray:none" id="path3611" d="m 0.4609525,20.415279 -0.068454,-6.503124 12.8693425,-9.1043762 18.345661,6.7084862 0,6.708489 -12.800889,8.967468 z"/></g><g id="g3419" transform="matrix(0.6317498,0,0,0.6317498,13.167469,41.326189)"><path style="fill:#d3d7cf;stroke:none" id="path3421" d="m 0.4609525,20.415279 -0.068454,-6.503124 12.8693425,-9.1043762 18.345661,6.7084862 0,6.708489 -12.800889,8.967468 z"/><polygon transform="matrix(0.3,0,0,0.3,-0.0135095,6.5367898)" style="fill:#eeeeec" id="polygon3423" points="2.014 31.849 63.214 54.119 63.214 67.976 2.014 45.704 2.014 45.704"/><polygon transform="matrix(0.3,0,0,0.3,-0.0135095,4.4831698)" style="fill:#eeeeec" id="polygon3425" points="63.214 54.119 63.214 67.976 2.014 45.704 2.014 45.704 2.014 31.849"/><polygon transform="matrix(0.3,0,0,0.3,-0.2546225,6.6475798)" style="fill:#d3d7cf" id="polygon3427" points="105.846 24.265 105.846 38.12 63.214 67.976 63.214 54.119 63.214 54.119"/><polygon transform="matrix(0.3,0,0,0.3,-0.2546225,4.3886008)" style="fill:#d3d7cf" id="polygon3429" points="105.846 24.265 105.846 38.12 63.214 67.976 63.214 54.119 63.214 54.119"/><polygon transform="matrix(0.3,0,0,0.46796091,-0.2261915,-4.7983232)" style="fill:#fff" id="polygon3431" points="62.711 67.792 62.711 54.119 63.718 54.119 63.718 67.623 63.214 67.976 62.711 67.792"/><polygon style="fill:#fff" id="polygon3433" points="2.014 31.849 2.512 31.5 2.512 31.5 63.141 53.443 105.332 24.078 105.846 24.265 105.846 24.947 63.288 54.682 2.014 32.391" transform="matrix(0.29670362,0,0,0.3,-0.02756109,4.4454)"/><path style="fill:#888a85;stroke:#babdb6;stroke-width:.25;stroke-linecap:butt;stroke-linejoin:miter;stroke-miterlimit:4;stroke-opacity:1;stroke-dasharray:none" id="path3435" d="M 0.954,14.775729 1.069845,20.055453 2.923359,20.71542 2.865435,15.490692 z"/><path style="fill:#888a85;stroke:#babdb6;stroke-width:.25;stroke-linecap:butt;stroke-linejoin:miter;stroke-miterlimit:4;stroke-opacity:1;stroke-dasharray:none" id="path3437" d="m 3.454626,15.701913 0.115845,5.279724 1.853514,0.659967 -0.057924,-5.224728 z"/><path style="fill:#888a85;stroke:#babdb6;stroke-width:.25;stroke-linecap:butt;stroke-linejoin:miter;stroke-miterlimit:4;stroke-opacity:1;stroke-dasharray:none" id="path3439" d="m 5.932998,16.64007 0.115845,5.279724 1.853514,0.659967 -0.057924,-5.224728 z"/><path style="fill:#888a85;stroke:#babdb6;stroke-width:.25;stroke-linecap:butt;stroke-linejoin:miter;stroke-miterlimit:4;stroke-opacity:1;stroke-dasharray:none" id="path3441" d="m 8.433624,17.566254 0.115845,5.279724 1.853514,0.659967 -0.05792,-5.224728 z"/><path style="fill:#888a85;stroke:#babdb6;stroke-width:.25;stroke-linecap:butt;stroke-linejoin:miter;stroke-miterlimit:4;stroke-opacity:1;stroke-dasharray:none" id="path3443" d="m 10.930137,18.507125 0.115845,5.279724 1.853514,0.659967 -0.05792,-5.224728 z"/><path style="fill:#888a85;stroke:#babdb6;stroke-width:.25;stroke-linecap:butt;stroke-linejoin:miter;stroke-miterlimit:4;stroke-opacity:1;stroke-dasharray:none" id="path3445" d="m 13.430764,19.433309 0.115845,5.279724 1.853514,0.659967 -0.05792,-5.224728 z"/><path style="fill:#888a85;fill-rule:evenodd" id="path3447" d="m 16.827854,20.749206 c -0.27426,0.0049 -0.46875,0.182775 -0.46875,0.46875 0,0.3813 0.337275,0.812025 0.759375,0.965625 0.4221,0.1536 0.76875,-0.0312 0.76875,-0.4125 0,-0.3816 -0.34665,-0.812025 -0.76875,-0.965625 -0.105525,-0.03847 -0.199206,-0.05789 -0.290625,-0.05625 z"/><path id="path3449" d="m 0.4609525,20.415279 -0.068454,-6.503124 12.8693425,-9.1043762 18.345661,6.7084862 0,6.708489 -12.800889,8.967468 z" style="fill:none;stroke:#555753;stroke-width:.5;stroke-linecap:butt;stroke-linejoin:miter;stroke-miterlimit:4;stroke-opacity:1;stroke-dasharray:none"/></g><g id="g3451" transform="matrix(0.6317498,0,0,0.6317498,13.167469,36.588065)"><path id="path3453" d="m 0.4609525,20.415279 -0.068454,-6.503124 12.8693425,-9.1043762 18.345661,6.7084862 0,6.708489 -12.800889,8.967468 z" style="fill:#d3d7cf;stroke:none"/><polygon id="polygon3455" points="2.014 31.849 63.214 54.119 63.214 67.976 2.014 45.704 2.014 45.704" style="fill:#eeeeec" transform="matrix(0.3,0,0,0.3,-0.0135095,6.5367898)"/><polygon id="polygon3457" points="63.214 54.119 63.214 67.976 2.014 45.704 2.014 45.704 2.014 31.849" style="fill:#eeeeec" transform="matrix(0.3,0,0,0.3,-0.0135095,4.4831698)"/><polygon id="polygon3459" points="105.846 24.265 105.846 38.12 63.214 67.976 63.214 54.119 63.214 54.119" style="fill:#d3d7cf" transform="matrix(0.3,0,0,0.3,-0.2546225,6.6475798)"/><polygon id="polygon3461" points="105.846 24.265 105.846 38.12 63.214 67.976 63.214 54.119 63.214 54.119" style="fill:#d3d7cf" transform="matrix(0.3,0,0,0.3,-0.2546225,4.3886008)"/><polygon id="polygon3463" points="62.711 67.792 62.711 67.792 62.711 54.119 63.718 54.119 63.718 67.623 63.214 67.976" style="fill:#fff" transform="matrix(0.3,0,0,0.46796091,-0.2261915,-4.7983232)"/><polygon id="polygon3465" points="105.846 24.265 105.846 24.947 63.288 54.682 2.014 32.391 2.014 31.849 2.512 31.5 2.512 31.5 63.141 53.443 105.332 24.078" transform="matrix(0.29670362,0,0,0.3,-0.02756109,4.4454)" style="fill:#fff"/><path id="path3467" d="M 0.954,14.775729 1.069845,20.055453 2.923359,20.71542 2.865435,15.490692 z" style="fill:#888a85;stroke:#babdb6;stroke-width:.25;stroke-linecap:butt;stroke-linejoin:miter;stroke-miterlimit:4;stroke-opacity:1;stroke-dasharray:none"/><path id="path3469" d="m 3.454626,15.701913 0.115845,5.279724 1.853514,0.659967 -0.057924,-5.224728 z" style="fill:#888a85;stroke:#babdb6;stroke-width:.25;stroke-linecap:butt;stroke-linejoin:miter;stroke-miterlimit:4;stroke-opacity:1;stroke-dasharray:none"/><path id="path3471" d="m 5.932998,16.64007 0.115845,5.279724 1.853514,0.659967 -0.057924,-5.224728 z" style="fill:#888a85;stroke:#babdb6;stroke-width:.25;stroke-linecap:butt;stroke-linejoin:miter;stroke-miterlimit:4;stroke-opacity:1;stroke-dasharray:none"/><path id="path3473" d="m 8.433624,17.566254 0.115845,5.279724 1.853514,0.659967 -0.05792,-5.224728 z" style="fill:#888a85;stroke:#babdb6;stroke-width:.25;stroke-linecap:butt;stroke-linejoin:miter;stroke-miterlimit:4;stroke-opacity:1;stroke-dasharray:none"/><path id="path3475" d="m 10.930137,18.507125 0.115845,5.279724 1.853514,0.659967 -0.05792,-5.224728 z" style="fill:#888a85;stroke:#babdb6;stroke-width:.25;stroke-linecap:butt;stroke-linejoin:miter;stroke-miterlimit:4;stroke-opacity:1;stroke-dasharray:none"/><path id="path3477" d="m 13.430764,19.433309 0.115845,5.279724 1.853514,0.659967 -0.05792,-5.224728 z" style="fill:#888a85;stroke:#babdb6;stroke-width:.25;stroke-linecap:butt;stroke-linejoin:miter;stroke-miterlimit:4;stroke-opacity:1;stroke-dasharray:none"/><path id="path3479" d="m 16.827854,20.749206 c -0.27426,0.0049 -0.46875,0.182775 -0.46875,0.46875 0,0.3813 0.337275,0.812025 0.759375,0.965625 0.4221,0.1536 0.76875,-0.0312 0.76875,-0.4125 0,-0.3816 -0.34665,-0.812025 -0.76875,-0.965625 -0.105525,-0.03847 -0.199206,-0.05789 -0.290625,-0.05625 z" style="fill:#888a85;fill-rule:evenodd"/><path style="fill:none;stroke:#555753;stroke-width:.5;stroke-linecap:butt;stroke-linejoin:miter;stroke-miterlimit:4;stroke-opacity:1;stroke-dasharray:none" id="path3481" d="m 0.4609525,20.415279 -0.068454,-6.503124 12.8693425,-9.1043762 18.345661,6.7084862 0,6.708489 -12.800889,8.967468 z"/></g><g id="g3848" transform="matrix(0.6317498,0,0,0.6317498,25.667469,46.076189)"><path id="path3054" d="m 0.4609525,20.415279 -0.068454,-6.503124 12.8693425,-9.1043762 18.345661,6.7084862 0,6.708489 -12.800889,8.967468 z" style="fill:#d3d7cf;stroke:none"/><polygon id="polygon9" points="63.214 54.119 63.214 67.976 2.014 45.704 2.014 45.704 2.014 31.849" style="fill:#eeeeec" transform="matrix(0.3,0,0,0.3,-0.0135095,6.5367898)"/><polygon id="polygon9-3" points="63.214 67.976 2.014 45.704 2.014 45.704 2.014 31.849 63.214 54.119" style="fill:#eeeeec" transform="matrix(0.3,0,0,0.3,-0.0135095,4.4831698)"/><polygon id="polygon11" points="105.846 38.12 63.214 67.976 63.214 54.119 63.214 54.119 105.846 24.265" style="fill:#d3d7cf" transform="matrix(0.3,0,0,0.3,-0.2546225,6.6475798)"/><polygon id="polygon11-9" points="105.846 38.12 63.214 67.976 63.214 54.119 63.214 54.119 105.846 24.265" style="fill:#d3d7cf" transform="matrix(0.3,0,0,0.3,-0.2546225,4.3886008)"/><polygon id="polygon15" points="63.718 67.623 63.214 67.976 62.711 67.792 62.711 67.792 62.711 54.119 63.718 54.119" style="fill:#fff" transform="matrix(0.3,0,0,0.46796091,-0.2261915,-4.7983232)"/><polygon id="polygon13" points="2.014 31.849 2.512 31.5 2.512 31.5 63.141 53.443 105.332 24.078 105.846 24.265 105.846 24.947 63.288 54.682 2.014 32.391" transform="matrix(0.29670362,0,0,0.3,-0.02756109,4.4454)" style="fill:#fff"/><path id="path3949" d="M 0.954,14.775729 1.069845,20.055453 2.923359,20.71542 2.865435,15.490692 z" style="fill:#888a85;stroke:#babdb6;stroke-width:.25;stroke-linecap:butt;stroke-linejoin:miter;stroke-miterlimit:4;stroke-opacity:1;stroke-dasharray:none"/><path id="path3949-8" d="m 3.454626,15.701913 0.115845,5.279724 1.853514,0.659967 -0.057924,-5.224728 z" style="fill:#888a85;stroke:#babdb6;stroke-width:.25;stroke-linecap:butt;stroke-linejoin:miter;stroke-miterlimit:4;stroke-opacity:1;stroke-dasharray:none"/><path id="path3949-9" d="m 5.932998,16.64007 0.115845,5.279724 1.853514,0.659967 -0.057924,-5.224728 z" style="fill:#888a85;stroke:#babdb6;stroke-width:.25;stroke-linecap:butt;stroke-linejoin:miter;stroke-miterlimit:4;stroke-opacity:1;stroke-dasharray:none"/><path id="path3949-8-4" d="m 8.433624,17.566254 0.115845,5.279724 1.853514,0.659967 -0.05792,-5.224728 z" style="fill:#888a85;stroke:#babdb6;stroke-width:.25;stroke-linecap:butt;stroke-linejoin:miter;stroke-miterlimit:4;stroke-opacity:1;stroke-dasharray:none"/><path id="path3949-7" d="m 10.930137,18.507125 0.115845,5.279724 1.853514,0.659967 -0.05792,-5.224728 z" style="fill:#888a85;stroke:#babdb6;stroke-width:.25;stroke-linecap:butt;stroke-linejoin:miter;stroke-miterlimit:4;stroke-opacity:1;stroke-dasharray:none"/><path id="path3949-8-7" d="m 13.430764,19.433309 0.115845,5.279724 1.853514,0.659967 -0.05792,-5.224728 z" style="fill:#888a85;stroke:#babdb6;stroke-width:.25;stroke-linecap:butt;stroke-linejoin:miter;stroke-miterlimit:4;stroke-opacity:1;stroke-dasharray:none"/><path id="path19" d="m 16.827854,20.749206 c -0.27426,0.0049 -0.46875,0.182775 -0.46875,0.46875 0,0.3813 0.337275,0.812025 0.759375,0.965625 0.4221,0.1536 0.76875,-0.0312 0.76875,-0.4125 0,-0.3816 -0.34665,-0.812025 -0.76875,-0.965625 -0.105525,-0.03847 -0.199206,-0.05789 -0.290625,-0.05625 z" style="fill:#888a85;fill-rule:evenodd"/><path style="fill:none;stroke:#555753;stroke-width:.5;stroke-linecap:butt;stroke-linejoin:miter;stroke-miterlimit:4;stroke-opacity:1;stroke-dasharray:none" id="path3814" d="m 0.4609525,20.415279 -0.068454,-6.503124 12.8693425,-9.1043762 18.345661,6.7084862 0,6.708489 -12.800889,8.967468 z"/></g><g id="g3034" transform="matrix(0.6317498,0,0,0.6317498,25.667469,41.338065)"><path style="fill:#d3d7cf;stroke:none" id="path3036" d="m 0.4609525,20.415279 -0.068454,-6.503124 12.8693425,-9.1043762 18.345661,6.7084862 0,6.708489 -12.800889,8.967468 z"/><polygon transform="matrix(0.3,0,0,0.3,-0.0135095,6.5367898)" style="fill:#eeeeec" id="polygon3038" points="63.214 54.119 63.214 67.976 2.014 45.704 2.014 45.704 2.014 31.849"/><polygon transform="matrix(0.3,0,0,0.3,-0.0135095,4.4831698)" style="fill:#eeeeec" id="polygon3040" points="63.214 67.976 2.014 45.704 2.014 45.704 2.014 31.849 63.214 54.119"/><polygon transform="matrix(0.3,0,0,0.3,-0.2546225,6.6475798)" style="fill:#d3d7cf" id="polygon3042" points="105.846 38.12 63.214 67.976 63.214 54.119 63.214 54.119 105.846 24.265"/><polygon transform="matrix(0.3,0,0,0.3,-0.2546225,4.3886008)" style="fill:#d3d7cf" id="polygon3044" points="105.846 38.12 63.214 67.976 63.214 54.119 63.214 54.119 105.846 24.265"/><polygon transform="matrix(0.3,0,0,0.46796091,-0.2261915,-4.7983232)" style="fill:#fff" id="polygon3046" points="63.718 54.119 63.718 67.623 63.214 67.976 62.711 67.792 62.711 67.792 62.711 54.119"/><polygon style="fill:#fff" id="polygon3048" points="105.846 24.265 105.846 24.947 63.288 54.682 2.014 32.391 2.014 31.849 2.512 31.5 2.512 31.5 63.141 53.443 105.332 24.078" transform="matrix(0.29670362,0,0,0.3,-0.02756109,4.4454)"/><path style="fill:#888a85;stroke:#babdb6;stroke-width:.25;stroke-linecap:butt;stroke-linejoin:miter;stroke-miterlimit:4;stroke-opacity:1;stroke-dasharray:none" id="path3050" d="M 0.954,14.775729 1.069845,20.055453 2.923359,20.71542 2.865435,15.490692 z"/><path style="fill:#888a85;stroke:#babdb6;stroke-width:.25;stroke-linecap:butt;stroke-linejoin:miter;stroke-miterlimit:4;stroke-opacity:1;stroke-dasharray:none" id="path3052" d="m 3.454626,15.701913 0.115845,5.279724 1.853514,0.659967 -0.057924,-5.224728 z"/><path style="fill:#888a85;stroke:#babdb6;stroke-width:.25;stroke-linecap:butt;stroke-linejoin:miter;stroke-miterlimit:4;stroke-opacity:1;stroke-dasharray:none" id="path3055-4" d="m 5.932998,16.64007 0.115845,5.279724 1.853514,0.659967 -0.057924,-5.224728 z"/><path style="fill:#888a85;stroke:#babdb6;stroke-width:.25;stroke-linecap:butt;stroke-linejoin:miter;stroke-miterlimit:4;stroke-opacity:1;stroke-dasharray:none" id="path3057-2" d="m 8.433624,17.566254 0.115845,5.279724 1.853514,0.659967 -0.05792,-5.224728 z"/><path style="fill:#888a85;stroke:#babdb6;stroke-width:.25;stroke-linecap:butt;stroke-linejoin:miter;stroke-miterlimit:4;stroke-opacity:1;stroke-dasharray:none" id="path3059-5" d="m 10.930137,18.507125 0.115845,5.279724 1.853514,0.659967 -0.05792,-5.224728 z"/><path style="fill:#888a85;stroke:#babdb6;stroke-width:.25;stroke-linecap:butt;stroke-linejoin:miter;stroke-miterlimit:4;stroke-opacity:1;stroke-dasharray:none" id="path3061" d="m 13.430764,19.433309 0.115845,5.279724 1.853514,0.659967 -0.05792,-5.224728 z"/><path style="fill:#888a85;fill-rule:evenodd" id="path3063-2" d="m 16.827854,20.749206 c -0.27426,0.0049 -0.46875,0.182775 -0.46875,0.46875 0,0.3813 0.337275,0.812025 0.759375,0.965625 0.4221,0.1536 0.76875,-0.0312 0.76875,-0.4125 0,-0.3816 -0.34665,-0.812025 -0.76875,-0.965625 -0.105525,-0.03847 -0.199206,-0.05789 -0.290625,-0.05625 z"/><path id="path3065-7" d="m 0.4609525,20.415279 -0.068454,-6.503124 12.8693425,-9.1043762 18.345661,6.7084862 0,6.708489 -12.800889,8.967468 z" style="fill:none;stroke:#555753;stroke-width:.5;stroke-linecap:butt;stroke-linejoin:miter;stroke-miterlimit:4;stroke-opacity:1;stroke-dasharray:none"/></g></svg>