<svg xmlns="http://www.w3.org/2000/svg" xmlns:svg="http://www.w3.org/2000/svg" xmlns:xlink="http://www.w3.org/1999/xlink" id="svg2" width="64" height="64" version="1.1"><metadata id="metadata7"/><defs id="defs5"><linearGradient id="linearGradient3889"><stop style="stop-color:#fff;stop-opacity:1" id="stop3891" offset="0"/><stop style="stop-color:#f7f7f7;stop-opacity:1" id="stop3893" offset="1"/></linearGradient><linearGradient id="linearGradient3863"><stop id="stop3879" offset="0" style="stop-color:#fff;stop-opacity:1"/><stop style="stop-color:#eeeeec;stop-opacity:1" id="stop3867" offset="1"/></linearGradient><linearGradient id="linearGradient3855"><stop style="stop-color:#eeeeec;stop-opacity:1" id="stop3857" offset="0"/><stop style="stop-color:#eeeeec;stop-opacity:0" id="stop3859" offset="1"/></linearGradient><linearGradient id="linearGradient3063"><stop style="stop-color:#fff;stop-opacity:1" id="stop3065" offset="0"/><stop style="stop-color:#fff;stop-opacity:0" id="stop3067" offset="1"/></linearGradient><linearGradient id="linearGradient4975" x1="34.893" x2="45.919" y1="36.423" y2="48.548" gradientTransform="translate(-18.01785,2.428811)" gradientUnits="userSpaceOnUse" xlink:href="#linearGradient1322"/><linearGradient id="linearGradient1322"><stop id="stop1324" offset="0" style="stop-color:#729fcf"/><stop id="stop1326" offset="1" style="stop-color:#5187d6;stop-opacity:1"/></linearGradient><linearGradient id="linearGradient7922" x1="16.875" x2="27.901" y1="22.852" y2="34.977" gradientTransform="translate(-1.9043922e-7,16.000001)" gradientUnits="userSpaceOnUse" xlink:href="#linearGradient7916"/><linearGradient id="linearGradient7916"><stop style="stop-color:#fff;stop-opacity:1" id="stop7918" offset="0"/><stop style="stop-color:#fff;stop-opacity:.34020618" id="stop7920" offset="1"/></linearGradient><radialGradient id="radialGradient2097" cx="23.071" cy="35.127" r="10.319" fx="23.071" fy="35.127" gradientTransform="matrix(0.914812,0.01265023,-0.00821502,0.213562,2.253914,27.18889)" gradientUnits="userSpaceOnUse" xlink:href="#linearGradient2091"/><linearGradient id="linearGradient2091"><stop style="stop-color:#000;stop-opacity:1" id="stop2093" offset="0"/><stop style="stop-color:#000;stop-opacity:0" id="stop2095" offset="1"/></linearGradient><radialGradient id="radialGradient3083" cx="23.071" cy="35.127" r="10.319" fx="23.071" fy="35.127" gradientTransform="matrix(0.914812,0.01265023,-0.00821502,0.213562,2.253914,27.18889)" gradientUnits="userSpaceOnUse" xlink:href="#linearGradient2091"/><radialGradient id="radialGradient3037" cx="23.071" cy="35.127" r="10.319" fx="23.071" fy="35.127" gradientTransform="matrix(0.914812,0.01265023,-0.00821502,0.213562,2.253914,27.18889)" gradientUnits="userSpaceOnUse" xlink:href="#linearGradient2091"/><linearGradient id="linearGradient2667"><stop id="stop2669" offset="0" style="stop-color:#fff;stop-opacity:1"/><stop id="stop2671" offset="1" style="stop-color:#fcfcff;stop-opacity:0"/></linearGradient><linearGradient id="linearGradient4163"><stop style="stop-color:#3b74bc;stop-opacity:1" id="stop4165" offset="0"/><stop style="stop-color:#2d5990;stop-opacity:1" id="stop4167" offset="1"/></linearGradient><linearGradient id="linearGradient3824"><stop style="stop-color:#fff;stop-opacity:1" id="stop3826" offset="0"/><stop style="stop-color:#c9c9c9;stop-opacity:1" id="stop3828" offset="1"/></linearGradient><linearGradient id="linearGradient3800"><stop style="stop-color:#f4d9b1;stop-opacity:1" id="stop3802" offset="0"/><stop style="stop-color:#df9725;stop-opacity:1" id="stop3804" offset="1"/></linearGradient><linearGradient id="linearGradient4362" x1="20.662" x2="22.627" y1="35.818" y2="36.218" gradientTransform="matrix(0.983375,0.181588,-0.181588,0.983375,6.231716,-2.651466)" gradientUnits="userSpaceOnUse" xlink:href="#linearGradient4356"/><linearGradient id="linearGradient4356"><stop style="stop-color:#000;stop-opacity:1" id="stop4358" offset="0"/><stop style="stop-color:#000;stop-opacity:0" id="stop4360" offset="1"/></linearGradient><linearGradient id="linearGradient4366" x1="22.687" x2="21.408" y1="36.39" y2="35.74" gradientTransform="matrix(-0.977685,0.210075,0.210075,0.977685,55.1096,-3.945209)" gradientUnits="userSpaceOnUse" xlink:href="#linearGradient4356"/><radialGradient id="radialGradient3180" cx="29.345" cy="17.064" r="9.162" fx="29.345" fy="17.064" gradientTransform="matrix(0.787998,0,0,0.787998,6.221198,3.617627)" gradientUnits="userSpaceOnUse" xlink:href="#linearGradient3800"/><radialGradient id="radialGradient11162" cx="29.288" cy="15.721" r="8.902" fx="29.158" fy="15.756" gradientUnits="userSpaceOnUse" xlink:href="#linearGradient3290-7"/><linearGradient id="linearGradient3290-7"><stop style="stop-color:#fffcde;stop-opacity:1" id="stop3292-1" offset="0"/><stop id="stop3294-7" offset=".645" style="stop-color:#f6e76a;stop-opacity:1"/><stop style="stop-color:#ffb738;stop-opacity:1" id="stop3296-6" offset="1"/></linearGradient><radialGradient id="radialGradient11164" cx="25.053" cy="39.593" r="15.757" fx="25.053" fy="39.593" gradientTransform="matrix(0.617019,0,0,0.617019,407.23526,917.18872)" gradientUnits="userSpaceOnUse" xlink:href="#aigrd2"/><radialGradient id="aigrd2" cx="25.053" cy="39.593" r="15.757" fx="25.053" fy="39.593" gradientTransform="matrix(0.617019,0,0,0.617019,357.23526,915.18886)" gradientUnits="userSpaceOnUse"><stop id="stop8602" style="stop-color:#777;stop-opacity:1" offset="0"/><stop id="stop8604" style="stop-color:#000" offset="1"/></radialGradient><radialGradient id="radialGradient11166" cx="15.492" cy="10.943" r="18.37" fx="15.492" fy="10.943" gradientTransform="matrix(1.402663,0,0,1.115648,462.27552,855.82941)" gradientUnits="userSpaceOnUse" xlink:href="#linearGradient3063"/><radialGradient id="radialGradient11168" cx="500.978" cy="286.469" r="40.975" fx="500.978" fy="286.469" gradientTransform="matrix(0.224796,0.01017229,-0.00975947,0.215674,394.63387,800.87806)" gradientUnits="userSpaceOnUse" xlink:href="#linearGradient8543"/><linearGradient id="linearGradient8543"><stop id="stop8545" offset="0" style="stop-color:#fffef5;stop-opacity:.94117647"/><stop id="stop8547" offset="1" style="stop-color:#729fcf;stop-opacity:1"/></linearGradient><radialGradient id="radialGradient11170" cx="293.82" cy="243.069" r="48.783" fx="293.82" fy="243.069" gradientTransform="matrix(0.272962,-0.071724,0.05616202,0.213737,389.96694,831.47119)" gradientUnits="userSpaceOnUse" xlink:href="#linearGradient8543"/><radialGradient id="radialGradient11172" cx="424.992" cy="270.68" r="38.452" fx="424.992" fy="270.68" gradientTransform="matrix(0.08174351,0.01024998,-0.04335971,0.345793,474.63692,771.27189)" gradientUnits="userSpaceOnUse" xlink:href="#linearGradient11202"/><linearGradient id="linearGradient11202"><stop id="stop11204" offset="0" style="stop-color:#729fcf;stop-opacity:0"/><stop id="stop11206" offset="1" style="stop-color:#729fcf;stop-opacity:1"/></linearGradient><radialGradient id="radialGradient11174" cx="340.359" cy="409.837" r="103.26" fx="340.359" fy="409.837" gradientTransform="matrix(0.105628,-0.03147023,0.06692574,0.10918117,422.49746,838.92989)" gradientUnits="userSpaceOnUse" xlink:href="#linearGradient8543"/><radialGradient id="radialGradient11176" cx="420.878" cy="685.991" r="235.886" fx="420.878" fy="685.991" gradientTransform="matrix(0.163532,-0.00357184,0.01078108,0.05544169,422.33164,848.92599)" gradientUnits="userSpaceOnUse" xlink:href="#linearGradient8543"/><radialGradient id="radialGradient11150" cx="29.288" cy="15.721" r="8.902" fx="29.158" fy="15.756" gradientUnits="userSpaceOnUse" xlink:href="#linearGradient3290-7"/><radialGradient id="radialGradient11152" cx="25.053" cy="39.593" r="15.757" fx="25.053" fy="39.593" gradientTransform="matrix(0.617019,0,0,0.617019,357.23526,917.18872)" gradientUnits="userSpaceOnUse" xlink:href="#aigrd2"/><radialGradient id="radialGradient5114" cx="25.053" cy="39.593" r="15.757" fx="25.053" fy="39.593" gradientTransform="matrix(0.617019,0,0,0.617019,357.23526,915.18886)" gradientUnits="userSpaceOnUse"><stop id="stop5116" style="stop-color:#777;stop-opacity:1" offset="0"/><stop id="stop5118" style="stop-color:#000" offset="1"/></radialGradient><radialGradient id="radialGradient11154" cx="18.241" cy="21.818" r="8.309" fx="18.241" fy="21.818" gradientUnits="userSpaceOnUse" xlink:href="#linearGradient11202"/><radialGradient id="radialGradient11156" cx="15.414" cy="13.078" r="6.656" fx="15.414" fy="13.078" gradientTransform="matrix(1.913572,0,0,1.662023,352.54125,895.50104)" gradientUnits="userSpaceOnUse" xlink:href="#linearGradient3063"/><radialGradient id="radialGradient11158" cx="18.241" cy="21.818" r="8.309" fx="18.241" fy="21.818" gradientUnits="userSpaceOnUse" xlink:href="#linearGradient11202"/><radialGradient id="radialGradient11160" cx="15.414" cy="13.078" r="6.656" fx="15.414" fy="13.078" gradientTransform="matrix(1.913572,0,0,1.662023,328.01091,895.50104)" gradientUnits="userSpaceOnUse" xlink:href="#linearGradient3063"/></defs><g id="g11050" transform="matrix(0.56219815,0,0,0.56219815,-193.76936,-506.02684)"><circle style="color:#000;display:inline;overflow:visible;visibility:visible;fill:url(#radialGradient11150);fill-opacity:1;fill-rule:evenodd;stroke:#9c8c0a;stroke-width:.48004404;stroke-linecap:round;stroke-linejoin:round;stroke-miterlimit:4;stroke-dasharray:none;stroke-dashoffset:0;stroke-opacity:1;marker:none" id="path11052" cx="31.113" cy="19.009" r="8.662" transform="matrix(2.083142,0,0,2.083142,307.63331,890.72708)"/><g id="g11054" transform="matrix(1,0,0,3.6666667,348.18046,856.21932)"><ellipse style="color:#000;display:inline;overflow:visible;visibility:visible;fill:#000;fill-opacity:1;fill-rule:evenodd;stroke:none;stroke-width:.99999946;marker:none" id="path11056" cx="36" cy="19.188" rx="2.375" ry=".563" transform="translate(-2.875,-0.625)"/><ellipse id="path11058" cx="36" cy="19.188" ry=".563" transform="translate(-20.25,-0.625)" style="color:#000;display:inline;overflow:visible;visibility:visible;fill:#000;fill-opacity:1;fill-rule:evenodd;stroke:none;stroke-width:.99999946;marker:none" rx="2.375"/></g><circle id="path11060" style="color:#000;display:inline;overflow:visible;visibility:visible;opacity:.67721522;fill:none;stroke:#fff;stroke-width:.50510627;stroke-linecap:round;stroke-linejoin:round;stroke-miterlimit:4;stroke-dasharray:none;stroke-dashoffset:0;stroke-opacity:1;marker:none" cx="31.113" cy="19.009" r="8.662" transform="matrix(1.979782,0,0,1.979782,310.84918,892.69186)"/><path style="color:#000;display:inline;overflow:visible;visibility:visible;opacity:.36000001;fill:#fff;fill-opacity:1;fill-rule:nonzero;stroke:none;stroke-width:1;marker:none" id="path11062" d="m 378.83789,935.99156 c -1.48898,2.57898 -3.22998,4.43762 -6.32921,4.43762 -3.01107,0 -5.21532,-2.14214 -6.59099,-4.52488 1.25843,1.50845 3.10135,3.24124 6.4601,3.24124 4.01319,0 4.7149,-1.43487 6.4601,-3.15398 z"/><path id="path11064" d="m 378.83789,935.64252 c -1.48898,2.57898 -3.22998,4.43763 -6.32921,4.43763 -3.01107,0 -5.21532,-2.14214 -6.59099,-4.52489 1.25843,1.50845 3.10135,3.24124 6.4601,3.24124 4.01319,0 4.7149,-1.43487 6.4601,-3.15398 z" style="fill:url(#radialGradient11152);fill-rule:nonzero;stroke:none"/><g style="stroke:#414141;stroke-opacity:1" id="g11066" transform="translate(348.55546,909.96932)"><circle style="color:#000;display:inline;overflow:visible;visibility:visible;fill:none;stroke:#414141;stroke-width:.99999946;stroke-linecap:round;stroke-linejoin:round;stroke-miterlimit:4;stroke-dasharray:none;stroke-dashoffset:0;stroke-opacity:1;marker:none" id="path11068" cx="11.49" cy="12.468" r="9.546"/><circle id="path11070" style="color:#000;display:inline;overflow:visible;visibility:visible;fill:none;stroke:#414141;stroke-width:.99999946;stroke-linecap:round;stroke-linejoin:round;stroke-miterlimit:4;stroke-dasharray:none;stroke-dashoffset:0;stroke-opacity:1;marker:none" cx="11.49" cy="12.468" r="9.546" transform="translate(24.57196,0)"/><path transform="matrix(-0.40175,-0.479532,0.479532,-0.40175,22.40521,22.90045)" style="color:#000;display:inline;overflow:visible;visibility:visible;fill:none;stroke:#414141;stroke-width:1.59850872;stroke-linecap:round;stroke-linejoin:round;stroke-miterlimit:4;stroke-dasharray:none;stroke-dashoffset:0;stroke-opacity:1;marker:none" id="path11072" d="m 21.036428,12.467883 a 9.5459423,9.5459423 0 0 1 -7.821452,9.388884"/></g><circle style="color:#000;visibility:visible;fill:url(#radialGradient11154);fill-opacity:1;fill-rule:evenodd;stroke:#3063a3;stroke-width:.968844;stroke-linecap:round;stroke-linejoin:miter;stroke-miterlimit:10;stroke-dashoffset:0;stroke-opacity:1;marker:none" id="path11074" cx="17.589" cy="18.478" r="8.309" transform="matrix(1.032158,0,0,1.032158,366.44153,903.35472)"/><path style="color:#000;display:inline;overflow:visible;visibility:visible;opacity:.83422457;fill:url(#radialGradient11156);fill-opacity:1;fill-rule:evenodd;stroke:none;stroke-width:1;marker:none" id="path11076" d="m 384.43457,914.9379 c -3.84313,0 -6.95519,3.11205 -6.95519,6.95519 0,1.10991 0.31018,2.13114 0.7728,3.06257 0.92424,0.34066 1.90604,0.57244 2.94809,0.57244 4.55408,0 8.19112,-3.58782 8.47216,-8.07145 -1.27743,-1.50958 -3.10695,-2.51875 -5.23786,-2.51875 z"/><circle id="path11078" cx="17.589" cy="18.478" transform="matrix(1.032158,0,0,1.032158,341.9112,903.35472)" style="color:#000;visibility:visible;fill:url(#radialGradient11158);fill-opacity:1;fill-rule:evenodd;stroke:#3063a3;stroke-width:.968844;stroke-linecap:round;stroke-linejoin:miter;stroke-miterlimit:10;stroke-dashoffset:0;stroke-opacity:1;marker:none" r="8.309"/><path id="path11080" d="m 359.90424,914.9379 c -3.84313,0 -6.95519,3.11205 -6.95519,6.95519 0,1.10991 0.31018,2.13114 0.7728,3.06257 0.92424,0.34066 1.90604,0.57244 2.94809,0.57244 4.55408,0 8.19112,-3.58782 8.47216,-8.07145 -1.27742,-1.50958 -3.10695,-2.51875 -5.23786,-2.51875 z" style="color:#000;display:inline;overflow:visible;visibility:visible;opacity:.83422457;fill:url(#radialGradient11160);fill-opacity:1;fill-rule:evenodd;stroke:none;stroke-width:1;marker:none"/></g><g id="g11094" transform="matrix(0.56219815,0,0,0.56219815,-259.44471,-476.02685)"><circle style="color:#000;display:inline;overflow:visible;visibility:visible;fill:url(#radialGradient11162);fill-opacity:1;fill-rule:evenodd;stroke:#9c8c0a;stroke-width:.48004404;stroke-linecap:round;stroke-linejoin:round;stroke-miterlimit:4;stroke-dasharray:none;stroke-dashoffset:0;stroke-opacity:1;marker:none" id="path11096" cx="31.113" cy="19.009" r="8.662" transform="matrix(2.083142,0,0,2.083142,424.45285,890.72708)"/><circle id="path11098" style="color:#000;display:inline;overflow:visible;visibility:visible;opacity:.67721522;fill:none;stroke:#fff;stroke-width:.50510627;stroke-linecap:round;stroke-linejoin:round;stroke-miterlimit:4;stroke-dasharray:none;stroke-dashoffset:0;stroke-opacity:1;marker:none" cx="31.113" cy="19.009" r="8.662" transform="matrix(1.979782,0,0,1.979782,427.66872,892.69186)"/><g id="g11100" transform="matrix(1,0,0,0.79220779,465.35356,915.73049)"><path id="path11102" d="m 21.398158,15.321428 c 0,2.5 -1.125,4.5 -2.5,4.5 -1.375,0 -2.625,-2 -2.625,-4.5 0,-2.5 1.125,-4.5 2.5,-4.5 1.375,0 2.5,2 2.5,4.5 l 0.125,0 z" style="opacity:.36000001;fill:#fff;fill-rule:nonzero;stroke:none"/><path id="path11104" d="m 30.688512,15.321428 c 0,2.5 -1.125,4.5 -2.5,4.5 -1.375,0 -2.5,-2 -2.5,-4.5 0,-2.5 1.125,-4.5 2.5,-4.5 1.375,0 2.5,2 2.5,4.5 z" style="opacity:.36000001;fill:#fff;fill-rule:nonzero;stroke:none"/><path id="path11106" d="m 21.398158,14.696428 c 0,2.5 -1.125,4.5 -2.5,4.5 -1.375,0 -2.5,-2 -2.5,-4.5 0,-2.5 1.125,-4.5 2.5,-4.5 1.375,0 2.5,2 2.5,4.5 z" style="fill:#000;fill-rule:nonzero;stroke:none"/><path id="path11108" d="m 30.688512,14.696428 c 0,2.5 -1.125,4.5 -2.5,4.5 -1.375,0 -2.5,-2 -2.5,-4.5 0,-2.5 1.125,-4.5 2.5,-4.5 1.375,0 2.5,2 2.5,4.5 z" style="fill:#000;fill-rule:nonzero;stroke:none"/></g><g id="g11110" transform="translate(66.887227,0)"><path id="path11112" d="m 428.83789,935.99156 c -1.48898,2.57898 -3.22998,4.43762 -6.32921,4.43762 -3.01107,0 -5.21532,-2.14214 -6.59099,-4.52488 1.25843,1.50845 3.10135,3.24124 6.4601,3.24124 4.01319,0 4.7149,-1.43487 6.4601,-3.15398 z" style="color:#000;display:inline;overflow:visible;visibility:visible;opacity:.36000001;fill:#fff;fill-opacity:1;fill-rule:nonzero;stroke:none;stroke-width:1;marker:none"/><path style="fill:url(#radialGradient11164);fill-rule:nonzero;stroke:none" id="path11114" d="m 428.83789,935.64252 c -1.48898,2.57898 -3.22998,4.43763 -6.32921,4.43763 -3.01107,0 -5.21532,-2.14214 -6.59099,-4.52489 1.25843,1.50845 3.10135,3.24124 6.4601,3.24124 4.01319,0 4.7149,-1.43487 6.4601,-3.15398 z"/></g><g id="g11116" transform="matrix(0.78428658,0,0,0.78428658,103.22656,231.02279)"><path style="fill:#729fcf;fill-opacity:1;stroke:#204a87;stroke-width:1.27504408;stroke-miterlimit:4;stroke-dasharray:none;stroke-opacity:1" id="path11118" d="m 491.66626,856.95629 c -2.77254,0.0389 -5.28693,0.71069 -7.51847,1.83944 -1.09275,2.15183 -4.69058,4.70974 -6.16533,4.98193 -2.89978,3.45927 -4.78023,7.80348 -5.4935,11.98006 -4.4e-4,0.003 4.4e-4,0.005 0,0.008 -1.18636,1.54972 -1.69001,3.3966 -1.37735,5.53256 0.0852,0.58229 6.04701,2.82955 8.18464,3.55678 4.63482,1.57677 22.94826,1.34715 25.1295,0.45825 1.81105,-0.73805 8.6858,-2.40146 8.8919,-3.78075 0.30555,-2.04483 -0.14484,-3.8412 -1.2306,-5.37294 -0.009,-0.0556 -0.0185,-0.11148 -0.0283,-0.16735 -0.78126,-4.43886 -2.84736,-8.88902 -5.94264,-12.36918 -2.09381,-0.21743 -6.13962,-3.57636 -7.11943,-5.2237 -2.15265,-0.92097 -4.52181,-1.4428 -7.07552,-1.4428 -0.0853,0 -0.17004,-10e-4 -0.25488,0 z"/><path style="opacity:.59444424;fill:url(#radialGradient11166);fill-opacity:1;stroke:none" id="path11120" d="m 491.10726,858.55735 c -2.32956,0.11657 -4.44097,0.72504 -6.34375,1.6875 -1.01073,1.99031 -4.3547,4.37324 -5.71875,4.625 -2.68211,3.19961 -4.40278,7.19943 -5.0625,11.0625 -4.1e-4,0.002 4e-4,0.0289 0,0.0313 -1.09731,1.43339 -1.35269,2.64312 -1.35269,2.64312 4.92041,2.09044 7.53627,-0.83848 14.21353,-3.06959 12.59928,1.92314 18.74834,1.00445 22.51416,-3.66728 0.007,-0.009 -0.004,-0.0209 0,-0.0313 -0.99119,-2.58283 -2.43227,-5.04611 -4.28125,-7.125 -1.93664,-0.20111 -5.6875,-3.28881 -6.59375,-4.8125 -1.99107,-0.85184 -4.16923,-1.34375 -6.53125,-1.34375 -0.0789,0 -0.17153,-0.001 -0.25,0 -0.20035,0.003 -0.39633,-0.01 -0.59375,0 z"/><path style="fill:url(#radialGradient11168);fill-opacity:1;fill-rule:evenodd;stroke:none" id="path11122" d="m 503.20507,863.45441 2.50088,1.12539 c 0,0 -3.58403,4.8221 -6.66901,8.48494 1.031,-3.84776 4.18897,-9.61033 4.16813,-9.61033 z"/><path style="fill:url(#radialGradient11170);fill-opacity:1;fill-rule:evenodd;stroke:none" id="path11124" d="m 484.38594,859.93233 c 0.78468,4.7408 6.50229,11.48599 6.00212,12.00701 -1.86547,-1.86547 -7.0804,-6.84822 -8.00282,-9.92294 0,-0.0834 2.0007,-2.06323 2.0007,-2.08407 z"/><path style="fill:url(#radialGradient11172);fill-opacity:1;fill-rule:evenodd;stroke:none" id="path11126" d="m 498.72433,859.59888 c -1.76764,7.14271 -4.2515,11.25674 -4.2515,11.25674 0,0 6.33556,-8.75586 6.33556,-9.17267 0,0 -1.58389,-1.50053 -2.08406,-2.08407 z"/><path style="fill:url(#radialGradient11174);fill-opacity:1;fill-rule:evenodd;stroke:none" id="path11128" d="m 484.6956,879.94492 -0.0447,-6.6717 14.49372,0 1.64261,-0.8809 -16.93147,0 0.0447,7.41826 0.79514,0.13434 z"/><path style="fill:#204a87;fill-opacity:1;fill-rule:evenodd;stroke:none" id="path11130" d="m 499.557,873.21093 0.0817,6.83544 0.68615,-0.1497 0.012,-7.56664 -0.77981,0.8809 z"/><path style="opacity:.66666667;fill:url(#radialGradient11176);fill-opacity:1;fill-rule:evenodd;stroke:none" id="path11132" d="m 512.14319,878.56909 c -2.98867,1.7349 -37.55411,1.79027 -39.51362,0.0377 -0.006,0.75455 -0.98869,1.92388 -0.28189,2.27353 4.04915,2.00299 9.6211,4.19664 24.46108,3.91207 5.22138,-0.10013 12.39267,-1.5066 15.19384,-3.37817 0.76729,-1.47417 0.14055,-2.84506 0.14055,-2.84506 z"/></g></g><rect id="rect3105" width="7" height="4" x="32.5" y="15" rx="2" ry="2" style="fill:#ad7fa8;stroke:#555753;stroke-width:.99999994;stroke-linecap:round;stroke-linejoin:round;stroke-miterlimit:4;stroke-dasharray:none"/><rect style="fill:#ad7fa8;stroke:#555753;stroke-width:.99999994;stroke-linecap:round;stroke-linejoin:round;stroke-miterlimit:4;stroke-dasharray:none" id="rect3107" width="14" height="4" x="32.5" y="42.424" rx="2" ry="2"/><rect id="rect3109" width="19" height="4" x="40.5" y="15" rx="2" ry="2" style="fill:#ad7fa8;stroke:#555753;stroke-width:.99999994;stroke-linecap:round;stroke-linejoin:round;stroke-miterlimit:4;stroke-dasharray:none"/><rect style="fill:#ad7fa8;stroke:#555753;stroke-width:1;stroke-linecap:round;stroke-linejoin:round;stroke-miterlimit:4;stroke-dasharray:none" id="rect3111" width="12" height="4" x="47.5" y="42.424" rx="2" ry="2"/></svg>