<svg xmlns="http://www.w3.org/2000/svg" xmlns:svg="http://www.w3.org/2000/svg" xmlns:xlink="http://www.w3.org/1999/xlink" id="svg2" width="64" height="64" version="1.1"><metadata id="metadata7"/><defs id="defs5"><linearGradient id="linearGradient3889"><stop style="stop-color:#fff;stop-opacity:1" id="stop3891" offset="0"/><stop style="stop-color:#f7f7f7;stop-opacity:1" id="stop3893" offset="1"/></linearGradient><linearGradient id="linearGradient3863"><stop id="stop3879" offset="0" style="stop-color:#fff;stop-opacity:1"/><stop style="stop-color:#eeeeec;stop-opacity:1" id="stop3867" offset="1"/></linearGradient><linearGradient id="linearGradient3855"><stop style="stop-color:#eeeeec;stop-opacity:1" id="stop3857" offset="0"/><stop style="stop-color:#eeeeec;stop-opacity:0" id="stop3859" offset="1"/></linearGradient><linearGradient id="linearGradient3063"><stop style="stop-color:#fff;stop-opacity:1" id="stop3065" offset="0"/><stop style="stop-color:#fff;stop-opacity:0" id="stop3067" offset="1"/></linearGradient><linearGradient id="linearGradient4975" x1="34.893" x2="45.919" y1="36.423" y2="48.548" gradientTransform="translate(-18.01785,2.428811)" gradientUnits="userSpaceOnUse" xlink:href="#linearGradient1322"/><linearGradient id="linearGradient1322"><stop id="stop1324" offset="0" style="stop-color:#729fcf"/><stop id="stop1326" offset="1" style="stop-color:#5187d6;stop-opacity:1"/></linearGradient><linearGradient id="linearGradient7922" x1="16.875" x2="27.901" y1="22.852" y2="34.977" gradientTransform="translate(-1.9043922e-7,16.000001)" gradientUnits="userSpaceOnUse" xlink:href="#linearGradient7916"/><linearGradient id="linearGradient7916"><stop style="stop-color:#fff;stop-opacity:1" id="stop7918" offset="0"/><stop style="stop-color:#fff;stop-opacity:.34020618" id="stop7920" offset="1"/></linearGradient><radialGradient id="radialGradient2097" cx="23.071" cy="35.127" r="10.319" fx="23.071" fy="35.127" gradientTransform="matrix(0.914812,0.01265023,-0.00821502,0.213562,2.253914,27.18889)" gradientUnits="userSpaceOnUse" xlink:href="#linearGradient2091"/><linearGradient id="linearGradient2091"><stop style="stop-color:#000;stop-opacity:1" id="stop2093" offset="0"/><stop style="stop-color:#000;stop-opacity:0" id="stop2095" offset="1"/></linearGradient><radialGradient id="radialGradient3083" cx="23.071" cy="35.127" r="10.319" fx="23.071" fy="35.127" gradientTransform="matrix(0.914812,0.01265023,-0.00821502,0.213562,2.253914,27.18889)" gradientUnits="userSpaceOnUse" xlink:href="#linearGradient2091"/><radialGradient id="radialGradient3037" cx="23.071" cy="35.127" r="10.319" fx="23.071" fy="35.127" gradientTransform="matrix(0.914812,0.01265023,-0.00821502,0.213562,2.253914,27.18889)" gradientUnits="userSpaceOnUse" xlink:href="#linearGradient2091"/><linearGradient id="linearGradient2667"><stop id="stop2669" offset="0" style="stop-color:#fff;stop-opacity:1"/><stop id="stop2671" offset="1" style="stop-color:#fcfcff;stop-opacity:0"/></linearGradient><radialGradient id="radialGradient4179" cx="31.113" cy="19.009" r="8.662" fx="31.113" fy="19.009" gradientUnits="userSpaceOnUse" xlink:href="#linearGradient3816"/><linearGradient id="linearGradient3816"><stop style="stop-color:#000;stop-opacity:1" id="stop3818" offset="0"/><stop style="stop-color:#000;stop-opacity:0" id="stop3820" offset="1"/></linearGradient><radialGradient id="radialGradient4169" cx="28.09" cy="27.203" r="13.565" fx="28.09" fy="27.203" gradientTransform="matrix(1.297564,0,0,0.884831,-8.358505,4.940469)" gradientUnits="userSpaceOnUse" xlink:href="#linearGradient4163"/><linearGradient id="linearGradient4163"><stop style="stop-color:#3b74bc;stop-opacity:1" id="stop4165" offset="0"/><stop style="stop-color:#2d5990;stop-opacity:1" id="stop4167" offset="1"/></linearGradient><linearGradient id="linearGradient3824"><stop style="stop-color:#fff;stop-opacity:1" id="stop3826" offset="0"/><stop style="stop-color:#c9c9c9;stop-opacity:1" id="stop3828" offset="1"/></linearGradient><radialGradient id="radialGradient3822" cx="31.113" cy="19.009" r="8.662" fx="31.113" fy="19.009" gradientUnits="userSpaceOnUse" xlink:href="#linearGradient3816"/><radialGradient id="radialGradient4171" cx="29.345" cy="17.064" r="9.162" fx="29.345" fy="17.064" gradientTransform="matrix(0.787998,0,0,0.787998,6.221198,3.617627)" gradientUnits="userSpaceOnUse" xlink:href="#linearGradient3800"/><linearGradient id="linearGradient3800"><stop style="stop-color:#f4d9b1;stop-opacity:1" id="stop3802" offset="0"/><stop style="stop-color:#df9725;stop-opacity:1" id="stop3804" offset="1"/></linearGradient><linearGradient id="linearGradient4362" x1="20.662" x2="22.627" y1="35.818" y2="36.218" gradientTransform="matrix(0.983375,0.181588,-0.181588,0.983375,6.231716,-2.651466)" gradientUnits="userSpaceOnUse" xlink:href="#linearGradient4356"/><linearGradient id="linearGradient4356"><stop style="stop-color:#000;stop-opacity:1" id="stop4358" offset="0"/><stop style="stop-color:#000;stop-opacity:0" id="stop4360" offset="1"/></linearGradient><linearGradient id="linearGradient4366" x1="22.687" x2="21.408" y1="36.39" y2="35.74" gradientTransform="matrix(-0.977685,0.210075,0.210075,0.977685,55.1096,-3.945209)" gradientUnits="userSpaceOnUse" xlink:href="#linearGradient4356"/><linearGradient id="linearGradient3117" x1="22.687" x2="21.408" y1="36.39" y2="35.74" gradientTransform="matrix(-0.977685,0.210075,0.210075,0.977685,55.1096,-3.945209)" gradientUnits="userSpaceOnUse" xlink:href="#linearGradient4356"/><linearGradient id="linearGradient3175" x1="11.492" x2="17.199" y1="1.654" y2="26.729" gradientTransform="matrix(1.5387857,0,0,1.1127858,-2.3417129,0.74860944)" gradientUnits="userSpaceOnUse" xlink:href="#linearGradient2667"/><radialGradient id="radialGradient3180" cx="29.345" cy="17.064" r="9.162" fx="29.345" fy="17.064" gradientTransform="matrix(0.787998,0,0,0.787998,6.221198,3.617627)" gradientUnits="userSpaceOnUse" xlink:href="#linearGradient3800"/></defs><rect style="fill:#2e3436;fill-opacity:1;fill-rule:evenodd;stroke:#2e3436;stroke-width:1.30630302;stroke-linecap:round;stroke-linejoin:round;stroke-miterlimit:4;stroke-opacity:1;stroke-dasharray:none;stroke-dashoffset:0" id="rect1314" width="48.694" height="38.104" x="4.653" y="5.243" rx="2.16" ry="2.16"/><g id="g3166"><rect id="rect2271" width="21" height="2" x="10.694" y="11.298" style="opacity:.17045456;color:#000;fill:#000;fill-opacity:1;fill-rule:evenodd;stroke:none;stroke-width:1;marker:none;visibility:visible;display:inline;overflow:visible"/><rect style="opacity:.17045456;color:#000;fill:#000;fill-opacity:1;fill-rule:evenodd;stroke:none;stroke-width:1;marker:none;visibility:visible;display:inline;overflow:visible" id="rect2273" width="20" height="2" x="10.694" y="15.298"/><rect id="rect2275" width="18" height="2" x="10.694" y="19.298" style="opacity:.17045456;color:#000;fill:#000;fill-opacity:1;fill-rule:evenodd;stroke:none;stroke-width:1;marker:none;visibility:visible;display:inline;overflow:visible"/><rect style="opacity:.17045456;color:#000;fill:#000;fill-opacity:1;fill-rule:evenodd;stroke:none;stroke-width:1;marker:none;visibility:visible;display:inline;overflow:visible" id="rect2277" width="21" height="2" x="10.694" y="23.298"/><rect id="rect2279" width="13" height="2" x="10.694" y="27.298" style="opacity:.17045456;color:#000;fill:#000;fill-opacity:1;fill-rule:evenodd;stroke:none;stroke-width:1;marker:none;visibility:visible;display:inline;overflow:visible"/></g><path style="opacity:.12999998;fill:url(#linearGradient3175);fill-opacity:1;fill-rule:evenodd;stroke:none" id="path2443" d="m 8.4971418,7.1682495 c -0.6513936,0 -1.9591605,0.2361901 -1.9591605,1.2741368 L 6.6849317,28.953914 C 28.683268,27.757506 24.267747,18.700855 51.287142,14.164142 L 51.209049,8.7719841 C 51.111625,7.3747573 50.537698,7.242085 49.204711,7.2503015 L 8.4971418,7.1682495 z"/><rect style="fill:none;stroke:#000;stroke-width:2.62584519;stroke-linecap:round;stroke-linejoin:round;stroke-miterlimit:4;stroke-opacity:1;stroke-dasharray:none;stroke-dashoffset:0" id="rect1340" width="44.674" height="34.211" x="6.614" y="7.209" rx=".155" ry=".155"/><g transform="matrix(1.4629797,0,0,1.4629797,-2.8343559,-1.0115903)" style="display:inline" id="g3048"><path id="path4306" d="m 39.774755,19.008621 c 0,4.783923 -3.878135,8.662058 -8.662057,8.662058 -4.783923,0 -8.662058,-3.878135 -8.662058,-8.662058 0,-4.783922 3.878135,-8.662058 8.662058,-8.662058 4.783922,0 8.662057,3.878136 8.662057,8.662058 z" style="color:#000;fill:url(#radialGradient4179);fill-opacity:1;fill-rule:evenodd;stroke:none;stroke-width:1px;marker:none;visibility:visible;display:inline;overflow:visible" transform="matrix(1.77551,0,0,0.583984,-24.25322,28.27856)"/><path id="path4308" d="m 25.986174,41.636039 10.606602,0 c 3.005204,0 5.980484,-1.101932 7.071067,-4.242641 1.035639,-2.982476 0.176777,-8.662058 -6.540737,-13.258252 l -12.551146,0 c -6.612617,7.363649 -6.506979,1.060041 -7.740651,1.625073 -1.113717,0.510091 -1.12459,7.592688 6.598653,4.782332 -0.776724,1.531615 -3.791358,7.395102 -3.384166,8.374369 0.556929,1.339375 2.758394,2.719119 5.940378,2.719119 z" style="color:#000;fill:url(#radialGradient4169);fill-opacity:1;fill-rule:evenodd;stroke:#204a87;stroke-width:1px;stroke-linecap:round;stroke-linejoin:round;stroke-miterlimit:4;stroke-opacity:1;stroke-dasharray:none;stroke-dashoffset:0;marker:none;visibility:visible;display:inline;overflow:visible"/><path style="color:#000;fill:#fcaf3e;fill-opacity:1;fill-rule:evenodd;stroke:#c17d11;stroke-width:5.86680937px;stroke-linecap:round;stroke-linejoin:round;stroke-miterlimit:4;stroke-opacity:1;stroke-dasharray:none;stroke-dashoffset:0;marker:none;visibility:visible;display:inline;overflow:visible" id="path3199" d="m 42.956385,19.008621 a 11.843687,8.6620579 0 1 1 -23.687374,0 11.843687,8.6620579 0 1 1 23.687374,0 z" transform="matrix(0.1114963,0.12892601,-0.12892601,0.1114963,15.090544,19.611678)"/><path style="color:#000;fill:#729fcf;fill-opacity:1;fill-rule:evenodd;stroke:none;stroke-width:1px;marker:none;visibility:visible;display:inline;overflow:visible" id="path4312" d="m 28.972721,26.786797 c 0,0 -2.151323,1.660335 -1.965991,3.660533 -2.041226,-1.800794 -2.099873,-5.251524 -2.099873,-5.251524 l 4.065864,1.590991 z"/><path id="path4316" d="m 33.410795,26.786797 c 0,0 2.151323,1.660335 1.965991,3.660533 2.041226,-1.800794 2.099873,-5.251524 2.099873,-5.251524 l -4.065864,1.590991 z" style="color:#000;fill:#729fcf;fill-opacity:1;fill-rule:evenodd;stroke:none;stroke-width:1px;marker:none;visibility:visible;display:inline;overflow:visible"/><path transform="translate(-0.125,3.5)" style="color:#000;fill:url(#radialGradient3822);fill-opacity:1;fill-rule:evenodd;stroke:none;stroke-width:1px;marker:none;visibility:visible;display:inline;overflow:visible" id="path4318" d="m 39.774755,19.008621 c 0,4.783923 -3.878135,8.662058 -8.662057,8.662058 -4.783923,0 -8.662058,-3.878135 -8.662058,-8.662058 0,-4.783922 3.878135,-8.662058 8.662058,-8.662058 4.783922,0 8.662057,3.878136 8.662057,8.662058 z"/><path id="path4320" d="m 39.774755,19.008621 c 0,4.783923 -3.878135,8.662058 -8.662057,8.662058 -4.783923,0 -8.662058,-3.878135 -8.662058,-8.662058 0,-4.783922 3.878135,-8.662058 8.662058,-8.662058 4.783922,0 8.662057,3.878136 8.662057,8.662058 z" style="color:#000;fill:url(#radialGradient4171);fill-opacity:1;fill-rule:evenodd;stroke:#c17d11;stroke-width:1px;stroke-linecap:round;stroke-linejoin:round;stroke-miterlimit:4;stroke-opacity:1;stroke-dasharray:none;stroke-dashoffset:0;marker:none;visibility:visible;display:inline;overflow:visible"/><path transform="matrix(0.877095,0,0,0.877095,3.823927,2.336267)" style="opacity:.19620254;color:#000;fill:none;stroke:#fff;stroke-width:1.14012825px;stroke-linecap:round;stroke-linejoin:round;stroke-miterlimit:4;stroke-opacity:1;stroke-dasharray:none;stroke-dashoffset:0;marker:none;visibility:visible;display:inline;overflow:visible" id="path4322" d="m 39.774755,19.008621 c 0,4.783923 -3.878135,8.662058 -8.662057,8.662058 -4.783923,0 -8.662058,-3.878135 -8.662058,-8.662058 0,-4.783922 3.878135,-8.662058 8.662058,-8.662058 4.783922,0 8.662057,3.878136 8.662057,8.662058 z"/><path style="opacity:.22784807;color:#000;fill:url(#linearGradient3117);fill-opacity:1;fill-rule:evenodd;stroke:none;stroke-width:1px;marker:none;visibility:visible;display:inline;overflow:visible" id="path4364" d="m 40.757497,39.916846 c 1.231251,-0.580978 1.80438,-2.002321 1.80438,-2.002321 -0.95912,-4.042983 -3.976149,-6.842821 -3.976149,-6.842821 0,0 2.464593,6.342602 2.171769,8.845142 z"/></g><path style="fill:none;stroke:#73d216;stroke-width:2.62584519;stroke-linecap:round;stroke-linejoin:round;stroke-miterlimit:4;stroke-opacity:1;stroke-dashoffset:0" id="rect3126" d="M 21.392813,36.873434 12.005682,14.969535"/></svg>