<svg xmlns="http://www.w3.org/2000/svg" xmlns:svg="http://www.w3.org/2000/svg" id="svg2" width="156" height="156" version="1.0"><metadata id="metadata7"/><g id="g8089" transform="translate(-80,-811.36218)"><rect id="rect2165" width="30" height="30" x="100.5" y="921.862" style="fill:#babdb6;fill-opacity:1;fill-rule:nonzero;stroke:#000;stroke-width:1;stroke-linecap:round;stroke-linejoin:round;stroke-miterlimit:4;stroke-dasharray:none;stroke-opacity:1"/><rect id="rect4107" width="30" height="30" x="130.5" y="921.862" style="fill:#fff;fill-opacity:1;fill-rule:nonzero;stroke:#000;stroke-width:1;stroke-linecap:round;stroke-linejoin:round;stroke-miterlimit:4;stroke-dasharray:none;stroke-opacity:1"/><rect id="rect5078" width="30" height="30" x="160.5" y="921.862" style="fill:#babdb6;fill-opacity:1;fill-rule:nonzero;stroke:#000;stroke-width:1;stroke-linecap:round;stroke-linejoin:round;stroke-miterlimit:4;stroke-dasharray:none;stroke-opacity:1"/><rect id="rect5080" width="30" height="30" x="190.5" y="921.862" style="fill:#fff;fill-opacity:1;fill-rule:nonzero;stroke:#000;stroke-width:1;stroke-linecap:round;stroke-linejoin:round;stroke-miterlimit:4;stroke-dasharray:none;stroke-opacity:1"/><rect id="rect5082" width="30" height="30" x="130.5" y="891.862" style="fill:#babdb6;fill-opacity:1;fill-rule:nonzero;stroke:#000;stroke-width:1;stroke-linecap:round;stroke-linejoin:round;stroke-miterlimit:4;stroke-dasharray:none;stroke-opacity:1"/><rect id="rect5084" width="30" height="30" x="160.5" y="891.862" style="fill:#fff;fill-opacity:1;fill-rule:nonzero;stroke:#000;stroke-width:1;stroke-linecap:round;stroke-linejoin:round;stroke-miterlimit:4;stroke-dasharray:none;stroke-opacity:1"/><rect id="rect5086" width="30" height="30" x="100.5" y="891.862" style="fill:#fff;fill-opacity:1;fill-rule:nonzero;stroke:#000;stroke-width:1;stroke-linecap:round;stroke-linejoin:round;stroke-miterlimit:4;stroke-dasharray:none;stroke-opacity:1"/><rect id="rect5088" width="30" height="30" x="190.5" y="891.862" style="fill:#babdb6;fill-opacity:1;fill-rule:nonzero;stroke:#000;stroke-width:1;stroke-linecap:round;stroke-linejoin:round;stroke-miterlimit:4;stroke-dasharray:none;stroke-opacity:1"/><rect id="rect5090" width="30" height="30" x="100.5" y="861.862" style="fill:#babdb6;fill-opacity:1;fill-rule:nonzero;stroke:#000;stroke-width:1;stroke-linecap:round;stroke-linejoin:round;stroke-miterlimit:4;stroke-dasharray:none;stroke-opacity:1"/><rect id="rect5092" width="30" height="30" x="130.5" y="861.862" style="fill:#fff;fill-opacity:1;fill-rule:nonzero;stroke:#000;stroke-width:1;stroke-linecap:round;stroke-linejoin:round;stroke-miterlimit:4;stroke-dasharray:none;stroke-opacity:1"/><rect id="rect5094" width="30" height="30" x="160.5" y="861.862" style="fill:#babdb6;fill-opacity:1;fill-rule:nonzero;stroke:#000;stroke-width:1;stroke-linecap:round;stroke-linejoin:round;stroke-miterlimit:4;stroke-dasharray:none;stroke-opacity:1"/><rect id="rect5096" width="30" height="30" x="190.5" y="861.862" style="fill:#fff;fill-opacity:1;fill-rule:nonzero;stroke:#000;stroke-width:1;stroke-linecap:round;stroke-linejoin:round;stroke-miterlimit:4;stroke-dasharray:none;stroke-opacity:1"/><rect id="rect5098" width="30" height="30" x="130.5" y="831.862" style="fill:#babdb6;fill-opacity:1;fill-rule:nonzero;stroke:#000;stroke-width:1;stroke-linecap:round;stroke-linejoin:round;stroke-miterlimit:4;stroke-dasharray:none;stroke-opacity:1"/><rect id="rect5100" width="30" height="30" x="160.5" y="831.862" style="fill:#fff;fill-opacity:1;fill-rule:nonzero;stroke:#000;stroke-width:1;stroke-linecap:round;stroke-linejoin:round;stroke-miterlimit:4;stroke-dasharray:none;stroke-opacity:1"/><rect id="rect5102" width="30" height="30" x="100.5" y="831.862" style="fill:#fff;fill-opacity:1;fill-rule:nonzero;stroke:#000;stroke-width:1;stroke-linecap:round;stroke-linejoin:round;stroke-miterlimit:4;stroke-dasharray:none;stroke-opacity:1"/><rect id="rect5104" width="30" height="30" x="190.5" y="831.862" style="fill:#babdb6;fill-opacity:1;fill-rule:nonzero;stroke:#000;stroke-width:1;stroke-linecap:round;stroke-linejoin:round;stroke-miterlimit:4;stroke-dasharray:none;stroke-opacity:1"/></g><g id="g8075" transform="translate(0,-761.36218)"><rect id="rect5126" width="30" height="30" x="50.5" y="871.862" style="fill:none;fill-opacity:1;fill-rule:nonzero;stroke:#000;stroke-width:1;stroke-linecap:round;stroke-linejoin:round;stroke-miterlimit:4;stroke-dasharray:none;stroke-opacity:1"/><path id="path8065" d="M 65,894.0583 L 60.259168,881.36218 L 60,894.31116 L 62.432525,894.86218 L 65,894.0583 z" style="fill:#fce94f;fill-opacity:1;fill-rule:nonzero;stroke:#000;stroke-width:.99999994;stroke-linecap:round;stroke-linejoin:round;stroke-miterlimit:4;stroke-opacity:1"/><path id="path8069" d="M 66,894.0583 L 70.740832,881.36218 L 71,894.31116 L 68.567475,894.86218 L 66,894.0583 z" style="fill:#fce94f;fill-opacity:1;fill-rule:nonzero;stroke:#000;stroke-width:.99999994;stroke-linecap:round;stroke-linejoin:round;stroke-miterlimit:4;stroke-opacity:1"/><path id="path8071" d="M 62,894.04086 L 55,882.86218 L 56.843843,894.29921 L 59.352339,894.86218 L 62,894.04086 z" style="fill:#fce94f;fill-opacity:1;fill-rule:nonzero;stroke:#000;stroke-width:.99999994;stroke-linecap:round;stroke-linejoin:round;stroke-miterlimit:4;stroke-opacity:1"/><path id="path8073" d="M 69,894.04086 L 76,882.86218 L 74.156157,894.29921 L 71.647661,894.86218 L 69,894.04086 z" style="fill:#fce94f;fill-opacity:1;fill-rule:nonzero;stroke:#000;stroke-width:.99999994;stroke-linecap:round;stroke-linejoin:round;stroke-miterlimit:4;stroke-opacity:1"/><path id="path8037" d="m 37.843667,874.30286 c 0,4.9125 -2.751458,8.89488 -6.145553,8.89488 -3.394095,0 -6.145552,-3.98238 -6.145552,-8.89488 0,-4.91251 2.751457,-8.89488 6.145552,-8.89488 3.394095,0 6.145553,3.98237 6.145553,8.89488 z" transform="matrix(0.3254386,0,0,0.2248485,49.68421,684.2765)" style="fill:#fce94f;fill-opacity:1;fill-rule:nonzero;stroke:#000;stroke-width:3.69675326;stroke-linecap:round;stroke-linejoin:round;stroke-miterlimit:4;stroke-dasharray:none;stroke-opacity:1"/><path id="path8039" d="m 37.843667,874.30286 c 0,4.9125 -2.751458,8.89488 -6.145553,8.89488 -3.394095,0 -6.145552,-3.98238 -6.145552,-8.89488 0,-4.91251 2.751457,-8.89488 6.145552,-8.89488 3.394095,0 6.145553,3.98237 6.145553,8.89488 z" transform="matrix(0.3254386,0,0,0.2248485,60.68421,684.2765)" style="fill:#fce94f;fill-opacity:1;fill-rule:nonzero;stroke:#000;stroke-width:3.69675326;stroke-linecap:round;stroke-linejoin:round;stroke-miterlimit:4;stroke-dasharray:none;stroke-opacity:1"/><path id="path8041" d="m 37.843667,874.30286 c 0,4.9125 -2.751458,8.89488 -6.145553,8.89488 -3.394095,0 -6.145552,-3.98238 -6.145552,-8.89488 0,-4.91251 2.751457,-8.89488 6.145552,-8.89488 3.394095,0 6.145553,3.98237 6.145553,8.89488 z" transform="matrix(0.3254386,0,0,0.2248485,44.18421,686.2765)" style="fill:#fce94f;fill-opacity:1;fill-rule:nonzero;stroke:#000;stroke-width:3.69675326;stroke-linecap:round;stroke-linejoin:round;stroke-miterlimit:4;stroke-dasharray:none;stroke-opacity:1"/><path id="path8043" d="m 37.843667,874.30286 c 0,4.9125 -2.751458,8.89488 -6.145553,8.89488 -3.394095,0 -6.145552,-3.98238 -6.145552,-8.89488 0,-4.91251 2.751457,-8.89488 6.145552,-8.89488 3.394095,0 6.145553,3.98237 6.145553,8.89488 z" transform="matrix(0.3254386,0,0,0.2248485,66.18421,686.2765)" style="fill:#fce94f;fill-opacity:1;fill-rule:nonzero;stroke:#000;stroke-width:3.69675326;stroke-linecap:round;stroke-linejoin:round;stroke-miterlimit:4;stroke-dasharray:none;stroke-opacity:1"/><path id="path8061" d="M 68.000002,894.0957 L 65.506898,880.86221 L 63.000002,893.8597 L 65.368588,894.86221 L 68.000002,894.0957 z" style="fill:#fce94f;fill-opacity:1;fill-rule:nonzero;stroke:#000;stroke-width:1;stroke-linecap:round;stroke-linejoin:round;stroke-miterlimit:4;stroke-opacity:1"/><path id="path5124" d="m 37.843667,874.30286 c 0,4.9125 -2.751458,8.89488 -6.145553,8.89488 -3.394095,0 -6.145552,-3.98238 -6.145552,-8.89488 0,-4.91251 2.751457,-8.89488 6.145552,-8.89488 3.394095,0 6.145553,3.98237 6.145553,8.89488 z" transform="matrix(0.3254386,0,0,0.2248485,55.18421,683.2765)" style="fill:#fce94f;fill-opacity:1;fill-rule:nonzero;stroke:#000;stroke-width:3.69675326;stroke-linecap:round;stroke-linejoin:round;stroke-miterlimit:4;stroke-dasharray:none;stroke-opacity:1"/><path id="path5128" d="m 59.702156,907.57715 c 0,0.91142 -4.498573,1.65027 -10.047844,1.65027 -5.549271,0 -10.047844,-0.73885 -10.047844,-1.65027 0,-0.91142 4.498573,-1.65027 10.047844,-1.65027 5.549271,0 10.047844,0.73885 10.047844,1.65027 z" transform="matrix(0.9454765,0,0,1.2119233,18.553015,-205.05171)" style="fill:#fce94f;fill-opacity:1;fill-rule:nonzero;stroke:#000;stroke-width:.93419403;stroke-linecap:round;stroke-linejoin:round;stroke-miterlimit:4;stroke-dasharray:none;stroke-opacity:1"/></g><g id="g8107" transform="translate(-30,-821.36218)"><rect id="rect8109" width="30" height="30" x="50.5" y="871.862" style="fill:none;fill-opacity:1;fill-rule:nonzero;stroke:#000;stroke-width:1;stroke-linecap:round;stroke-linejoin:round;stroke-miterlimit:4;stroke-dasharray:none;stroke-opacity:1"/><path id="path8111" d="M 65,894.0583 L 60.259168,881.36218 L 60,894.31116 L 62.432525,894.86218 L 65,894.0583 z" style="fill:#fce94f;fill-opacity:1;fill-rule:nonzero;stroke:#000;stroke-width:.99999994;stroke-linecap:round;stroke-linejoin:round;stroke-miterlimit:4;stroke-opacity:1"/><path id="path8113" d="M 66,894.0583 L 70.740832,881.36218 L 71,894.31116 L 68.567475,894.86218 L 66,894.0583 z" style="fill:#fce94f;fill-opacity:1;fill-rule:nonzero;stroke:#000;stroke-width:.99999994;stroke-linecap:round;stroke-linejoin:round;stroke-miterlimit:4;stroke-opacity:1"/><path id="path8115" d="M 62,894.04086 L 55,882.86218 L 56.843843,894.29921 L 59.352339,894.86218 L 62,894.04086 z" style="fill:#fce94f;fill-opacity:1;fill-rule:nonzero;stroke:#000;stroke-width:.99999994;stroke-linecap:round;stroke-linejoin:round;stroke-miterlimit:4;stroke-opacity:1"/><path id="path8117" d="M 69,894.04086 L 76,882.86218 L 74.156157,894.29921 L 71.647661,894.86218 L 69,894.04086 z" style="fill:#fce94f;fill-opacity:1;fill-rule:nonzero;stroke:#000;stroke-width:.99999994;stroke-linecap:round;stroke-linejoin:round;stroke-miterlimit:4;stroke-opacity:1"/><path id="path8119" d="m 37.843667,874.30286 c 0,4.9125 -2.751458,8.89488 -6.145553,8.89488 -3.394095,0 -6.145552,-3.98238 -6.145552,-8.89488 0,-4.91251 2.751457,-8.89488 6.145552,-8.89488 3.394095,0 6.145553,3.98237 6.145553,8.89488 z" transform="matrix(0.3254386,0,0,0.2248485,49.68421,684.2765)" style="fill:#fce94f;fill-opacity:1;fill-rule:nonzero;stroke:#000;stroke-width:3.69675326;stroke-linecap:round;stroke-linejoin:round;stroke-miterlimit:4;stroke-dasharray:none;stroke-opacity:1"/><path id="path8121" d="m 37.843667,874.30286 c 0,4.9125 -2.751458,8.89488 -6.145553,8.89488 -3.394095,0 -6.145552,-3.98238 -6.145552,-8.89488 0,-4.91251 2.751457,-8.89488 6.145552,-8.89488 3.394095,0 6.145553,3.98237 6.145553,8.89488 z" transform="matrix(0.3254386,0,0,0.2248485,60.68421,684.2765)" style="fill:#fce94f;fill-opacity:1;fill-rule:nonzero;stroke:#000;stroke-width:3.69675326;stroke-linecap:round;stroke-linejoin:round;stroke-miterlimit:4;stroke-dasharray:none;stroke-opacity:1"/><path id="path8123" d="m 37.843667,874.30286 c 0,4.9125 -2.751458,8.89488 -6.145553,8.89488 -3.394095,0 -6.145552,-3.98238 -6.145552,-8.89488 0,-4.91251 2.751457,-8.89488 6.145552,-8.89488 3.394095,0 6.145553,3.98237 6.145553,8.89488 z" transform="matrix(0.3254386,0,0,0.2248485,44.18421,686.2765)" style="fill:#fce94f;fill-opacity:1;fill-rule:nonzero;stroke:#000;stroke-width:3.69675326;stroke-linecap:round;stroke-linejoin:round;stroke-miterlimit:4;stroke-dasharray:none;stroke-opacity:1"/><path id="path8125" d="m 37.843667,874.30286 c 0,4.9125 -2.751458,8.89488 -6.145553,8.89488 -3.394095,0 -6.145552,-3.98238 -6.145552,-8.89488 0,-4.91251 2.751457,-8.89488 6.145552,-8.89488 3.394095,0 6.145553,3.98237 6.145553,8.89488 z" transform="matrix(0.3254386,0,0,0.2248485,66.18421,686.2765)" style="fill:#fce94f;fill-opacity:1;fill-rule:nonzero;stroke:#000;stroke-width:3.69675326;stroke-linecap:round;stroke-linejoin:round;stroke-miterlimit:4;stroke-dasharray:none;stroke-opacity:1"/><path id="path8127" d="M 68.000002,894.0957 L 65.506898,880.86221 L 63.000002,893.8597 L 65.368588,894.86221 L 68.000002,894.0957 z" style="fill:#fce94f;fill-opacity:1;fill-rule:nonzero;stroke:#000;stroke-width:1;stroke-linecap:round;stroke-linejoin:round;stroke-miterlimit:4;stroke-opacity:1"/><path id="path8129" d="m 37.843667,874.30286 c 0,4.9125 -2.751458,8.89488 -6.145553,8.89488 -3.394095,0 -6.145552,-3.98238 -6.145552,-8.89488 0,-4.91251 2.751457,-8.89488 6.145552,-8.89488 3.394095,0 6.145553,3.98237 6.145553,8.89488 z" transform="matrix(0.3254386,0,0,0.2248485,55.18421,683.2765)" style="fill:#fce94f;fill-opacity:1;fill-rule:nonzero;stroke:#000;stroke-width:3.69675326;stroke-linecap:round;stroke-linejoin:round;stroke-miterlimit:4;stroke-dasharray:none;stroke-opacity:1"/><path id="path8131" d="m 59.702156,907.57715 c 0,0.91142 -4.498573,1.65027 -10.047844,1.65027 -5.549271,0 -10.047844,-0.73885 -10.047844,-1.65027 0,-0.91142 4.498573,-1.65027 10.047844,-1.65027 5.549271,0 10.047844,0.73885 10.047844,1.65027 z" transform="matrix(0.9454765,0,0,1.2119233,18.553015,-205.05171)" style="fill:#fce94f;fill-opacity:1;fill-rule:nonzero;stroke:#000;stroke-width:.93419403;stroke-linecap:round;stroke-linejoin:round;stroke-miterlimit:4;stroke-dasharray:none;stroke-opacity:1"/></g><g id="g8133" transform="translate(60,-791.36218)"><rect id="rect8135" width="30" height="30" x="50.5" y="871.862" style="fill:none;fill-opacity:1;fill-rule:nonzero;stroke:#000;stroke-width:1;stroke-linecap:round;stroke-linejoin:round;stroke-miterlimit:4;stroke-dasharray:none;stroke-opacity:1"/><path id="path8137" d="M 65,894.0583 L 60.259168,881.36218 L 60,894.31116 L 62.432525,894.86218 L 65,894.0583 z" style="fill:#fce94f;fill-opacity:1;fill-rule:nonzero;stroke:#000;stroke-width:.99999994;stroke-linecap:round;stroke-linejoin:round;stroke-miterlimit:4;stroke-opacity:1"/><path id="path8139" d="M 66,894.0583 L 70.740832,881.36218 L 71,894.31116 L 68.567475,894.86218 L 66,894.0583 z" style="fill:#fce94f;fill-opacity:1;fill-rule:nonzero;stroke:#000;stroke-width:.99999994;stroke-linecap:round;stroke-linejoin:round;stroke-miterlimit:4;stroke-opacity:1"/><path id="path8141" d="M 62,894.04086 L 55,882.86218 L 56.843843,894.29921 L 59.352339,894.86218 L 62,894.04086 z" style="fill:#fce94f;fill-opacity:1;fill-rule:nonzero;stroke:#000;stroke-width:.99999994;stroke-linecap:round;stroke-linejoin:round;stroke-miterlimit:4;stroke-opacity:1"/><path id="path8143" d="M 69,894.04086 L 76,882.86218 L 74.156157,894.29921 L 71.647661,894.86218 L 69,894.04086 z" style="fill:#fce94f;fill-opacity:1;fill-rule:nonzero;stroke:#000;stroke-width:.99999994;stroke-linecap:round;stroke-linejoin:round;stroke-miterlimit:4;stroke-opacity:1"/><path id="path8145" d="m 37.843667,874.30286 c 0,4.9125 -2.751458,8.89488 -6.145553,8.89488 -3.394095,0 -6.145552,-3.98238 -6.145552,-8.89488 0,-4.91251 2.751457,-8.89488 6.145552,-8.89488 3.394095,0 6.145553,3.98237 6.145553,8.89488 z" transform="matrix(0.3254386,0,0,0.2248485,49.68421,684.2765)" style="fill:#fce94f;fill-opacity:1;fill-rule:nonzero;stroke:#000;stroke-width:3.69675326;stroke-linecap:round;stroke-linejoin:round;stroke-miterlimit:4;stroke-dasharray:none;stroke-opacity:1"/><path id="path8147" d="m 37.843667,874.30286 c 0,4.9125 -2.751458,8.89488 -6.145553,8.89488 -3.394095,0 -6.145552,-3.98238 -6.145552,-8.89488 0,-4.91251 2.751457,-8.89488 6.145552,-8.89488 3.394095,0 6.145553,3.98237 6.145553,8.89488 z" transform="matrix(0.3254386,0,0,0.2248485,60.68421,684.2765)" style="fill:#fce94f;fill-opacity:1;fill-rule:nonzero;stroke:#000;stroke-width:3.69675326;stroke-linecap:round;stroke-linejoin:round;stroke-miterlimit:4;stroke-dasharray:none;stroke-opacity:1"/><path id="path8149" d="m 37.843667,874.30286 c 0,4.9125 -2.751458,8.89488 -6.145553,8.89488 -3.394095,0 -6.145552,-3.98238 -6.145552,-8.89488 0,-4.91251 2.751457,-8.89488 6.145552,-8.89488 3.394095,0 6.145553,3.98237 6.145553,8.89488 z" transform="matrix(0.3254386,0,0,0.2248485,44.18421,686.2765)" style="fill:#fce94f;fill-opacity:1;fill-rule:nonzero;stroke:#000;stroke-width:3.69675326;stroke-linecap:round;stroke-linejoin:round;stroke-miterlimit:4;stroke-dasharray:none;stroke-opacity:1"/><path id="path8151" d="m 37.843667,874.30286 c 0,4.9125 -2.751458,8.89488 -6.145553,8.89488 -3.394095,0 -6.145552,-3.98238 -6.145552,-8.89488 0,-4.91251 2.751457,-8.89488 6.145552,-8.89488 3.394095,0 6.145553,3.98237 6.145553,8.89488 z" transform="matrix(0.3254386,0,0,0.2248485,66.18421,686.2765)" style="fill:#fce94f;fill-opacity:1;fill-rule:nonzero;stroke:#000;stroke-width:3.69675326;stroke-linecap:round;stroke-linejoin:round;stroke-miterlimit:4;stroke-dasharray:none;stroke-opacity:1"/><path id="path8153" d="M 68.000002,894.0957 L 65.506898,880.86221 L 63.000002,893.8597 L 65.368588,894.86221 L 68.000002,894.0957 z" style="fill:#fce94f;fill-opacity:1;fill-rule:nonzero;stroke:#000;stroke-width:1;stroke-linecap:round;stroke-linejoin:round;stroke-miterlimit:4;stroke-opacity:1"/><path id="path8155" d="m 37.843667,874.30286 c 0,4.9125 -2.751458,8.89488 -6.145553,8.89488 -3.394095,0 -6.145552,-3.98238 -6.145552,-8.89488 0,-4.91251 2.751457,-8.89488 6.145552,-8.89488 3.394095,0 6.145553,3.98237 6.145553,8.89488 z" transform="matrix(0.3254386,0,0,0.2248485,55.18421,683.2765)" style="fill:#fce94f;fill-opacity:1;fill-rule:nonzero;stroke:#000;stroke-width:3.69675326;stroke-linecap:round;stroke-linejoin:round;stroke-miterlimit:4;stroke-dasharray:none;stroke-opacity:1"/><path id="path8157" d="m 59.702156,907.57715 c 0,0.91142 -4.498573,1.65027 -10.047844,1.65027 -5.549271,0 -10.047844,-0.73885 -10.047844,-1.65027 0,-0.91142 4.498573,-1.65027 10.047844,-1.65027 5.549271,0 10.047844,0.73885 10.047844,1.65027 z" transform="matrix(0.9454765,0,0,1.2119233,18.553015,-205.05171)" style="fill:#fce94f;fill-opacity:1;fill-rule:nonzero;stroke:#000;stroke-width:.93419403;stroke-linecap:round;stroke-linejoin:round;stroke-miterlimit:4;stroke-dasharray:none;stroke-opacity:1"/></g><g id="g8159" transform="translate(30,-851.36218)"><rect id="rect8161" width="30" height="30" x="50.5" y="871.862" style="fill:none;fill-opacity:1;fill-rule:nonzero;stroke:#000;stroke-width:1;stroke-linecap:round;stroke-linejoin:round;stroke-miterlimit:4;stroke-dasharray:none;stroke-opacity:1"/><path id="path8163" d="M 65,894.0583 L 60.259168,881.36218 L 60,894.31116 L 62.432525,894.86218 L 65,894.0583 z" style="fill:#fce94f;fill-opacity:1;fill-rule:nonzero;stroke:#000;stroke-width:.99999994;stroke-linecap:round;stroke-linejoin:round;stroke-miterlimit:4;stroke-opacity:1"/><path id="path8165" d="M 66,894.0583 L 70.740832,881.36218 L 71,894.31116 L 68.567475,894.86218 L 66,894.0583 z" style="fill:#fce94f;fill-opacity:1;fill-rule:nonzero;stroke:#000;stroke-width:.99999994;stroke-linecap:round;stroke-linejoin:round;stroke-miterlimit:4;stroke-opacity:1"/><path id="path8167" d="M 62,894.04086 L 55,882.86218 L 56.843843,894.29921 L 59.352339,894.86218 L 62,894.04086 z" style="fill:#fce94f;fill-opacity:1;fill-rule:nonzero;stroke:#000;stroke-width:.99999994;stroke-linecap:round;stroke-linejoin:round;stroke-miterlimit:4;stroke-opacity:1"/><path id="path8169" d="M 69,894.04086 L 76,882.86218 L 74.156157,894.29921 L 71.647661,894.86218 L 69,894.04086 z" style="fill:#fce94f;fill-opacity:1;fill-rule:nonzero;stroke:#000;stroke-width:.99999994;stroke-linecap:round;stroke-linejoin:round;stroke-miterlimit:4;stroke-opacity:1"/><path id="path8171" d="m 37.843667,874.30286 c 0,4.9125 -2.751458,8.89488 -6.145553,8.89488 -3.394095,0 -6.145552,-3.98238 -6.145552,-8.89488 0,-4.91251 2.751457,-8.89488 6.145552,-8.89488 3.394095,0 6.145553,3.98237 6.145553,8.89488 z" transform="matrix(0.3254386,0,0,0.2248485,49.68421,684.2765)" style="fill:#fce94f;fill-opacity:1;fill-rule:nonzero;stroke:#000;stroke-width:3.69675326;stroke-linecap:round;stroke-linejoin:round;stroke-miterlimit:4;stroke-dasharray:none;stroke-opacity:1"/><path id="path8173" d="m 37.843667,874.30286 c 0,4.9125 -2.751458,8.89488 -6.145553,8.89488 -3.394095,0 -6.145552,-3.98238 -6.145552,-8.89488 0,-4.91251 2.751457,-8.89488 6.145552,-8.89488 3.394095,0 6.145553,3.98237 6.145553,8.89488 z" transform="matrix(0.3254386,0,0,0.2248485,60.68421,684.2765)" style="fill:#fce94f;fill-opacity:1;fill-rule:nonzero;stroke:#000;stroke-width:3.69675326;stroke-linecap:round;stroke-linejoin:round;stroke-miterlimit:4;stroke-dasharray:none;stroke-opacity:1"/><path id="path8175" d="m 37.843667,874.30286 c 0,4.9125 -2.751458,8.89488 -6.145553,8.89488 -3.394095,0 -6.145552,-3.98238 -6.145552,-8.89488 0,-4.91251 2.751457,-8.89488 6.145552,-8.89488 3.394095,0 6.145553,3.98237 6.145553,8.89488 z" transform="matrix(0.3254386,0,0,0.2248485,44.18421,686.2765)" style="fill:#fce94f;fill-opacity:1;fill-rule:nonzero;stroke:#000;stroke-width:3.69675326;stroke-linecap:round;stroke-linejoin:round;stroke-miterlimit:4;stroke-dasharray:none;stroke-opacity:1"/><path id="path8177" d="m 37.843667,874.30286 c 0,4.9125 -2.751458,8.89488 -6.145553,8.89488 -3.394095,0 -6.145552,-3.98238 -6.145552,-8.89488 0,-4.91251 2.751457,-8.89488 6.145552,-8.89488 3.394095,0 6.145553,3.98237 6.145553,8.89488 z" transform="matrix(0.3254386,0,0,0.2248485,66.18421,686.2765)" style="fill:#fce94f;fill-opacity:1;fill-rule:nonzero;stroke:#000;stroke-width:3.69675326;stroke-linecap:round;stroke-linejoin:round;stroke-miterlimit:4;stroke-dasharray:none;stroke-opacity:1"/><path id="path8179" d="M 68.000002,894.0957 L 65.506898,880.86221 L 63.000002,893.8597 L 65.368588,894.86221 L 68.000002,894.0957 z" style="fill:#fce94f;fill-opacity:1;fill-rule:nonzero;stroke:#000;stroke-width:1;stroke-linecap:round;stroke-linejoin:round;stroke-miterlimit:4;stroke-opacity:1"/><path id="path8181" d="m 37.843667,874.30286 c 0,4.9125 -2.751458,8.89488 -6.145553,8.89488 -3.394095,0 -6.145552,-3.98238 -6.145552,-8.89488 0,-4.91251 2.751457,-8.89488 6.145552,-8.89488 3.394095,0 6.145553,3.98237 6.145553,8.89488 z" transform="matrix(0.3254386,0,0,0.2248485,55.18421,683.2765)" style="fill:#fce94f;fill-opacity:1;fill-rule:nonzero;stroke:#000;stroke-width:3.69675326;stroke-linecap:round;stroke-linejoin:round;stroke-miterlimit:4;stroke-dasharray:none;stroke-opacity:1"/><path id="path8183" d="m 59.702156,907.57715 c 0,0.91142 -4.498573,1.65027 -10.047844,1.65027 -5.549271,0 -10.047844,-0.73885 -10.047844,-1.65027 0,-0.91142 4.498573,-1.65027 10.047844,-1.65027 5.549271,0 10.047844,0.73885 10.047844,1.65027 z" transform="matrix(0.9454765,0,0,1.2119233,18.553015,-205.05171)" style="fill:#fce94f;fill-opacity:1;fill-rule:nonzero;stroke:#000;stroke-width:.93419403;stroke-linecap:round;stroke-linejoin:round;stroke-miterlimit:4;stroke-dasharray:none;stroke-opacity:1"/></g><g id="g5308" transform="translate(-79.5,-811.86218)"><text id="text2242" x="105.183" y="864.336" transform="scale(1.0446886,0.9572231)" style="font-size:14.33035374px;font-style:normal;font-weight:400;fill:#000;fill-opacity:1;stroke:none;stroke-width:1px;stroke-linecap:butt;stroke-linejoin:miter;stroke-opacity:1;font-family:Bitstream Vera Sans" xml:space="preserve"><tspan id="tspan2244" x="105.183" y="864.336">A</tspan></text><text id="text3336" x="116.31" y="982.376" transform="scale(1.1873587,0.8422055)" style="font-size:16.28741074px;font-style:normal;font-weight:400;fill:#000;fill-opacity:1;stroke:none;stroke-width:1px;stroke-linecap:butt;stroke-linejoin:miter;stroke-opacity:1;font-family:Bitstream Vera Sans" xml:space="preserve"><tspan id="tspan3340" x="116.31" y="982.376">B</tspan></text><text id="text3344" x="149.035" y="938.231" transform="scale(1.1342596,0.8816324)" style="font-size:14.99653721px;font-style:normal;font-weight:400;fill:#000;fill-opacity:1;stroke:none;stroke-width:1px;stroke-linecap:butt;stroke-linejoin:miter;stroke-opacity:1;font-family:Bitstream Vera Sans" xml:space="preserve"><tspan id="tspan3346" x="149.035" y="938.231">C</tspan></text><text id="text3348" x="181.899" y="902.41" transform="scale(1.0907069,0.9168366)" style="font-size:14.96160507px;font-style:normal;font-weight:400;fill:#000;fill-opacity:1;stroke:none;stroke-width:1px;stroke-linecap:butt;stroke-linejoin:miter;stroke-opacity:1;font-family:Bitstream Vera Sans" xml:space="preserve"><tspan id="tspan3350" x="181.899" y="902.41">D</tspan></text></g><g id="g4074" transform="translate(-79.499994,-812.06014)"><text xml:space="preserve" style="font-size:16.19810677px;font-style:normal;font-weight:400;fill:#000;fill-opacity:1;stroke:none;stroke-width:1px;stroke-linecap:butt;stroke-linejoin:miter;stroke-opacity:1;font-family:Bitstream Vera Sans" id="text4516" x="67.904" y="1044.647" transform="scale(1.2251409,0.8162327)"><tspan id="tspan4518" x="67.904" y="1044.647">0</tspan></text><text xml:space="preserve" style="font-size:17.77658844px;font-style:normal;font-weight:400;fill:#000;fill-opacity:1;stroke:none;stroke-width:1px;stroke-linecap:butt;stroke-linejoin:miter;stroke-opacity:1;font-family:Bitstream Vera Sans" id="text4520" x="63.251" y="1144.123" transform="scale(1.2959246,0.7716499)"><tspan id="tspan4522" x="63.251" y="1144.123">1</tspan></text><text xml:space="preserve" style="font-size:17.06092262px;font-style:normal;font-weight:400;fill:#000;fill-opacity:1;stroke:none;stroke-width:1px;stroke-linecap:butt;stroke-linejoin:miter;stroke-opacity:1;font-family:Bitstream Vera Sans" id="text4524" x="65.483" y="1155.911" transform="scale(1.2662496,0.7897337)"><tspan id="tspan4526" x="65.483" y="1155.911">2</tspan></text><text xml:space="preserve" style="font-size:16.76036072px;font-style:normal;font-weight:400;fill:#000;fill-opacity:1;stroke:none;stroke-width:1px;stroke-linecap:butt;stroke-linejoin:miter;stroke-opacity:1;font-family:Bitstream Vera Sans" id="text4528" x="66.701" y="1172.045" transform="scale(1.2430621,0.804465)"><tspan id="tspan4530" x="66.701" y="1172.045">3</tspan></text></g></svg>