<svg xmlns="http://www.w3.org/2000/svg" xmlns:svg="http://www.w3.org/2000/svg" id="svg11300" width="16" height="16" version="1.1"><defs id="defs3"><linearGradient id="linearGradient2682"><stop style="stop-color:#3977c3;stop-opacity:1" id="stop2684" offset="0"/><stop style="stop-color:#89aedc;stop-opacity:0" id="stop2686" offset="1"/></linearGradient><linearGradient id="linearGradient2402"><stop style="stop-color:#729fcf;stop-opacity:1" id="stop2404" offset="0"/><stop style="stop-color:#528ac5;stop-opacity:1" id="stop2406" offset="1"/></linearGradient><linearGradient id="linearGradient2380"><stop style="stop-color:#b9cfe7;stop-opacity:1" id="stop2382" offset="0"/><stop style="stop-color:#729fcf;stop-opacity:1" id="stop2384" offset="1"/></linearGradient><linearGradient id="linearGradient2831"><stop style="stop-color:#3465a4;stop-opacity:1" id="stop2833" offset="0"/><stop id="stop2855" offset=".333" style="stop-color:#5b86be;stop-opacity:1"/><stop style="stop-color:#83a8d8;stop-opacity:0" id="stop2835" offset="1"/></linearGradient></defs><metadata id="metadata4"/><g id="layer1" transform="translate(0,-32)"><g id="g4206" transform="matrix(0.66509373,0,0,0.66509373,18.125559,15.401924)"><path id="path3396" d="M -15.09375,48.09375 C -30.11728,43.922013 -22.093563,35.854325 -21.625,32 c 0.703157,1.070595 0.855305,2.138636 0.8125,3.375 3.977459,-4.059111 4.281092,-8.716849 4.03125,-9.5 4.288585,1.728543 5.406809,6.380585 5.84375,7.625 1.2111686,-1.626576 0.601107,-2.874827 0.4375,-3.75 6.8264929,6.284156 5.46875,14.927083 -4.59375,18.34375 z" style="color:#000;display:inline;overflow:visible;visibility:visible;opacity:1;fill:#fcaf3e;fill-opacity:1;fill-rule:nonzero;stroke:none;stroke-width:1;stroke-linecap:round;stroke-linejoin:round;stroke-miterlimit:4;stroke-dasharray:none;stroke-dashoffset:0;stroke-opacity:1;marker:none;enable-background:accumulate"/><path style="color:#000;display:inline;overflow:visible;visibility:visible;opacity:1;fill:#ef2929;fill-opacity:1;fill-rule:nonzero;stroke:none;stroke-width:1;stroke-linecap:round;stroke-linejoin:round;stroke-miterlimit:4;stroke-dasharray:none;stroke-dashoffset:0;stroke-opacity:1;marker:none;enable-background:accumulate" id="path4198" d="m -15.09375,48.09375 c -8.914936,-2.38875 -3.110975,-7.483516 -2.15625,-10.875 0.728364,0.974584 0.676829,1.893436 0.59375,2.875 1.788585,-2.271457 1.656809,-4.056915 1.65625,-5.5625 3.814143,2.303377 7.1493563,10.878046 -0.09375,13.5625 z"/></g><g id="g2254" transform="matrix(1.0451787,0,0,1.0451787,-5.5873231,1.3283878)" style="stroke:#a40000;stroke-width:1.91354835;stroke-miterlimit:4;stroke-dasharray:none"><path id="path1377" d="M 8,32 18,42" style="color:#000;display:inline;overflow:visible;visibility:visible;fill:none;stroke:#a40000;stroke-width:1.91354835;stroke-linecap:round;stroke-linejoin:round;stroke-miterlimit:4;stroke-dasharray:none;stroke-dashoffset:0;stroke-opacity:1;marker:none"/><path style="color:#000;display:inline;overflow:visible;visibility:visible;fill:none;stroke:#a40000;stroke-width:1.91354835;stroke-linecap:round;stroke-linejoin:round;stroke-miterlimit:4;stroke-dasharray:none;stroke-dashoffset:0;stroke-opacity:1;marker:none" id="path2252" d="M 18,32 8,42"/></g></g></svg>