<svg xmlns="http://www.w3.org/2000/svg" xmlns:svg="http://www.w3.org/2000/svg" xmlns:xlink="http://www.w3.org/1999/xlink" id="svg11300" width="16" height="16" version="1.1"><defs id="defs3"><linearGradient id="linearGradient2690"><stop style="stop-color:#c4d7eb;stop-opacity:1" id="stop2692" offset="0"/><stop style="stop-color:#c4d7eb;stop-opacity:0" id="stop2694" offset="1"/></linearGradient><linearGradient id="linearGradient2682"><stop style="stop-color:#3977c3;stop-opacity:1" id="stop2684" offset="0"/><stop style="stop-color:#89aedc;stop-opacity:0" id="stop2686" offset="1"/></linearGradient><linearGradient id="linearGradient2402"><stop style="stop-color:#729fcf;stop-opacity:1" id="stop2404" offset="0"/><stop style="stop-color:#528ac5;stop-opacity:1" id="stop2406" offset="1"/></linearGradient><linearGradient id="linearGradient2380"><stop style="stop-color:#b9cfe7;stop-opacity:1" id="stop2382" offset="0"/><stop style="stop-color:#729fcf;stop-opacity:1" id="stop2384" offset="1"/></linearGradient><linearGradient id="linearGradient2871"><stop style="stop-color:#3465a4;stop-opacity:1" id="stop2873" offset="0"/><stop style="stop-color:#3465a4;stop-opacity:1" id="stop2875" offset="1"/></linearGradient><linearGradient id="linearGradient2847"><stop style="stop-color:#3465a4;stop-opacity:1" id="stop2849" offset="0"/><stop style="stop-color:#3465a4;stop-opacity:0" id="stop2851" offset="1"/></linearGradient><linearGradient id="linearGradient2831"><stop style="stop-color:#3465a4;stop-opacity:1" id="stop2833" offset="0"/><stop id="stop2855" offset=".333" style="stop-color:#5b86be;stop-opacity:1"/><stop style="stop-color:#83a8d8;stop-opacity:0" id="stop2835" offset="1"/></linearGradient><linearGradient id="linearGradient2797"><stop style="stop-color:#fff;stop-opacity:1" id="stop2799" offset="0"/><stop style="stop-color:#fff;stop-opacity:0" id="stop2801" offset="1"/></linearGradient><linearGradient id="linearGradient1486" x1="13.479" x2="15.419" y1="10.612" y2="19.115" gradientTransform="translate(0.465413,-0.277593)" gradientUnits="userSpaceOnUse" xlink:href="#linearGradient2831"/><linearGradient id="linearGradient1488" x1="37.128" x2="37.065" y1="29.73" y2="26.194" gradientTransform="matrix(-1,0,0,-1,47.52791,45.84741)" gradientUnits="userSpaceOnUse" xlink:href="#linearGradient2847"/><linearGradient id="linearGradient1491" x1="5.965" x2="52.854" y1="26.048" y2="26.048" gradientUnits="userSpaceOnUse" xlink:href="#linearGradient2797"/><linearGradient id="linearGradient1493" x1="5.965" x2="52.854" y1="26.048" y2="26.048" gradientUnits="userSpaceOnUse" xlink:href="#linearGradient2797"/><linearGradient id="linearGradient1501" x1="46.835" x2="45.38" y1="45.264" y2="50.94" gradientUnits="userSpaceOnUse" xlink:href="#linearGradient2871"/><linearGradient id="linearGradient2386" x1="62.514" x2="15.985" y1="36.061" y2="20.609" gradientUnits="userSpaceOnUse" xlink:href="#linearGradient2380"/><linearGradient id="linearGradient2408" x1="18.936" x2="53.589" y1="23.668" y2="26.649" gradientUnits="userSpaceOnUse" xlink:href="#linearGradient2402"/><linearGradient id="linearGradient2688" x1="36.714" x2="37.124" y1="31.456" y2="24.842" gradientUnits="userSpaceOnUse" xlink:href="#linearGradient2682"/><linearGradient id="linearGradient2696" x1="32.648" x2="37.124" y1="30.749" y2="24.842" gradientUnits="userSpaceOnUse" xlink:href="#linearGradient2690"/><linearGradient id="linearGradient3385" x1="62.514" x2="15.985" y1="36.061" y2="20.609" gradientUnits="userSpaceOnUse" xlink:href="#linearGradient2380"/><linearGradient id="linearGradient3387" x1="46.835" x2="45.38" y1="45.264" y2="50.94" gradientUnits="userSpaceOnUse" xlink:href="#linearGradient2871"/><linearGradient id="linearGradient3389" x1="18.936" x2="53.589" y1="23.668" y2="26.649" gradientUnits="userSpaceOnUse" xlink:href="#linearGradient2402"/><linearGradient id="linearGradient3391" x1="46.835" x2="45.38" y1="45.264" y2="50.94" gradientUnits="userSpaceOnUse" xlink:href="#linearGradient2871"/></defs><metadata id="metadata4"/><g id="layer1" transform="translate(0,-32)"><g id="g3393" transform="matrix(0.33,0,0,0.33,-0.08414646,32.755286)"><path id="path2865" d="m 20.152913,10.409904 c 0,0 -8.9375,-0.625 -6.1875,9.875 l -7.6874998,0 c 0,0 0.5,-11.875 13.8749998,-9.875 z" style="color:#000;display:block;overflow:visible;visibility:visible;fill:url(#linearGradient1486);fill-opacity:1;fill-rule:nonzero;stroke:url(#linearGradient1488);stroke-width:.99999958;stroke-linecap:butt;stroke-linejoin:miter;stroke-miterlimit:4;stroke-dasharray:none;stroke-dashoffset:0;stroke-opacity:1;marker:none;marker-start:none;marker-mid:none;marker-end:none"/><g style="fill:url(#linearGradient2386);fill-opacity:1;stroke:#3465a4;stroke-opacity:1" id="g1878" transform="matrix(-0.579051,-0.489228,-0.489228,0.579051,56.91585,13.37137)"><path style="color:#000;display:block;overflow:visible;visibility:visible;opacity:1;fill:url(#linearGradient3385);fill-opacity:1;fill-rule:nonzero;stroke:url(#linearGradient3387);stroke-width:1.31916928;stroke-linecap:butt;stroke-linejoin:miter;stroke-miterlimit:4;stroke-dasharray:none;stroke-dashoffset:0;stroke-opacity:1;marker:none;marker-start:none;marker-mid:none;marker-end:none" id="path1880" d="M 44.306783,50.229694 C 62.821497,35.818859 49.664587,13.411704 22.462411,12.49765 L 22.113843,3.1515478 7.6245439,20.496754 22.714328,33.219189 c 0,0 -0.251917,-9.88122 -0.251917,-9.88122 18.82976,0.998977 32.981627,14.071729 21.844372,26.891725 z"/></g><path style="color:#000;display:block;overflow:visible;visibility:visible;fill:url(#linearGradient2696);fill-opacity:1;fill-rule:nonzero;stroke:url(#linearGradient2688);stroke-width:.99999958;stroke-linecap:butt;stroke-linejoin:miter;stroke-miterlimit:4;stroke-dasharray:none;stroke-dashoffset:0;stroke-opacity:1;marker:none;marker-start:none;marker-mid:none;marker-end:none" id="path2839" d="m 28.375,33.4375 c 0,0 8.9375,0.625 6.1875,-9.875 l 7.775888,0 c 0,1.502602 -0.588388,11.875 -13.963388,9.875 z"/><g id="g2779" transform="matrix(0.579051,0.489228,0.489228,-0.579051,-7.921023,30.53599)" style="color:#000;display:block;overflow:visible;visibility:visible;opacity:1;fill:url(#linearGradient2408);fill-opacity:1;fill-rule:nonzero;stroke:url(#linearGradient1501);stroke-width:1.31916928;stroke-linecap:butt;stroke-linejoin:miter;stroke-miterlimit:4;stroke-dasharray:none;stroke-dashoffset:0;stroke-opacity:1;marker:none;marker-start:none;marker-mid:none;marker-end:none"><path id="path2781" d="M 44.306783,50.229694 C 62.821497,35.818859 49.664587,13.411704 22.462411,12.49765 L 22.399432,3.0690297 7.793943,20.424005 22.462411,33.006349 c 0,0 0,-9.66838 0,-9.66838 18.82976,0.998977 32.981627,14.071729 21.844372,26.891725 z" style="color:#000;display:block;overflow:visible;visibility:visible;opacity:1;fill:url(#linearGradient3389);fill-opacity:1;fill-rule:nonzero;stroke:url(#linearGradient3391);stroke-width:1.31916928;stroke-linecap:butt;stroke-linejoin:miter;stroke-miterlimit:4;stroke-dasharray:none;stroke-dashoffset:0;stroke-opacity:1;marker:none;marker-start:none;marker-mid:none;marker-end:none"/></g><path id="path2791" d="m 7.0625,38.1875 0.0625,-14.875 12.9375,-0.375 -4.388873,5.178817 3.867225,2.373199 c -3,2.25 -4.549548,2.422128 -5.549548,4.984628 L 11.174446,33.363872 7.0625,38.1875 Z" style="color:#000;display:inline;overflow:visible;visibility:visible;opacity:.27222224;fill:#fff;fill-opacity:1;fill-rule:nonzero;stroke:none;stroke-width:.99999982;stroke-linecap:round;stroke-linejoin:miter;stroke-miterlimit:4;stroke-dasharray:none;stroke-dashoffset:0;stroke-opacity:1;marker:none;marker-start:none;marker-mid:none;marker-end:none"/><g style="opacity:.5;fill:none;fill-opacity:1;stroke:#fff;stroke-opacity:1" id="g2793" transform="matrix(0.508536,0.429651,0.429651,-0.508536,-3.973188,30.54119)"><path style="color:#000;display:block;overflow:visible;visibility:visible;opacity:1;fill:none;fill-opacity:1;fill-rule:nonzero;stroke:url(#linearGradient1493);stroke-width:1.50208926;stroke-linecap:butt;stroke-linejoin:miter;stroke-miterlimit:4;stroke-dasharray:none;stroke-dashoffset:0;stroke-opacity:1;marker:none;marker-start:none;marker-mid:none;marker-end:none" id="path2795" d="M 51.090265,45.943705 C 60.210465,30.723955 46.631614,12.20113 19.485058,11.948579 L 19.513464,3.7032834 6.5341979,19.296639 19.367661,30.26876 c 0,0 0.05562,-9.006878 0.05562,-9.006878 17.527815,-0.223909 35.195185,10.103372 31.666984,24.681823 z"/></g><g id="g2805" transform="matrix(-0.508536,-0.429651,-0.429651,0.508536,53.049,13.36548)" style="opacity:.5;fill:none;fill-opacity:1;stroke:#fff;stroke-opacity:1"><path id="path2807" d="M 51.389927,46.505946 C 60.510127,31.286196 47.050763,12.432359 19.628482,12.069755 L 19.342824,4.0507204 6.3413093,19.379475 19.809059,30.764589 c 0,0 -0.181765,-9.453243 -0.181765,-9.453243 18.244937,0.381972 34.783881,10.925246 31.762633,25.1946 z" style="color:#000;display:block;overflow:visible;visibility:visible;opacity:1;fill:none;fill-opacity:1;fill-rule:nonzero;stroke:url(#linearGradient1491);stroke-width:1.50208926;stroke-linecap:butt;stroke-linejoin:miter;stroke-miterlimit:4;stroke-dasharray:none;stroke-dashoffset:0;stroke-opacity:1;marker:none;marker-start:none;marker-mid:none;marker-end:none"/></g><path id="path2811" d="M 6.8125,16.5 C 10.405935,6.0587275 23.256282,10.355393 27,12 31.175307,12.211475 32.674736,9.164996 36,9 21.950264,-0.7899963 7.1875,2.5 6.8125,16.5 Z" style="color:#000;display:inline;overflow:visible;visibility:visible;opacity:.27222224;fill:#fff;fill-opacity:1;fill-rule:nonzero;stroke:none;stroke-width:.99999982;stroke-linecap:round;stroke-linejoin:miter;stroke-miterlimit:4;stroke-dasharray:none;stroke-dashoffset:0;stroke-opacity:1;marker:none;marker-start:none;marker-mid:none;marker-end:none"/></g><g id="g2254" transform="matrix(1.0451787,0,0,1.0451787,-5.5873231,1.3283878)" style="stroke:#a40000;stroke-width:1.91354835;stroke-miterlimit:4;stroke-dasharray:none"><path id="path1377" d="M 8,32 18,42" style="color:#000;display:inline;overflow:visible;visibility:visible;fill:none;stroke:#a40000;stroke-width:1.91354835;stroke-linecap:round;stroke-linejoin:round;stroke-miterlimit:4;stroke-dasharray:none;stroke-dashoffset:0;stroke-opacity:1;marker:none"/><path style="color:#000;display:inline;overflow:visible;visibility:visible;fill:none;stroke:#a40000;stroke-width:1.91354835;stroke-linecap:round;stroke-linejoin:round;stroke-miterlimit:4;stroke-dasharray:none;stroke-dashoffset:0;stroke-opacity:1;marker:none" id="path2252" d="M 18,32 8,42"/></g></g></svg>