<svg xmlns="http://www.w3.org/2000/svg" xmlns:svg="http://www.w3.org/2000/svg" xmlns:xlink="http://www.w3.org/1999/xlink" id="svg2" width="32" height="32" version="1.1"><metadata id="metadata7"/><defs id="defs5"><radialGradient id="radialGradient3887" cx="34.014" cy="29.298" r="28.82" fx="34.014" fy="29.298" gradientTransform="matrix(0.40376813,-0.25836056,0.21538873,0.32302984,3.6939103,24.066574)" gradientUnits="userSpaceOnUse" xlink:href="#linearGradient3863"/><linearGradient id="linearGradient3863"><stop id="stop3879" offset="0" style="stop-color:#fff;stop-opacity:1"/><stop style="stop-color:#eeeeec;stop-opacity:1" id="stop3867" offset="1"/></linearGradient><radialGradient id="radialGradient3895" cx="18.35" cy="7.25" r="28.008" fx="18.35" fy="7.25" gradientTransform="matrix(0.91761552,-0.59233287,0.36903421,0.57169107,-1.983319,22.157964)" gradientUnits="userSpaceOnUse" xlink:href="#linearGradient3889"/><linearGradient id="linearGradient3889"><stop style="stop-color:#fff;stop-opacity:1" id="stop3891" offset="0"/><stop style="stop-color:#f7f7f7;stop-opacity:1" id="stop3893" offset="1"/></linearGradient><linearGradient id="linearGradient3041" x1="16.875" x2="27.901" y1="22.852" y2="34.977" gradientTransform="translate(-1.9043922e-7,16.000001)" gradientUnits="userSpaceOnUse" xlink:href="#linearGradient7916"/><linearGradient id="linearGradient7916"><stop style="stop-color:#fff;stop-opacity:1" id="stop7918" offset="0"/><stop style="stop-color:#fff;stop-opacity:.34020618" id="stop7920" offset="1"/></linearGradient><radialGradient id="radialGradient3048" cx="34.014" cy="29.298" r="28.82" fx="34.014" fy="29.298" gradientTransform="matrix(0.40376813,-0.25836056,0.21538873,0.32302984,3.6939103,-7.933426)" gradientUnits="userSpaceOnUse" xlink:href="#linearGradient3863"/><radialGradient id="radialGradient3050" cx="18.35" cy="7.25" r="28.008" fx="18.35" fy="7.25" gradientTransform="matrix(0.91761552,-0.59233287,0.36903421,0.57169107,-1.983319,-9.842036)" gradientUnits="userSpaceOnUse" xlink:href="#linearGradient3889"/><radialGradient id="radialGradient3062" cx="34.014" cy="29.298" r="28.82" fx="34.014" fy="29.298" gradientTransform="matrix(0.40376813,-0.25836056,0.21538873,0.32302984,3.6939103,-7.933426)" gradientUnits="userSpaceOnUse" xlink:href="#linearGradient3863"/><radialGradient id="radialGradient3064" cx="18.35" cy="7.25" r="28.008" fx="18.35" fy="7.25" gradientTransform="matrix(0.91761552,-0.59233287,0.36903421,0.57169107,-1.983319,-9.842036)" gradientUnits="userSpaceOnUse" xlink:href="#linearGradient3889"/><linearGradient id="linearGradient3066" x1="16.875" x2="27.901" y1="22.852" y2="34.977" gradientTransform="translate(-1.9043922e-7,16.000001)" gradientUnits="userSpaceOnUse" xlink:href="#linearGradient7916"/><radialGradient id="radialGradient4571" cx="24.714" cy="38.571" r="19.714" fx="24.714" fy="38.571" gradientTransform="matrix(1,0,0,0.333333,0,25.71429)" gradientUnits="userSpaceOnUse" xlink:href="#linearGradient4565"/><linearGradient id="linearGradient4565"><stop id="stop4567" offset="0" style="stop-color:#000;stop-opacity:1"/><stop id="stop4569" offset="1" style="stop-color:#000;stop-opacity:0"/></linearGradient><radialGradient id="radialGradient2714" cx="29.288" cy="15.721" r="8.902" fx="29.158" fy="15.756" gradientUnits="userSpaceOnUse" xlink:href="#linearGradient3290"/><linearGradient id="linearGradient3290"><stop id="stop3292" offset="0" style="stop-color:#fffcde;stop-opacity:1"/><stop style="stop-color:#f6e76a;stop-opacity:1" id="stop3294" offset=".645"/><stop id="stop3296" offset="1" style="stop-color:#ffb738;stop-opacity:1"/></linearGradient><radialGradient id="aigrd2" cx="25.053" cy="39.593" r="15.757" fx="25.053" fy="39.593" gradientTransform="matrix(1.25,0,0,1.25,-6.479446,-13.37211)" gradientUnits="userSpaceOnUse"><stop offset="0" style="stop-color:#777;stop-opacity:1" id="stop8602"/><stop offset="1" style="stop-color:#000" id="stop8604"/></radialGradient><radialGradient id="radialGradient3201" cx="24.714" cy="38.571" r="19.714" fx="24.714" fy="38.571" gradientTransform="matrix(1,0,0,0.333333,0,25.71429)" gradientUnits="userSpaceOnUse" xlink:href="#linearGradient4565"/><radialGradient id="radialGradient3203" cx="29.288" cy="15.721" r="8.902" fx="29.158" fy="15.756" gradientUnits="userSpaceOnUse" xlink:href="#linearGradient3290"/><radialGradient id="radialGradient3205" cx="25.053" cy="39.593" r="15.757" fx="25.053" fy="39.593" gradientTransform="matrix(1.25,0,0,1.25,-6.479446,-13.37211)" gradientUnits="userSpaceOnUse" xlink:href="#aigrd2"/><radialGradient id="radialGradient3207" cx="34.014" cy="29.298" r="28.82" fx="34.014" fy="29.298" gradientTransform="matrix(0.40376813,-0.25836056,0.21538873,0.32302984,3.6939103,-7.933426)" gradientUnits="userSpaceOnUse" xlink:href="#linearGradient3863"/><radialGradient id="radialGradient3209" cx="18.35" cy="7.25" r="28.008" fx="18.35" fy="7.25" gradientTransform="matrix(0.91761552,-0.59233287,0.36903421,0.57169107,-1.983319,-9.842036)" gradientUnits="userSpaceOnUse" xlink:href="#linearGradient3889"/><linearGradient id="linearGradient3211" x1="16.875" x2="27.901" y1="22.852" y2="34.977" gradientTransform="translate(-1.9043922e-7,16.000001)" gradientUnits="userSpaceOnUse" xlink:href="#linearGradient7916"/><radialGradient id="radialGradient3217" cx="25.053" cy="39.593" r="15.757" fx="25.053" fy="39.593" gradientTransform="matrix(1.25,0,0,1.25,-6.479446,-13.37211)" gradientUnits="userSpaceOnUse" xlink:href="#aigrd2"/></defs><g id="g3179" transform="matrix(1.1275435,0,0,1.1275435,-2.0406961,-4.2581688)"><g id="g3015" transform="matrix(0.5,0,0,0.5,3.6428576,9.4285705)"><path id="path4563" d="m 44.42857,38.57143 c 0,3.6293 -8.826386,6.571429 -19.714285,6.571429 C 13.826386,45.142859 5,42.20073 5,38.57143 c 0,-3.6293 8.826386,-6.571429 19.714285,-6.571429 10.887899,0 19.714285,2.942129 19.714285,6.571429 z" style="opacity:.53164559;color:#000;fill:url(#radialGradient3201);fill-opacity:1;fill-rule:evenodd;stroke:none;stroke-width:.40487173;marker:none;visibility:visible;display:inline;overflow:visible"/><path id="path4320" d="m 39.774755,19.008621 c 0,4.783923 -3.878135,8.662058 -8.662057,8.662058 -4.783923,0 -8.662058,-3.878135 -8.662058,-8.662058 0,-4.783922 3.878135,-8.662058 8.662058,-8.662058 4.783922,0 8.662057,3.878136 8.662057,8.662058 z" transform="matrix(2.083142,0,0,2.083142,-40.54715,-16.49224)" style="color:#000;fill:url(#radialGradient3203);fill-opacity:1;fill-rule:evenodd;stroke:#9c8c0a;stroke-width:.48004404;stroke-linecap:round;stroke-linejoin:round;stroke-miterlimit:4;stroke-opacity:1;stroke-dasharray:none;stroke-dashoffset:0;marker:none;visibility:visible;display:inline;overflow:visible"/><path transform="matrix(1.979782,0,0,1.979782,-37.33128,-14.52746)" style="opacity:.67721522;color:#000;fill:none;stroke:#fff;stroke-width:.50510627;stroke-linecap:round;stroke-linejoin:round;stroke-miterlimit:4;stroke-opacity:1;stroke-dasharray:none;stroke-dashoffset:0;marker:none;visibility:visible;display:inline;overflow:visible" id="path4322" d="m 39.774755,19.008621 c 0,4.783923 -3.878135,8.662058 -8.662057,8.662058 -4.783923,0 -8.662058,-3.878135 -8.662058,-8.662058 0,-4.783922 3.878135,-8.662058 8.662058,-8.662058 4.783922,0 8.662057,3.878136 8.662057,8.662058 z"/><g id="g3213" transform="matrix(0.71249027,0,0,0.62686158,6.9569667,12.578498)"><path style="opacity:.36000001;color:#000;fill:#fff;fill-opacity:1;fill-rule:nonzero;stroke:none;stroke-width:1;marker:none;visibility:visible;display:inline;overflow:visible" id="path2659" d="m 37.284637,24.719966 c -3.016467,5.224673 -6.543503,8.990039 -12.822145,8.990039 -6.100017,0 -10.565537,-4.339697 -13.352476,-9.166816 2.549413,3.05592 6.282932,6.566312 13.087311,6.566312 8.130204,0 9.551776,-2.906855 13.08731,-6.389535 z"/><path id="path8606" d="m 37.284637,24.012862 c -3.016467,5.224673 -6.543503,8.990039 -12.822145,8.990039 -6.100017,0 -10.565537,-4.339697 -13.352476,-9.166816 2.549413,3.05592 6.282932,6.566312 13.087311,6.566312 8.130204,0 9.551776,-2.906855 13.08731,-6.389535 z" style="fill:url(#radialGradient3217);fill-rule:nonzero;stroke:none"/></g><g id="g8666" transform="translate(0.353553,2.392706)"><path style="opacity:.36000001;fill:#fff;fill-rule:nonzero;stroke:none" id="path8610" d="m 21.398158,15.321428 c 0,2.5 -1.125,4.5 -2.5,4.5 -1.375,0 -2.625,-2 -2.625,-4.5 0,-2.5 1.125,-4.5 2.5,-4.5 1.375,0 2.5,2 2.5,4.5 l 0.125,0 z"/><path style="opacity:.36000001;fill:#fff;fill-rule:nonzero;stroke:none" id="path8612" d="m 30.688512,15.321428 c 0,2.5 -1.125,4.5 -2.5,4.5 -1.375,0 -2.5,-2 -2.5,-4.5 0,-2.5 1.125,-4.5 2.5,-4.5 1.375,0 2.5,2 2.5,4.5 z"/><path style="fill:#000;fill-rule:nonzero;stroke:none" id="path8614" d="m 21.398158,14.696428 c 0,2.5 -1.125,4.5 -2.5,4.5 -1.375,0 -2.5,-2 -2.5,-4.5 0,-2.5 1.125,-4.5 2.5,-4.5 1.375,0 2.5,2 2.5,4.5 z"/><path style="fill:#000;fill-rule:nonzero;stroke:none" id="path8616" d="m 30.688512,14.696428 c 0,2.5 -1.125,4.5 -2.5,4.5 -1.375,0 -2.5,-2 -2.5,-4.5 0,-2.5 1.125,-4.5 2.5,-4.5 1.375,0 2.5,2 2.5,4.5 z"/></g></g><g id="g3046" transform="matrix(0.27684781,0,0,0.27684781,6.8757051,9.4709419)"><path id="path3885" d="m 29.669485,-18.606476 c -8.625724,0.150731 -25.177879,5.904382 -25.177879,5.904382 l 4.8274943,29.521908 c 15.0516487,2.177556 32.7481237,2.588194 45.3617997,0 l 4.827495,-29.521908 c 0,0 -19.69559,-6.081633 -29.83891,-5.904382 z" style="fill:url(#radialGradient3207);fill-opacity:1;fill-rule:nonzero;stroke:url(#radialGradient3209);stroke-width:.99999988;stroke-linecap:round;stroke-linejoin:round;stroke-miterlimit:4;stroke-opacity:1"/><path style="fill:none;stroke:#2e3436;stroke-width:.99999988;stroke-linecap:round;stroke-linejoin:round;stroke-miterlimit:4;stroke-opacity:1" id="path2408" d="m 29.600764,-19.498562 c -8.880075,0.157958 -25.9203114,6.187467 -25.9203114,6.187467 L 8.6502975,17.62624 c 15.4954835,2.281959 33.7137825,2.712284 46.6994045,0 l 4.969845,-30.937335 c 0,0 -20.276363,-6.373216 -30.718783,-6.187467 z"/><g id="g3788" transform="matrix(1.3709917,0,0,1.3749927,-11.95205,-46.426423)" style="fill:#eeeeec"><rect id="rect3768-1" width="20" height="5" x="22.059" y="31.129" style="fill:#eeeeec;fill-opacity:1;stroke:none"/></g><g id="g3031" transform="translate(8.0149523,-40.531366)"><path id="text1314" d="m 27.514356,53.542683 0,-9.02696 9.978464,-0.04018 0,-6.995324 -9.969535,0 -0.0089,-9.96017 -7.016274,0.01116 0.0045,9.931152 -9.989626,0.07366 -0.03571,6.968539 10.034269,-0.02902 0.0067,9.040353 6.996185,0.02679 z" style="font-size:59.90107727px;font-style:normal;font-variant:normal;font-weight:700;font-stretch:normal;text-align:start;line-height:125%;writing-mode:lr-tb;text-anchor:start;fill:#c00;fill-opacity:1;stroke:#a40000;stroke-width:1.00000036px;stroke-linecap:butt;stroke-linejoin:miter;stroke-opacity:1;font-family:Bitstream Vera Sans"/><path id="path7076" d="m 26.498702,52.533921 0,-9.034182 10.002602,0 -0.0067,-5.024429 -9.986977,0 0,-9.994974 -4.994834,0.01786 0.0089,9.977116 -10.026189,0.01786 -0.02679,4.97309 10.064393,0.0089 -0.01339,9.027485 4.978952,0.03125 z" style="font-size:59.90107727px;font-style:normal;font-variant:normal;font-weight:700;font-stretch:normal;text-align:start;line-height:125%;writing-mode:lr-tb;text-anchor:start;opacity:.40860213;fill:#ef2929;fill-opacity:1;stroke:url(#linearGradient3211);stroke-width:1.0000006px;stroke-linecap:butt;stroke-linejoin:miter;stroke-opacity:1;font-family:Bitstream Vera Sans"/><path id="path7914" d="m 11,41.000001 c 0,1.9375 25.984375,-0.96875 25.984375,-0.03125 l 0,-3 L 27,38.000001 l 0,-9.965228 -6,0 0,9.965228 -10,0 0,3 z" style="opacity:.31182796;fill:#fff;fill-opacity:1;fill-rule:evenodd;stroke:none"/></g></g></g></svg>