<svg xmlns="http://www.w3.org/2000/svg" xmlns:svg="http://www.w3.org/2000/svg" xmlns:xlink="http://www.w3.org/1999/xlink" id="svg2" width="64" height="64" version="1.1"><metadata id="metadata7"/><defs id="defs5"><linearGradient id="linearGradient3889"><stop style="stop-color:#fff;stop-opacity:1" id="stop3891" offset="0"/><stop style="stop-color:#f7f7f7;stop-opacity:1" id="stop3893" offset="1"/></linearGradient><linearGradient id="linearGradient3863"><stop id="stop3879" offset="0" style="stop-color:#fff;stop-opacity:1"/><stop style="stop-color:#eeeeec;stop-opacity:1" id="stop3867" offset="1"/></linearGradient><linearGradient id="linearGradient3855"><stop style="stop-color:#eeeeec;stop-opacity:1" id="stop3857" offset="0"/><stop style="stop-color:#eeeeec;stop-opacity:0" id="stop3859" offset="1"/></linearGradient><linearGradient id="linearGradient3063"><stop style="stop-color:#fff;stop-opacity:1" id="stop3065" offset="0"/><stop style="stop-color:#fff;stop-opacity:0" id="stop3067" offset="1"/></linearGradient><linearGradient id="linearGradient4975" x1="34.893" x2="45.919" y1="36.423" y2="48.548" gradientTransform="translate(-18.01785,2.428811)" gradientUnits="userSpaceOnUse" xlink:href="#linearGradient1322"/><linearGradient id="linearGradient1322"><stop id="stop1324" offset="0" style="stop-color:#729fcf"/><stop id="stop1326" offset="1" style="stop-color:#5187d6;stop-opacity:1"/></linearGradient><linearGradient id="linearGradient7922" x1="16.875" x2="27.901" y1="22.852" y2="34.977" gradientTransform="translate(-1.9043922e-7,16.000001)" gradientUnits="userSpaceOnUse" xlink:href="#linearGradient7916"/><linearGradient id="linearGradient7916"><stop style="stop-color:#fff;stop-opacity:1" id="stop7918" offset="0"/><stop style="stop-color:#fff;stop-opacity:.34020618" id="stop7920" offset="1"/></linearGradient><radialGradient id="radialGradient2097" cx="23.071" cy="35.127" r="10.319" fx="23.071" fy="35.127" gradientTransform="matrix(0.914812,0.01265023,-0.00821502,0.213562,2.253914,27.18889)" gradientUnits="userSpaceOnUse" xlink:href="#linearGradient2091"/><linearGradient id="linearGradient2091"><stop style="stop-color:#000;stop-opacity:1" id="stop2093" offset="0"/><stop style="stop-color:#000;stop-opacity:0" id="stop2095" offset="1"/></linearGradient><radialGradient id="radialGradient3083" cx="23.071" cy="35.127" r="10.319" fx="23.071" fy="35.127" gradientTransform="matrix(0.914812,0.01265023,-0.00821502,0.213562,2.253914,27.18889)" gradientUnits="userSpaceOnUse" xlink:href="#linearGradient2091"/><radialGradient id="radialGradient3037" cx="23.071" cy="35.127" r="10.319" fx="23.071" fy="35.127" gradientTransform="matrix(0.914812,0.01265023,-0.00821502,0.213562,2.253914,27.18889)" gradientUnits="userSpaceOnUse" xlink:href="#linearGradient2091"/><linearGradient id="linearGradient3041" x1="16.875" x2="27.901" y1="22.852" y2="34.977" gradientTransform="translate(-1.9043922e-7,16.000001)" gradientUnits="userSpaceOnUse" xlink:href="#linearGradient7916"/><radialGradient id="radialGradient3887" cx="34.014" cy="29.298" r="28.82" fx="34.014" fy="29.298" gradientTransform="matrix(0.40376813,-0.25836056,0.21538873,0.32302984,3.6939103,24.066574)" gradientUnits="userSpaceOnUse" xlink:href="#linearGradient3863"/><radialGradient id="radialGradient3895" cx="18.35" cy="7.25" r="28.008" fx="18.35" fy="7.25" gradientTransform="matrix(0.91761552,-0.59233287,0.36903421,0.57169107,-1.983319,22.157964)" gradientUnits="userSpaceOnUse" xlink:href="#linearGradient3889"/></defs><path id="path3885" d="M 29.669485,13.393524 C 21.043761,13.544255 4.491606,19.297906 4.491606,19.297906 l 4.8274943,29.521908 c 15.0516487,2.177556 32.7481237,2.588194 45.3617997,0 l 4.827495,-29.521908 c 0,0 -19.69559,-6.081633 -29.83891,-5.904382 z" style="fill:url(#radialGradient3887);fill-opacity:1;fill-rule:nonzero;stroke:url(#radialGradient3895);stroke-width:.99999987999999995;stroke-linecap:round;stroke-linejoin:round;stroke-miterlimit:4;stroke-opacity:1"/><path style="fill:none;fill-opacity:1;fill-rule:nonzero;stroke:#2e3436;stroke-width:.99999987999999995;stroke-linecap:round;stroke-linejoin:round;stroke-miterlimit:4;stroke-opacity:1" id="path2408" d="M 29.600764,12.501438 C 20.720689,12.659396 3.6804526,18.688905 3.6804526,18.688905 L 8.6502975,49.62624 c 15.4954835,2.281959 33.7137825,2.712284 46.6994045,0 l 4.969845,-30.937335 c 0,0 -20.276363,-6.373216 -30.718783,-6.187467 z"/><g id="g3788" transform="matrix(1.3709917,0,0,1.3749927,-11.95205,-14.426423)" style="fill:#eeeeec"><rect id="rect3768-1" width="20" height="5" x="22.059" y="31.129" style="fill:#eeeeec;fill-opacity:1;stroke:none"/></g><g id="g3031" transform="translate(8.0149523,-8.5313662)"><path id="text1314" d="m 27.514356,53.542683 0,-9.02696 9.978464,-0.04018 0,-6.995324 -9.969535,0 -0.0089,-9.96017 -7.016274,0.01116 0.0045,9.931152 -9.989626,0.07366 -0.03571,6.968539 10.034269,-0.02902 0.0067,9.040353 6.996185,0.02679 z" style="font-size:59.90107727000000182px;font-style:normal;font-variant:normal;font-weight:700;font-stretch:normal;text-align:start;line-height:125%;writing-mode:lr-tb;text-anchor:start;fill:#c00;fill-opacity:1;stroke:#a40000;stroke-width:1.00000036000000003px;stroke-linecap:butt;stroke-linejoin:miter;stroke-opacity:1;font-family:Bitstream Vera Sans"/><path id="path7076" d="m 26.498702,52.533921 0,-9.034182 10.002602,0 -0.0067,-5.024429 -9.986977,0 0,-9.994974 -4.994834,0.01786 0.0089,9.977116 -10.026189,0.01786 -0.02679,4.97309 10.064393,0.0089 -0.01339,9.027485 4.978952,0.03125 z" style="font-size:59.90107727000000182px;font-style:normal;font-variant:normal;font-weight:700;font-stretch:normal;text-align:start;line-height:125%;writing-mode:lr-tb;text-anchor:start;opacity:.40860213000000001;fill:#ef2929;fill-opacity:1;stroke:url(#linearGradient3041);stroke-width:1.00000059999999991px;stroke-linecap:butt;stroke-linejoin:miter;stroke-opacity:1;font-family:Bitstream Vera Sans"/><path id="path7914" d="m 11,41.000001 c 0,1.9375 25.984375,-0.96875 25.984375,-0.03125 l 0,-3 L 27,38.000001 l 0,-9.965228 -6,0 0,9.965228 -10,0 0,3 z" style="opacity:.31182796;fill:#fff;fill-opacity:1;fill-rule:evenodd;stroke:none"/></g></svg>