<svg xmlns="http://www.w3.org/2000/svg" xmlns:svg="http://www.w3.org/2000/svg" xmlns:xlink="http://www.w3.org/1999/xlink" id="svg2" width="64" height="64" version="1.1"><metadata id="metadata7"/><defs id="defs5"><linearGradient id="linearGradient3889"><stop style="stop-color:#fff;stop-opacity:1" id="stop3891" offset="0"/><stop style="stop-color:#f7f7f7;stop-opacity:1" id="stop3893" offset="1"/></linearGradient><linearGradient id="linearGradient3863"><stop id="stop3879" offset="0" style="stop-color:#fff;stop-opacity:1"/><stop style="stop-color:#eeeeec;stop-opacity:1" id="stop3867" offset="1"/></linearGradient><linearGradient id="linearGradient3855"><stop style="stop-color:#eeeeec;stop-opacity:1" id="stop3857" offset="0"/><stop style="stop-color:#eeeeec;stop-opacity:0" id="stop3859" offset="1"/></linearGradient><linearGradient id="linearGradient3063"><stop style="stop-color:#fff;stop-opacity:1" id="stop3065" offset="0"/><stop style="stop-color:#fff;stop-opacity:0" id="stop3067" offset="1"/></linearGradient><linearGradient id="linearGradient4975" x1="34.893" x2="45.919" y1="36.423" y2="48.548" gradientTransform="translate(-18.01785,2.428811)" gradientUnits="userSpaceOnUse" xlink:href="#linearGradient1322"/><linearGradient id="linearGradient1322"><stop id="stop1324" offset="0" style="stop-color:#729fcf"/><stop id="stop1326" offset="1" style="stop-color:#5187d6;stop-opacity:1"/></linearGradient><linearGradient id="linearGradient7922" x1="16.875" x2="27.901" y1="22.852" y2="34.977" gradientTransform="translate(-1.9043922e-7,16.000001)" gradientUnits="userSpaceOnUse" xlink:href="#linearGradient7916"/><linearGradient id="linearGradient7916"><stop style="stop-color:#fff;stop-opacity:1" id="stop7918" offset="0"/><stop style="stop-color:#fff;stop-opacity:.34020618" id="stop7920" offset="1"/></linearGradient><radialGradient id="radialGradient2097" cx="23.071" cy="35.127" r="10.319" fx="23.071" fy="35.127" gradientTransform="matrix(0.914812,0.01265023,-0.00821502,0.213562,2.253914,27.18889)" gradientUnits="userSpaceOnUse" xlink:href="#linearGradient2091"/><linearGradient id="linearGradient2091"><stop style="stop-color:#000;stop-opacity:1" id="stop2093" offset="0"/><stop style="stop-color:#000;stop-opacity:0" id="stop2095" offset="1"/></linearGradient><radialGradient id="radialGradient3083" cx="23.071" cy="35.127" r="10.319" fx="23.071" fy="35.127" gradientTransform="matrix(0.914812,0.01265023,-0.00821502,0.213562,2.253914,27.18889)" gradientUnits="userSpaceOnUse" xlink:href="#linearGradient2091"/><radialGradient id="radialGradient3037" cx="23.071" cy="35.127" r="10.319" fx="23.071" fy="35.127" gradientTransform="matrix(0.914812,0.01265023,-0.00821502,0.213562,2.253914,27.18889)" gradientUnits="userSpaceOnUse" xlink:href="#linearGradient2091"/><linearGradient id="linearGradient2667"><stop id="stop2669" offset="0" style="stop-color:#fff;stop-opacity:1"/><stop id="stop2671" offset="1" style="stop-color:#fcfcff;stop-opacity:0"/></linearGradient><linearGradient id="linearGradient3816"><stop style="stop-color:#000;stop-opacity:1" id="stop3818" offset="0"/><stop style="stop-color:#000;stop-opacity:0" id="stop3820" offset="1"/></linearGradient><radialGradient id="radialGradient4169" cx="28.09" cy="27.203" r="13.565" fx="28.09" fy="27.203" gradientTransform="matrix(0.93681229,0,0,0.76909961,-6.4342365,-5.6763437)" gradientUnits="userSpaceOnUse" xlink:href="#linearGradient4163"/><linearGradient id="linearGradient4163"><stop style="stop-color:#3b74bc;stop-opacity:1" id="stop4165" offset="0"/><stop style="stop-color:#2d5990;stop-opacity:1" id="stop4167" offset="1"/></linearGradient><linearGradient id="linearGradient3824"><stop style="stop-color:#fff;stop-opacity:1" id="stop3826" offset="0"/><stop style="stop-color:#c9c9c9;stop-opacity:1" id="stop3828" offset="1"/></linearGradient><radialGradient id="radialGradient3822" cx="31.113" cy="19.009" r="8.662" fx="31.113" fy="19.009" gradientTransform="matrix(0.87778782,0,0,0.86920509,-5.4654217,-6.9284067)" gradientUnits="userSpaceOnUse" xlink:href="#linearGradient3816"/><radialGradient id="radialGradient4171" cx="29.345" cy="17.064" r="9.162" fx="29.345" fy="17.064" gradientTransform="matrix(0.69169505,0,0,0.68493187,0.10519363,-6.8261647)" gradientUnits="userSpaceOnUse" xlink:href="#linearGradient3800"/><linearGradient id="linearGradient3800"><stop style="stop-color:#f4d9b1;stop-opacity:1" id="stop3802" offset="0"/><stop style="stop-color:#df9725;stop-opacity:1" id="stop3804" offset="1"/></linearGradient><linearGradient id="linearGradient4362" x1="20.662" x2="22.627" y1="35.818" y2="36.218" gradientTransform="matrix(0.983375,0.181588,-0.181588,0.983375,6.231716,-2.651466)" gradientUnits="userSpaceOnUse" xlink:href="#linearGradient4356"/><linearGradient id="linearGradient4356"><stop style="stop-color:#000;stop-opacity:1" id="stop4358" offset="0"/><stop style="stop-color:#000;stop-opacity:0" id="stop4360" offset="1"/></linearGradient><linearGradient id="linearGradient4366" x1="22.687" x2="21.408" y1="36.39" y2="35.74" gradientTransform="matrix(-0.977685,0.210075,0.210075,0.977685,55.1096,-3.945209)" gradientUnits="userSpaceOnUse" xlink:href="#linearGradient4356"/><radialGradient id="radialGradient3180" cx="29.345" cy="17.064" r="9.162" fx="29.345" fy="17.064" gradientTransform="matrix(0.787998,0,0,0.787998,6.221198,3.617627)" gradientUnits="userSpaceOnUse" xlink:href="#linearGradient3800"/><linearGradient id="linearGradient2152-7"><stop id="stop2154-1" offset="0" style="stop-color:#9aa29a;stop-opacity:1"/><stop id="stop2156-9" offset="1" style="stop-color:#b5beb5;stop-opacity:1"/></linearGradient><linearGradient id="linearGradient37935-4"><stop id="stop37937-7" offset="0" style="stop-color:#9497b3;stop-opacity:1"/><stop id="stop37939-5" offset="1" style="stop-color:#4c4059;stop-opacity:1"/></linearGradient><linearGradient id="linearGradient2145-1"><stop style="stop-color:#fffffd;stop-opacity:1" id="stop2147-3" offset="0"/><stop style="stop-color:#cbcbc9;stop-opacity:1" id="stop2149-6" offset="1"/></linearGradient><linearGradient id="linearGradient42174-0"><stop style="stop-color:#a0a0a0;stop-opacity:1" id="stop42176-3" offset="0"/><stop style="stop-color:#fff;stop-opacity:1" id="stop42178-0" offset="1"/></linearGradient><linearGradient id="linearGradient10653-0"><stop style="stop-color:#f3f4ff;stop-opacity:1" id="stop10655-6" offset="0"/><stop style="stop-color:#9193af;stop-opacity:1" id="stop10657-1" offset="1"/></linearGradient><radialGradient id="radialGradient206" cx="28.09" cy="27.203" r="13.565" fx="28.09" fy="27.203" gradientTransform="matrix(0.93681229,0,0,0.76909961,-6.4342365,-5.6763437)" gradientUnits="userSpaceOnUse" xlink:href="#linearGradient4163"/><radialGradient id="radialGradient208" cx="31.113" cy="19.009" r="8.662" fx="31.113" fy="19.009" gradientTransform="matrix(0.87778782,0,0,0.86920509,-5.4654217,-6.9284067)" gradientUnits="userSpaceOnUse" xlink:href="#linearGradient3816"/><radialGradient id="radialGradient210" cx="29.345" cy="17.064" r="9.162" fx="29.345" fy="17.064" gradientTransform="matrix(0.69169505,0,0,0.68493187,0.10519363,-6.8261647)" gradientUnits="userSpaceOnUse" xlink:href="#linearGradient3800"/></defs><g style="stroke-width:1.53785205" id="g204" transform="matrix(0.64709963,0,0,0.653431,30.373069,8.470459)"><g style="stroke-width:1.53785205" id="g202" transform="translate(8.4275584,4.6178402)"><path id="path190" d="m 18.361856,26.219633 h 7.65773 c 2.16969,0 4.317776,-0.957805 5.105152,-3.687726 0.747709,-2.592383 0.12763,-7.529105 -4.722266,-11.52414 h -9.061647 c -3.138494,4.537187 -4.424683,7.829097 -3.071344,12.502017 0.660315,1.916703 1.795053,2.709849 4.092375,2.709849 z" style="color:#000;display:inline;overflow:visible;visibility:visible;fill:url(#radialGradient206);fill-opacity:1;fill-rule:evenodd;stroke:#204a87;stroke-width:2.24984646px;stroke-linecap:round;stroke-linejoin:round;stroke-miterlimit:4;stroke-dasharray:none;stroke-dashoffset:0;stroke-opacity:1;marker:none"/><path style="color:#000;display:inline;overflow:visible;visibility:visible;fill:#729fcf;fill-opacity:1;fill-rule:evenodd;stroke:none;stroke-width:1.53785205px;marker:none" id="path192" d="m 20.076203,13.312596 c 0,0 -1.888405,1.443171 -1.725723,3.181754 -1.791763,-1.56526 -1.843242,-4.564652 -1.843242,-4.564652 z"/><path id="path194" d="m 23.971891,13.312596 c 0,0 1.888405,1.443171 1.725723,3.181754 1.791763,-1.56526 1.843243,-4.564652 1.843243,-4.564652 z" style="color:#000;display:inline;overflow:visible;visibility:visible;fill:#729fcf;fill-opacity:1;fill-rule:evenodd;stroke:none;stroke-width:1.53785205px;marker:none"/><ellipse id="ellipse196" cx="21.845" cy="9.594" rx="7.603" ry="7.529" style="color:#000;display:inline;overflow:visible;visibility:visible;fill:url(#radialGradient208);fill-opacity:1;fill-rule:evenodd;stroke:none;stroke-width:1.53785205px;marker:none"/><ellipse id="ellipse198" cx="21.955" cy="6.552" rx="7.603" ry="7.529" style="color:#000;display:inline;overflow:visible;visibility:visible;fill:url(#radialGradient210);fill-opacity:1;fill-rule:evenodd;stroke:#c17d11;stroke-width:2.24984646px;stroke-linecap:round;stroke-linejoin:round;stroke-miterlimit:4;stroke-dasharray:none;stroke-dashoffset:0;stroke-opacity:1;marker:none"/><ellipse id="ellipse200" cx="21.955" cy="6.552" rx="6.669" ry="6.604" style="color:#000;display:inline;overflow:visible;visibility:visible;opacity:.19620254;fill:none;stroke:#fff;stroke-width:2.24984813px;stroke-linecap:round;stroke-linejoin:round;stroke-miterlimit:4;stroke-dasharray:none;stroke-dashoffset:0;stroke-opacity:1;marker:none"/></g></g><g style="stroke-width:1.53785205" id="g3613" transform="matrix(0.64709963,0,0,0.653431,35.60875,13.73732)"><g style="stroke-width:1.53785205" id="g3605" transform="translate(8.4275584,4.6178402)"><path style="color:#000;display:inline;overflow:visible;visibility:visible;fill:url(#radialGradient4169);fill-opacity:1;fill-rule:evenodd;stroke:#204a87;stroke-width:2.24984646px;stroke-linecap:round;stroke-linejoin:round;stroke-miterlimit:4;stroke-dasharray:none;stroke-dashoffset:0;stroke-opacity:1;marker:none" id="path4308" d="m 18.361856,26.219633 h 7.65773 c 2.16969,0 4.317776,-0.957805 5.105152,-3.687726 0.747709,-2.592383 0.12763,-7.529105 -4.722266,-11.52414 h -9.061647 c -3.138494,4.537187 -4.424683,7.829097 -3.071344,12.502017 0.660315,1.916703 1.795053,2.709849 4.092375,2.709849 z"/><path id="path4312" d="m 20.076203,13.312596 c 0,0 -1.888405,1.443171 -1.725723,3.181754 -1.791763,-1.56526 -1.843242,-4.564652 -1.843242,-4.564652 z" style="color:#000;display:inline;overflow:visible;visibility:visible;fill:#729fcf;fill-opacity:1;fill-rule:evenodd;stroke:none;stroke-width:1.53785205px;marker:none"/><path style="color:#000;display:inline;overflow:visible;visibility:visible;fill:#729fcf;fill-opacity:1;fill-rule:evenodd;stroke:none;stroke-width:1.53785205px;marker:none" id="path4316" d="m 23.971891,13.312596 c 0,0 1.888405,1.443171 1.725723,3.181754 1.791763,-1.56526 1.843243,-4.564652 1.843243,-4.564652 z"/><ellipse id="path4318" style="color:#000;display:inline;overflow:visible;visibility:visible;fill:url(#radialGradient3822);fill-opacity:1;fill-rule:evenodd;stroke:none;stroke-width:1.53785205px;marker:none" cx="21.845" cy="9.594" rx="7.603" ry="7.529"/><ellipse style="color:#000;display:inline;overflow:visible;visibility:visible;fill:url(#radialGradient4171);fill-opacity:1;fill-rule:evenodd;stroke:#c17d11;stroke-width:2.24984646px;stroke-linecap:round;stroke-linejoin:round;stroke-miterlimit:4;stroke-dasharray:none;stroke-dashoffset:0;stroke-opacity:1;marker:none" id="path4320" cx="21.955" cy="6.552" rx="7.603" ry="7.529"/><ellipse id="path4322" style="color:#000;display:inline;overflow:visible;visibility:visible;opacity:.19620254;fill:none;stroke:#fff;stroke-width:2.24984813px;stroke-linecap:round;stroke-linejoin:round;stroke-miterlimit:4;stroke-dasharray:none;stroke-dashoffset:0;stroke-opacity:1;marker:none" cx="21.955" cy="6.552" rx="6.669" ry="6.604"/></g></g><g id="g166" transform="matrix(0.83961529,0,0,0.83961527,104.03101,11.508056)" style="stroke-width:1.19102168"><path id="path153" d="m -98.03267,11.900712 0.98377,-0.983776 c 0.16528,-0.165135 -0.35006,-0.9436571 -1.15258,-1.7463462 -0.8027,-0.8026891 -1.58122,-1.3177036 -1.74636,-1.152591 l -2.69519,2.6951982 18.49977,18.499633 2.6952,-2.695198 c 0.16528,-0.165135 -0.34969,-0.943665 -1.15258,-1.746354 -0.8027,-0.802689 -1.58122,-1.317708 -1.74636,-1.152591 l -0.98376,0.983775 z" style="color:#000;display:inline;overflow:visible;visibility:visible;opacity:1;fill:#000;fill-opacity:1;fill-rule:nonzero;stroke:#000;stroke-width:1.19102168;stroke-linecap:round;stroke-linejoin:round;stroke-miterlimit:4;stroke-dasharray:none;stroke-dashoffset:0;stroke-opacity:1;marker:none;enable-background:accumulate"/><path style="color:#000;display:inline;overflow:visible;visibility:visible;opacity:1;fill:#729fcf;fill-opacity:1;fill-rule:nonzero;stroke:#000;stroke-width:1.19102168;stroke-linecap:round;stroke-linejoin:round;stroke-miterlimit:4;stroke-dasharray:none;stroke-dashoffset:0;stroke-opacity:1;marker:none;enable-background:accumulate" id="path149" d="m -75.77257,2.3423784 c -1.38307,-1.38305676 -4.70234,-1.47971666 -6.59536,0.4133024 l -9.93089,9.9308952 c -0.29496,0.29504 -0.79543,0.477794 -1.19916,0.372547 -1.66638,-0.43435 -2.9987,-0.762117 -4.53469,-1.158411 l -4.61036,-1.187515 c -4.2738,-1.0931744 -8.57766,-2.2019968 -13.23731,-3.3879147 -0.62939,-0.1601878 -1.47339,-0.2496891 -1.93263,0.2095484 -1.32925,1.3292511 -1.87683,1.9583085 -2.9688,3.0502843 -0.2781,0.278211 -0.10569,0.972947 0.24437,1.152591 6.01634,3.087134 13.50659,6.821229 18.51128,9.360422 0.37105,0.188148 0.45706,0.940022 0.16304,1.234087 -2.48951,2.489529 -5.07927,4.997802 -7.50345,7.421978 -0.34444,0.344625 -0.88164,0.61682 -1.36216,0.53555 -1.36984,-0.231662 -2.18165,-0.351896 -3.38209,-0.576298 -0.5569,-0.104081 -1.24679,0.01274 -1.64741,0.413303 l -2.18292,2.182931 c -0.3748,0.374814 -0.24062,0.837279 0.13979,1.071091 1.65675,1.018246 5.69694,3.11491 6.24028,3.422843 0.55961,0.317189 0.93066,0.660442 1.32723,1.327227 0.31932,0.536756 2.40458,4.583514 3.42282,6.240284 0.23387,0.380466 0.6963,0.514523 1.07109,0.139724 l 2.18296,-2.182935 c 0.40059,-0.400604 0.51741,-1.090491 0.41329,-1.647389 -0.2245,-1.20043 -0.34481,-2.012272 -0.57628,-3.382095 -0.0813,-0.480533 0.19077,-1.01754 0.53554,-1.362154 2.42418,-2.424176 4.93243,-5.013941 7.42197,-7.50347 0.29422,-0.294065 1.05175,-0.202052 1.2399,0.168808 2.53921,5.004717 6.26749,12.489144 9.35461,18.505468 0.17952,0.35006 0.8744,0.522698 1.15261,0.24448 1.09196,-1.091976 1.72683,-1.633724 3.05608,-2.962975 0.45924,-0.459234 0.36393,-1.30905 0.20389,-1.938445 -1.18593,-4.659653 -2.29472,-8.963506 -3.38793,-13.237311 l -1.1875,-4.610368 c -0.39627,-1.535981 -0.72407,-2.868331 -1.15842,-4.534681 -0.10532,-0.403738 0.0776,-0.904132 0.37255,-1.19916 l 9.93093,-9.9308956 c 1.89298,-1.8930191 1.79635,-5.2123164 0.41328,-6.5953732 z"/><path style="color:#000;display:inline;overflow:visible;visibility:visible;opacity:1;fill:#3465a4;fill-opacity:1;fill-rule:nonzero;stroke:#000;stroke-width:1.19102168;stroke-linecap:round;stroke-linejoin:round;stroke-miterlimit:4;stroke-dasharray:none;stroke-dashoffset:0;stroke-opacity:1;marker:none;enable-background:accumulate" id="path147" d="m -75.77257,2.3423784 c -1.38307,-1.38305676 -4.70234,-1.47971666 -6.59536,0.4133024 l -9.93089,9.9308952 -9.56426,9.645639 c -2.48951,2.489529 -5.07927,4.997802 -7.50345,7.421978 l -2.19451,7.04942 c 0.55961,0.317189 0.93066,0.660442 1.32723,1.327227 l 7.04942,-2.194565 c 2.42418,-2.424176 4.93243,-5.013941 7.42197,-7.50347 l 9.64579,-9.564184 9.93093,-9.9308956 c 1.89298,-1.8930191 1.79635,-5.2123164 0.41328,-6.5953732 z"/><path id="path145" d="m -111.56104,36.803613 c 0,0 5.70293,-6.882825 6.96736,-5.612982 1.26443,1.269843 -5.64013,6.940209 -5.64013,6.940209" style="color:#000;display:inline;overflow:visible;visibility:visible;opacity:1;fill:#729fcf;fill-opacity:1;fill-rule:nonzero;stroke:#000;stroke-width:1.19102168;stroke-linecap:round;stroke-linejoin:bevel;stroke-miterlimit:4;stroke-dasharray:none;stroke-dashoffset:0;stroke-opacity:1;marker:none;enable-background:accumulate"/><path id="path117" d="m -95.76242,28.432805 9.64579,-9.564184" style="color:#000;display:inline;overflow:visible;visibility:visible;opacity:1;fill:none;fill-opacity:1;fill-rule:nonzero;stroke:#000;stroke-width:1.19102168;stroke-linecap:round;stroke-linejoin:bevel;stroke-miterlimit:4;stroke-dasharray:none;stroke-dashoffset:0;stroke-opacity:1;marker:none;enable-background:accumulate"/><path id="path119" d="m -101.86308,22.332215 9.56426,-9.645639" style="color:#000;display:inline;overflow:visible;visibility:visible;opacity:1;fill:none;fill-opacity:1;fill-rule:nonzero;stroke:#000;stroke-width:1.19102168;stroke-linecap:round;stroke-linejoin:bevel;stroke-miterlimit:4;stroke-dasharray:none;stroke-dashoffset:0;stroke-opacity:1;marker:none;enable-background:accumulate"/><path id="path121" d="m -98.03267,11.900712 -4.61036,-1.187515" style="color:#000;display:inline;overflow:visible;visibility:visible;opacity:1;fill:none;fill-opacity:1;fill-rule:nonzero;stroke:#000;stroke-width:1.19102168;stroke-linecap:round;stroke-linejoin:bevel;stroke-miterlimit:4;stroke-dasharray:none;stroke-dashoffset:0;stroke-opacity:1;marker:none;enable-background:accumulate"/><path id="path123" d="m -85.33076,24.602462 1.1875,4.610368" style="color:#000;display:inline;overflow:visible;visibility:visible;opacity:1;fill:none;fill-opacity:1;fill-rule:nonzero;stroke:#000;stroke-width:1.19102168;stroke-linecap:round;stroke-linejoin:bevel;stroke-miterlimit:4;stroke-dasharray:none;stroke-dashoffset:0;stroke-opacity:1;marker:none;enable-background:accumulate"/><path id="path125" d="m -109.36653,29.754193 -2.19451,7.04942" style="color:#000;display:inline;overflow:visible;visibility:visible;opacity:1;fill:none;fill-opacity:1;fill-rule:nonzero;stroke:#000;stroke-width:1.19102168;stroke-linecap:round;stroke-linejoin:bevel;stroke-miterlimit:4;stroke-dasharray:none;stroke-dashoffset:0;stroke-opacity:1;marker:none;enable-background:accumulate"/><path id="path127" d="m -110.23381,38.13084 7.04942,-2.194565" style="color:#000;display:inline;overflow:visible;visibility:visible;opacity:1;fill:none;fill-opacity:1;fill-rule:nonzero;stroke:#000;stroke-width:1.19102168;stroke-linecap:round;stroke-linejoin:bevel;stroke-miterlimit:4;stroke-dasharray:none;stroke-dashoffset:0;stroke-opacity:1;marker:none;enable-background:accumulate"/><path style="color:#000;display:inline;overflow:visible;visibility:visible;opacity:1;fill:none;fill-opacity:1;fill-rule:nonzero;stroke:#000;stroke-width:1.19102168;stroke-linecap:round;stroke-linejoin:round;stroke-miterlimit:4;stroke-dasharray:none;stroke-dashoffset:0;stroke-opacity:1;marker:none;enable-background:accumulate" id="path151" d="m -75.77257,2.3423784 c -1.38307,-1.38305676 -4.70234,-1.47971666 -6.59536,0.4133024 l -9.93089,9.9308952 c -0.29496,0.29504 -0.79543,0.477794 -1.19916,0.372547 -1.66638,-0.43435 -2.9987,-0.762117 -4.53469,-1.158411 l 0.98377,-0.983776 c 0.16528,-0.165135 -0.35006,-0.9436571 -1.15258,-1.7463462 -0.8027,-0.8026891 -1.58122,-1.3177036 -1.74636,-1.152591 l -2.69519,2.6951982 c -4.2738,-1.0931744 -8.57766,-2.2019968 -13.23731,-3.3879147 -0.62939,-0.1601878 -1.47339,-0.2496891 -1.93263,0.2095484 -1.32925,1.3292511 -1.87683,1.9583085 -2.9688,3.0502843 -0.2781,0.278211 -0.10569,0.972947 0.24437,1.152591 6.01634,3.087134 13.50659,6.821229 18.51128,9.360422 0.37105,0.188148 0.45706,0.940022 0.16304,1.234087 -2.48951,2.489529 -5.07927,4.997802 -7.50345,7.421978 -0.34444,0.344625 -0.88164,0.61682 -1.36216,0.53555 -1.36984,-0.231662 -2.18165,-0.351896 -3.38209,-0.576298 -0.5569,-0.104081 -1.24679,0.01274 -1.64741,0.413303 l -2.18292,2.182931 c -0.3748,0.374814 -0.24062,0.837279 0.13979,1.071091 1.65675,1.018246 5.69694,3.11491 6.24028,3.422843 0.55961,0.317189 0.93066,0.660442 1.32723,1.327227 0.31932,0.536756 2.40458,4.583514 3.42282,6.240284 0.23387,0.380466 0.6963,0.514523 1.07109,0.139724 l 2.18296,-2.182935 c 0.40059,-0.400604 0.51741,-1.090491 0.41329,-1.647389 -0.2245,-1.20043 -0.34481,-2.012272 -0.57628,-3.382095 -0.0813,-0.480533 0.19077,-1.01754 0.53554,-1.362154 2.42418,-2.424176 4.93243,-5.013941 7.42197,-7.50347 0.29422,-0.294065 1.05175,-0.202052 1.2399,0.168808 2.53921,5.004717 6.26749,12.489144 9.35461,18.505468 0.17952,0.35006 0.8744,0.522698 1.15261,0.24448 1.09196,-1.091976 1.72683,-1.633724 3.05608,-2.962975 0.45924,-0.459234 0.36393,-1.30905 0.20389,-1.938445 -1.18593,-4.659653 -2.29472,-8.963506 -3.38793,-13.237311 l 2.6952,-2.695198 c 0.16528,-0.165135 -0.34969,-0.943665 -1.15258,-1.746354 -0.8027,-0.802689 -1.58122,-1.317708 -1.74636,-1.152591 l -0.98376,0.983775 c -0.39627,-1.535981 -0.72407,-2.868331 -1.15842,-4.534681 -0.10532,-0.403738 0.0776,-0.904132 0.37255,-1.19916 l 9.93093,-9.9308956 c 1.89298,-1.8930191 1.79635,-5.2123164 0.41328,-6.5953732 z"/></g></svg>