<svg xmlns="http://www.w3.org/2000/svg" xmlns:svg="http://www.w3.org/2000/svg" xmlns:xlink="http://www.w3.org/1999/xlink" id="svg2" width="16" height="16" version="1.1"><metadata id="metadata7"/><defs id="defs5"><linearGradient id="linearGradient3041" x1="16.875" x2="27.901" y1="22.852" y2="34.977" gradientTransform="translate(-1.9043922e-7,16.000001)" gradientUnits="userSpaceOnUse" xlink:href="#linearGradient7916"/><linearGradient id="linearGradient7916"><stop style="stop-color:#fff;stop-opacity:1" id="stop7918" offset="0"/><stop style="stop-color:#fff;stop-opacity:.34020618" id="stop7920" offset="1"/></linearGradient></defs><g id="g3848" transform="scale(0.5,0.5)"><path id="path3054" d="m 0.4609525,20.415279 -0.068454,-6.503124 12.8693425,-9.1043762 18.345661,6.7084862 0,6.708489 -12.800889,8.967468 z" style="fill:#d3d7cf;stroke:none"/><polygon id="polygon9" points="63.214 54.119 63.214 67.976 2.014 45.704 2.014 45.704 2.014 31.849" style="fill:#eeeeec" transform="matrix(0.3,0,0,0.3,-0.0135095,6.5367898)"/><polygon id="polygon9-3" points="63.214 67.976 2.014 45.704 2.014 45.704 2.014 31.849 63.214 54.119" style="fill:#eeeeec" transform="matrix(0.3,0,0,0.3,-0.0135095,4.4831698)"/><polygon id="polygon11" points="105.846 38.12 63.214 67.976 63.214 54.119 63.214 54.119 105.846 24.265" style="fill:#d3d7cf" transform="matrix(0.3,0,0,0.3,-0.2546225,6.6475798)"/><polygon id="polygon11-9" points="105.846 38.12 63.214 67.976 63.214 54.119 63.214 54.119 105.846 24.265" style="fill:#d3d7cf" transform="matrix(0.3,0,0,0.3,-0.2546225,4.3886008)"/><polygon id="polygon15" points="63.718 54.119 63.718 67.623 63.214 67.976 62.711 67.792 62.711 67.792 62.711 54.119" style="fill:#fff" transform="matrix(0.3,0,0,0.46796091,-0.2261915,-4.7983232)"/><polygon id="polygon13" points="2.512 31.5 63.141 53.443 105.332 24.078 105.846 24.265 105.846 24.947 63.288 54.682 2.014 32.391 2.014 31.849 2.512 31.5" transform="matrix(0.29670362,0,0,0.3,-0.02756109,4.4454)" style="fill:#fff"/><path id="path3949" d="M 0.954,14.775729 1.069845,20.055453 2.923359,20.71542 2.865435,15.490692 z" style="fill:#888a85;stroke:#babdb6;stroke-width:.25;stroke-linecap:butt;stroke-linejoin:miter;stroke-miterlimit:4;stroke-opacity:1;stroke-dasharray:none"/><path id="path3949-8" d="m 3.454626,15.701913 0.115845,5.279724 1.853514,0.659967 -0.057924,-5.224728 z" style="fill:#888a85;stroke:#babdb6;stroke-width:.25;stroke-linecap:butt;stroke-linejoin:miter;stroke-miterlimit:4;stroke-opacity:1;stroke-dasharray:none"/><path id="path3949-9" d="m 5.932998,16.64007 0.115845,5.279724 1.853514,0.659967 -0.057924,-5.224728 z" style="fill:#888a85;stroke:#babdb6;stroke-width:.25;stroke-linecap:butt;stroke-linejoin:miter;stroke-miterlimit:4;stroke-opacity:1;stroke-dasharray:none"/><path id="path3949-8-4" d="m 8.433624,17.566254 0.115845,5.279724 1.853514,0.659967 -0.05792,-5.224728 z" style="fill:#888a85;stroke:#babdb6;stroke-width:.25;stroke-linecap:butt;stroke-linejoin:miter;stroke-miterlimit:4;stroke-opacity:1;stroke-dasharray:none"/><path id="path3949-7" d="m 10.930137,18.507125 0.115845,5.279724 1.853514,0.659967 -0.05792,-5.224728 z" style="fill:#888a85;stroke:#babdb6;stroke-width:.25;stroke-linecap:butt;stroke-linejoin:miter;stroke-miterlimit:4;stroke-opacity:1;stroke-dasharray:none"/><path id="path3949-8-7" d="m 13.430764,19.433309 0.115845,5.279724 1.853514,0.659967 -0.05792,-5.224728 z" style="fill:#888a85;stroke:#babdb6;stroke-width:.25;stroke-linecap:butt;stroke-linejoin:miter;stroke-miterlimit:4;stroke-opacity:1;stroke-dasharray:none"/><path id="path19" d="m 16.827854,20.749206 c -0.27426,0.0049 -0.46875,0.182775 -0.46875,0.46875 0,0.3813 0.337275,0.812025 0.759375,0.965625 0.4221,0.1536 0.76875,-0.0312 0.76875,-0.4125 0,-0.3816 -0.34665,-0.812025 -0.76875,-0.965625 -0.105525,-0.03847 -0.199206,-0.05789 -0.290625,-0.05625 z" style="fill:#888a85;fill-rule:evenodd"/><path style="fill:none;stroke:#555753;stroke-width:.5;stroke-linecap:butt;stroke-linejoin:miter;stroke-miterlimit:4;stroke-opacity:1;stroke-dasharray:none" id="path3814" d="m 0.4609525,20.415279 -0.068454,-6.503124 12.8693425,-9.1043762 18.345661,6.7084862 0,6.708489 -12.800889,8.967468 z"/></g><g id="g3031" transform="matrix(0.25,0,0,0.25,5.5016813,-5.7546708)"><path id="text1314" d="m 27.514356,53.542683 0,-9.02696 9.978464,-0.04018 0,-6.995324 -9.969535,0 -0.0089,-9.96017 -7.016274,0.01116 0.0045,9.931152 -9.989626,0.07366 -0.03571,6.968539 10.034269,-0.02902 0.0067,9.040353 6.996185,0.02679 z" style="font-size:59.90107727000000182px;font-style:normal;font-variant:normal;font-weight:700;font-stretch:normal;text-align:start;line-height:125%;writing-mode:lr-tb;text-anchor:start;fill:#73d216;fill-opacity:1;stroke:#4e9a06;stroke-width:1.00000036000000003px;stroke-linecap:butt;stroke-linejoin:miter;stroke-opacity:1;font-family:Bitstream Vera Sans"/><path id="path7076" d="m 26.498702,52.533921 0,-9.034182 10.002602,0 -0.0067,-5.024429 -9.986977,0 0,-9.994974 -4.994834,0.01786 0.0089,9.977116 -10.026189,0.01786 -0.02679,4.97309 10.064393,0.0089 -0.01339,9.027485 4.978952,0.03125 z" style="font-size:59.90107727000000182px;font-style:normal;font-variant:normal;font-weight:700;font-stretch:normal;text-align:start;line-height:125%;writing-mode:lr-tb;text-anchor:start;opacity:.40860213000000001;fill:#8ae234;fill-opacity:1;stroke:url(#linearGradient3041);stroke-width:1.00000059999999991px;stroke-linecap:butt;stroke-linejoin:miter;stroke-opacity:1;font-family:Bitstream Vera Sans"/><path id="path7914" d="m 11,41.000001 c 0,1.9375 25.984375,-0.96875 25.984375,-0.03125 l 0,-3 L 27,38.000001 l 0,-9.965228 -6,0 0,9.965228 -10,0 0,3 z" style="opacity:.31182796;fill:#fff;fill-opacity:1;fill-rule:evenodd;stroke:none"/></g></svg>